<?xml version="1.0" encoding="UTF-8"?>
<svg width="752pt" height="752pt" version="1.1" viewBox="0 0 752 752" xmlns="http://www.w3.org/2000/svg">
 <defs>
  <clipPath id="b">
   <path d="m139.21 220h235.79v305h-235.79z"/>
  </clipPath>
  <clipPath id="a">
   <path d="m381 233h231.79v305h-231.79z"/>
  </clipPath>
 </defs>
 <g clip-path="url(#b)">
  <path d="m193.48 449.83c3.3164-0.75781 6.6289-1.3242 9.9453-1.7031 2.9375-0.1875 5.6836 0.09375 8.5234 0.37891-0.47266 0.56641-1.043 1.2305-1.2305 2.082 0 0.94531 0 1.9883 0.37891 2.7461 0.56641 1.7031 1.7031 2.8398 3.3164 3.3164 2.3672 0.75781 4.5469 0.28516 6.4414-0.75781-0.76172 1.6094-1.2344 3.2188-1.2344 5.1133-0.1875 2.1797 1.043 5.1172 3.4102 5.4961 2.2734 0.28125 4.3555-0.47656 6.1562-1.707 0.37891 1.9883 1.1367 3.5977 3.5039 4.5469 3.6953 1.4219 7.3867-0.66406 10.23-3.0312 3.3164-2.9375 6.0625-6.6289 8.7148-10.039 0.56641-0.75781 1.1367-1.4219 1.7031-2.082 0.47266 0.28125 1.1367 0.66016 1.6094 1.0391 2.3672 1.4219 5.1133 2.3672 7.5781 3.5039 5.0195 2.082 10.133 3.9766 15.156 5.9688 10.512 4.2617 21.406 6.0625 32.391 8.7148 5.3047 1.3242 10.512 2.7461 15.535 4.7344 1.0391 0.37891 1.8945 0.75781 2.9336 1.1367-4.7344 2.5586-9.2812 5.5898-13.922 8.1445-6.9141 3.7891-14.492 6.3477-21.973 8.9961-15.062 5.1172-30.309 9.3789-44.898 15.82-11.363 4.9258-16.48 13.449-10.418 12.312 5.3047-2.7461 10.703-5.3047 16.48-7.6719 14.113-5.6836 28.984-9.6602 43.285-14.586 7.1992-2.4609 14.398-5.1133 21.121-8.8086 6.3477-3.5039 12.406-7.7656 18.848-11.082 1.2305 0.37891 2.3672 0.75781 3.5977 1.043 5.5898 1.4219 11.176 1.8008 16.859 1.8008 3.0352-0.28516 5.9727-0.66406 8.9062-1.1367 2.7461-0.37891 5.7773-0.94531 7.5781-3.125 1.043-1.3281 0.47266-3.3164-0.94531-3.9805-2.5586-0.85156-4.9258-0.09375-7.4844 0.37891-3.0312 0.37891-6.1562 0.57031-9.0938 0.47266-5.6836-0.09375-11.176-1.2305-16.574-2.8398-5.1133-1.7031-9.8516-3.7891-14.871-5.5898-5.2109-1.8945-10.512-3.125-15.914-4.4531-5.5859-1.2266-11.078-2.1758-16.668-3.5-5.3047-1.1367-10.512-3.1289-15.723-4.7383-5.2109-1.8008-10.324-3.3164-15.723-4.7344-0.47266-0.09375-2.5586-0.94531-4.832-1.4219 1.707-2.082 3.4102-4.2617 5.0234-6.3438 6.3477-8.4297 12.406-17.809 21.121-24.152 1.3242-1.1367 2.7461-1.9922 4.2617-2.9375-0.19141 0.56641-0.19141 1.1367-0.19141 1.4219-0.28125 1.7969-0.37891 3.6914-0.47266 5.5859-0.09375 2.9375-1.6094 5.9688-2.5586 8.9023-0.56641 1.8945-0.85156 3.8828-1.1367 5.7773-0.94531 6.4414 0.47266 14.207 7.957 14.207 1.043 2.3672 5.7773 2.4609 6.25-1.043 2.1797-16.102 12.027-29.645 14.965-45.465 1.4219-7.293 1.1367-15.156 0.56641-22.637-0.37891-7.5781-2.5586-15.059-4.6406-22.352-2.2734-8.4297-0.94531-17.238-1.043-25.762 0-8.7148-0.37891-17.43-0.37891-26.047 0-8.9023 0.28516-17.809 0.94531-26.805 4.3555-1.2305 8.7148-2.4609 13.262-3.3164 5.2109-0.85156 10.324-0.56641 15.535-0.56641 4.9258 0 9.8516-0.47266 14.586-0.56641 3.8828 0 9.0938-0.75781 9.6602-5.3984 0.1875-1.5156-1.2305-2.7461-2.6523-2.5586-1.6992 0.1875-3.1211 0.94531-4.8242 1.5156-1.8008 0.56641-3.7891 0.66406-5.6836 0.85156-4.7344 0.57031-9.5664 1.043-14.398 1.2305-8.2383 0.37891-17.52 1.5156-25.098 5.0195 0.47266-7.1992 1.1367-14.398 1.8945-21.594 1.1367-11.082 2.082-22.07 3.5039-33.152 0-0.85156-1.2305-0.94531-1.3242-0.09375-1.4219 8.6211-3.2227 17.145-4.5469 25.668-1.4219 8.6211-2.75 17.145-3.7891 25.766-2.1797 17.238-3.125 34.289-2.8398 51.621 0.089843 8.6172-0.47656 17.234-0.28906 25.855 0.37891 7.8594 3.3164 15.531 5.0234 23.203 1.6094 7.7656 3.3164 15.156 2.7461 23.109-0.1875 3.7891-0.94531 7.5781-1.9883 11.082-1.5156 3.8828-3.4102 7.5781-5.2109 11.27-4.168 8.7188-7.7656 17.621-9.7539 27.094-7.2969-0.09375-4.2656-11.84-2.9375-16.102 0.85156-2.3672 1.7031-4.832 2.082-7.3867 0.28516-1.7031 0.1875-3.5039 0.1875-5.2109 0-1.6094-0.1875-3.3164-0.75781-4.832 0-0.09375-0.09375-0.1875-0.1875-0.28516 1.2305-0.94531 2.3672-1.8945 3.3164-2.9375 2.4609-2.3672 6.0625-6.6289 3.9766-10.133-0.28125-0.85156-1.5156-1.0391-2.082-0.47266-1.2305 1.3281-1.4219 2.3672-2.1797 3.8828-0.66406 1.6133-1.9883 2.9375-3.125 4.0742-2.7461 2.7461-6.0625 4.832-9.375 7.0078-7.3867 5.1133-13.262 12.504-18.375 19.699-5.0195 7.1992-10.324 14.207-15.723 21.312-2.1797 3.0312-4.832 6.1602-8.1484 7.957-3.0312 1.707-5.207 0.19141-6.4414-2.082 2.9375-2.6523 5.3984-6.5352 7.1992-8.9961 6.1562-8.1445 11.84-16.672 18.09-24.816 3.4102-4.3594 12.219-11.84 8.3359-18.188-0.85156-1.4219-2.6523-0.37891-2.9336 0.75781-0.75781 2.8398-1.1367 5.0195-2.75 7.4844-1.7031 2.3672-3.6914 4.6406-5.6797 6.8164-5.1172 5.9688-9.1875 12.789-13.547 19.039-2.082 3.0312-4.2617 5.9688-6.3438 8.9023-1.707 2.5586-3.4102 5.0195-5.6836 7.0117-1.9883 1.5156-5.0195 3.2188-5.4961-0.57031-0.28125-1.8945 0.66406-4.5469 1.4219-6.8203 3.8828-3.3164 6.8203-8.9023 8.5234-12.406 2.8438-5.7773 5.6836-11.652 8.6211-17.332 1.5156-2.9375 3.125-5.6836 5.0195-8.2422 1.8008-2.6523 3.5039-5.0195 4.168-8.0508 0.28516-1.2305-1.4219-2.1797-2.2734-1.4219-3.8828 3.5977-6.6289 8.9961-9.2812 13.543-3.0312 5.4961-5.7773 11.18-8.3359 16.863-2.2734 4.9258-4.6406 10.418-8.7148 14.02-1.2305 1.0391-5.4922 3.0273-5.9648 0.66016 2.4609-2.7461 3.5977-6.7227 4.8281-10.23 1.9883-5.3047 3.5977-10.609 5.7773-15.816 1.8008-4.3555 4.832-8.5234 7.293-12.598 2.2734-3.4102 4.9258-7.1055 5.1133-11.367 0.09375-2.082-1.9883-3.4102-3.7891-2.082-3.4062 2.1797-6.2461 5.1133-8.8984 8.0508-3.2227 3.4102-6.5352 6.4414-9.4727 9.9453-2.2734 2.4648-3.6016 5.5898-6.1562 7.7656-1.3281 1.3281-3.5039 2.4648-5.1172 0.94922-0.28125-0.28516-0.47266-0.57031-0.56641-0.66406 4.0742-6.1562 8.0508-12.027 11.082-18.754 1.7031-3.3164 2.9375-6.8203 4.6406-10.133 1.8008-3.5977 4.2617-6.8203 6.6289-10.039 4.832-6.0625 10.324-11.367 16.102-16.48 5.1172-4.6445 10.703-8.8125 15.535-13.832 5.2109-5.1133 5.6836-11.363 4.832-18.277-0.57031-3.7891-1.3281-7.4844-1.6133-11.18-0.28125-4.3555-0.56641-8.8086-1.0391-13.164-1.8945-17.051-3.3164-34.191-4.2617-51.336-0.66406-13.734-1.2344-27.469-2.9375-41.203-0.1875-0.66406-1.3242-0.75781-1.3242 0-0.37891 17.051 0.1875 34.098 1.1367 51.148 0.1875 2.8398 0.37891 5.6836 0.47266 8.5234-0.09375 0-0.1875 0-0.28516 0.09375-3.125 1.3281-6.1562 2.0859-9.5664 2.3711-4.2617 0.56641-8.5234 1.6094-12.977 2.1797-9.375 1.4219-18.941 1.1367-27.75-2.7461-4.4531-1.9883-8.5234-5.0195-12.785-7.3867-4.5508-2.4688-9.2852-4.5508-13.926-6.6367-4.3555-1.8945-8.9961-3.3164-13.641-4.4531-2.3672-0.56641-4.7344-1.1367-7.0078-1.6094-3.0312-0.66016-6.1562-0.56641-9.0938-1.3242-0.37891-0.09375-0.66406 0.37891-0.28516 0.47266 2.4648 0.94922 4.5469 2.3711 6.8203 3.6016 2.3672 1.3242 5.0195 2.4609 7.3867 3.7891 4.7383 2.4609 9.7578 4.8281 14.586 7.293 4.6445 2.2734 9.0938 4.7344 13.547 7.3867 4.832 2.8398 9.375 6.0625 14.586 8.0508 9.6602 3.6953 20.457 3.4102 30.5 1.7031 4.7344-0.75781 9.2812-2.1797 13.828-3.5977 2.2734-0.66406 4.7344-1.6094 6.4414-3.125 0.66406 12.219 1.5156 24.344 2.2734 36.559 0.1875 3.8828 0.56641 7.6719 1.1367 11.461 0.66406 3.8828 1.8945 8.2422 0.75781 12.125-1.7031 6.1562-8.5234 10.324-13.07 14.207-11.18 9.6602-23.02 20.082-29.742 33.625-2.3711 4.6406-4.168 9.5664-6.5352 14.398-2.4648 5.207-5.9688 9.7539-9.0938 14.488-1.4219 2.1797 1.1367 4.7344 2.9375 3.7891 0.66016 0.66406 1.1328 1.5156 1.9883 1.707 1.3242 0.47266 2.8398 0.47266 4.0703 0.09375 3.125-1.3242 5.3984-3.9766 7.293-6.6289 1.2305-1.8008 2.3672-3.3164 3.7891-4.7344 1.8945-1.9883 4.168-3.5039 6.1562-5.2109 1.3281-1.043 2.3711-1.9883 3.5039-3.125-0.94531 1.7031-1.9883 3.3164-2.9375 5.0195-1.5156 2.5586-3.125 4.9258-4.4531 7.5781-1.5117 2.7461-2.2695 5.8711-3.3086 8.8047-1.1367 3.125-2.1797 6.25-3.3164 9.4727-0.19141 0.57031-0.37891 1.1367-0.66406 1.707-6.3477-1.8945-13.641-0.94531-20.078 0.47266-6.8203 1.4219-13.734 3.4102-20.176 5.7773-13.262 4.7344-26.238 9.8516-39.023 15.914-0.47266 0.1875-0.28516 1.1367 0.37891 1.043 13.07-1.9883 25.574-6.3477 38.172-10.039 6.5352-2.0859 13.07-4.0781 19.512-5.6875z"/>
 </g>
 <path d="m484.36 373.21c-2.4609-1.5156-5.0195-1.2305-7.7656-1.4219-2.7461-0.1875-5.4922-0.28516-8.1445-0.94531-4.832-1.043-8.9023-3.4102-11.84-7.3867-2.8438-3.6016-4.2617-8.1484-5.2109-12.598-1.5156-6.1562-2.5547-12.312-3.3125-18.566-2.6523-20.457-4.5469-43.949-21.027-58.156 1.4219-2.1797 2.8398-4.2617 4.3555-6.3477 4.2617-6.1523 8.6211-12.215 12.977-18.277 4.6406-6.25 9.2812-12.312 13.07-19.039 1.1367-2.1758-2.1797-3.5977-3.6953-1.9883-4.9219 5.4922-9.1875 11.652-13.637 17.711-4.6406 6.3477-9.1875 12.695-13.641 19.133-8.9023 12.789-17.047 25.859-24.816 39.402-3.8828 6.3477-7.6719 12.789-11.555 19.227-3.4102 5.8711-6.6289 11.934-8.3359 18.66-1.0391 4.2617-0.47266 8.2422 0.94922 12.031-0.19141-0.097656-0.19141-0.19141-0.28516-0.19141-2.6523-2.7461-4.8281-5.8711-7.5781-8.6172-0.47266-0.47656-1.1367-0.19141-1.0391 0.47266 1.2305 7.1055 9.1875 11.082 11.934 17.332 3.5039 7.7656 6.0625 16.008 8.8086 24.059 1.4219 4.168 2.5586 8.6211 4.832 12.504 2.1758 3.7852 2.2695 8.8086 3.125 12.879 0.75781 3.6953 2.082 7.3867 3.3125 10.895 1.1367 3.125 2.3672 6.5352 4.3555 9.2812-0.94531 0.85156-1.8906 0.66406-3.3125-0.37891-0.94531-0.75781-1.5156-1.3281-2.4609-1.5156-0.66406-3.4102-2.4648-6.5352-3.6016-9.8516-1.9883-4.9258-3.9766-9.7539-5.3047-14.871-0.1875-0.75781-1.2305-0.56641-1.1367 0.19141 0.19141 4.9258 0.66406 9.6602 2.4648 14.395 1.8945 5.0195 4.168 9.6602 3.5039 15.156-0.57031 4.9258-0.66406 9.8516-1.1367 14.777-0.19141 2.3672-0.47266 4.9219-0.09375 7.1953-1.2305 0-2.4609-0.37891-3.5977-1.3242-0.94922-0.47266-1.5195-1.2305-2.1797-1.6094-0.097657-2.4648-0.19141-5.0195-0.097657-7.3906 0.097657-3.4062 0.28516-6.6289 0.75781-9.9453 0.37891-2.8398 0.56641-5.6836 0-8.4297-1.6094-10.512-9.9453-18.941-10.418-29.93 0-0.94531-1.6094-0.94531-1.7031 0-0.19141 5.0195 0.66016 9.2852 2.5547 13.926 1.9922 4.9258 4.9258 9.6602 5.6836 14.965 0.47266 3.2188-0.1875 6.0625-1.1367 9.2812-0.94531 3.2188-1.3242 6.1562-1.4219 9.4727-0.1875 5.5859 0.003906 11.555 0.38281 17.426-1.5156 0.09375-2.7461 0.28516-4.2617 0 1.8945-2.6523-0.37891-6.7266-1.043-9.6602-0.75781-3.4102-1.1367-6.9141-1.6094-10.418-0.37891-3.3164 0.09375-6.7266 0-10.133-0.28516-7.1992-4.7383-13.926-8.0547-19.988-3.125-5.7773-7.7656-11.27-8.9023-17.902 0-0.94531-1.3242-0.85156-1.5156 0.09375-1.2305 5.7812 1.3281 10.609 3.8828 15.441 1.6094 2.8398 3.0312 5.8711 4.4531 8.7148 1.6094 3.4102 3.5039 6.9141 4.4531 10.605 0.75781 3.0312 0.1875 6.3477 0 9.5664 0 3.0312 0.37891 6.0625 0.94531 9.1875 0.47266 2.7461 0.94531 5.7773 1.8945 8.3359 0.28516 0.75781 0.56641 1.4219 0.85156 1.9883 0.09375 0.37891 0.28516 0.85156 0.47266 1.3242-6.3438-1.5117-9.0898-8.4258-10.797-13.922-1.1367-3.5039-1.1367-7.3867-1.5156-10.984-0.37891-3.6016-1.418-6.9141-3.3125-9.9453-1.5156-2.9375-3.4102-5.4961-5.3047-8.1445-2.2734-3.3164-3.6016-7.0117-5.0195-10.703-3.0312-7.957-6.6328-15.723-10.23-23.492-0.1875-0.66016-1.3242-0.37891-1.1367 0.37891 0.75781 4.0742 1.707 7.957 3.0312 11.934 1.2305 4.3594 3.3164 8.4297 4.4531 12.883 0.09375 0 0.1875 0.1875 0.1875 0.1875-0.1875 0.38281-0.1875 0.76172-0.1875 1.1367 0.47266 6.4414-0.19141 12.883-3.6016 18.566-1.043 1.7031-2.2734 3.7891-3.9766 4.6406-1.707 0.85156-2.2734-5.4922-2.2734-6.25-0.09375-3.3164 0.56641-6.8203 0.56641-10.137 0-4.168-0.37891-8.3359-1.1367-12.406-1.3242-8.3359-4.4531-16.102-5.8711-24.246-0.56641-4.0742-0.75781-8.0508-0.1875-12.031 0.56641-4.4531 2.5586-8.6211 4.168-12.785 3.125-7.8633 6.6289-15.629 10.227-23.301 7.1992-15.344 14.68-30.5 21.5-46.031 5.2109-11.84 10.039-23.68 14.871-35.52 4.7344-11.84 10.23-23.68 13.449-36.086 0.37891-1.043-1.043-2.082-1.7031-1.043-4.6406 6.9141-7.7656 14.492-11.176 21.973-3.4102 7.7695-6.7266 15.629-10.043 23.395-6.4375 15.629-12.973 31.164-20.172 46.414-7.293 15.344-15.062 30.496-21.5 46.219-3.2227 7.7695-5.9688 15.156-5.7812 23.68 0.1875 8.3359 3.125 16.195 5.2109 24.152 1.9883 8.1445 2.3672 16.008 1.8945 24.344-0.28516 5.0195 0.09375 15.531 7.3867 15.629 5.1172 0.1875 8.8086-5.7773 10.703-9.8516 1.043-2.3672 2.0859-5.2109 2.7461-8.1445 1.8945 2.9375 3.8828 5.6836 5.3047 8.7148 1.8008 3.6953 1.8945 7.7656 2.1797 11.648 0.28516 3.9766 1.3242 7.5781 2.6523 11.176 2.4609 6.25 6.4414 11.461 13.262 13.07 1.6094 3.8828 8.8086 2.7461 12.027 2.8398 1.4219 0.09375 2.8398-0.85156 3.0312-2.3672 0.09375-2.082 0.09375-4.168 0-6.25 2.5586 1.5156 6.0625 1.8008 8.8086 1.9883 1.8945 0.1875 3.4102-1.8008 2.6523-3.4102-1.5156-3.5039-0.66406-7.293-0.66406-10.984-0.09375-4.168 0.37891-8.2422 0.47266-12.504 0.85156 0.56641 1.8008 0.94531 2.5586 1.2305 2.8398 0.85156 5.3047-1.043 7.1055-3.0312 0.47266-0.47266 0.56641-1.3242 0.28125-1.9883-3.5977-7.1992-6.5352-14.016-8.0508-21.973-0.75781-3.9805-1.2305-7.8633-2.2734-11.746-1.2305-4.4531-3.2188-8.9023-5.1133-13.07-1.7031-3.8828-3.5039-7.7656-5.0195-11.746-0.94922-2.7461-1.9883-5.5859-3.2227-8.1445-2.082-7.4844-7.1016-14.398-4.8281-22.258 1.9883-6.5352 5.3984-12.598 8.9023-18.375 3.9766-6.3477 7.8633-12.691 11.746-19.133 5.8711-9.5664 11.746-19.039 17.902-28.414 1.8945 2.6523 3.7891 5.2109 5.5898 7.8633 3.3164 5.2109 4.9258 11.082 6.0625 17.145 2.457 12.688 2.2695 25.855 4.3516 38.547 1.8945 10.988 3.6953 23.207 12.219 31.16 4.0742 3.8828 9.2812 5.7773 14.586 7.0078 5.1172 1.2344 13.449 2.2734 17.336-2.1758 0.94531-1.1367 0.75781-3.2227-0.47656-4.0742z"/>
 <g clip-path="url(#a)">
  <path d="m614.78 418.29c-2.7461-13.355-7.957-26.332-15.914-37.32-4.2617-5.9648-9.6602-11.082-15.059-16.102-5.7773-5.2109-11.461-10.324-17.051-15.723-11.363-10.984-21.973-23.016-30.969-36.273-8.4297-12.41-15.25-26.43-14.871-41.773 0.1875-5.8711 1.3242-11.742 2.6523-17.426 1.3242-5.7773 3.3125-11.367 3.9766-17.238 0.28516-2.8398-3.4102-3.5039-4.5469-1.1367-3.6914 7.1992-5.8711 15.344-7.3867 23.301-1.7031 7.7656-1.9883 15.816-0.94531 23.68 2.2734 14.965 10.512 28.227 19.227 40.254 9.375 13.07 20.555 24.723 32.203 35.613 10.609 10.039 22.352 19.133 30.215 31.637 7.1992 11.461 11.367 25.004 12.883 38.266 1.5156 12.598 0.56641 25.859-5.0195 37.508-5.0234 10.793-14.02 19.223-24.441 24.812-11.082 5.9688-24.719 9.3789-37.316 7.957-4.168-0.57031-19.984-5.5898-22.922-5.2109 0.1875-1.043 0.1875-1.9883 0.37891-3.125 0.94531-5.0195 4.0742-9.2812 5.5898-14.02 0.1875-0.85156-0.66406-1.7031-1.5156-1.3242-5.7773 1.9883-8.7148 9.0938-10.043 14.586-0.375 1.6094-0.56641 3.5039-0.56641 5.3984-2.1797 0.75781-4.4531 1.707-6.3477 2.5586-4.7344 2.6523-8.8086 6.7227-14.016 8.3359-0.47266 0.1875-0.85156 0.1875-1.4219 0.37891 0.47266-0.09375 0 0-0.37891-0.37891-0.94531-0.75781-1.1367-2.5586-1.3242-3.5078-0.37891-2.3672 0.28125-6.8164-2.75-7.9531-2.3672-0.75781-4.6406 0.37891-6.7227 1.1367-1.6094 0.56641-2.8398 0.56641-4.3555-0.37891-0.75781-0.57031-1.1367-1.707-1.5156-2.3711-0.19141-0.47266-0.47656-0.75781-0.75781-1.1328 2.1797-5.0195 1.9883-12.219 4.4531-16.672 0.75781-1.5156-1.2305-2.5586-2.3672-1.8945-3.0352 2.2734-3.5078 7.293-4.457 10.609-0.56641 2.5547-1.0391 6.25-3.2188 7.4805-0.28516-2.8398-1.5156-5.4922-4.9258-6.1562-4.7344-0.85156-12.406 2.1797-14.773-3.5977-1.1367-2.4609-0.94531-5.5898-0.75781-8.1445 0.09375-3.125 0.1875-6.25 0.47266-9.4727 0.66406-7.293 3.0312-14.113 4.0742-21.406 0.09375-0.94531-1.1367-1.4219-1.7031-0.66406-0.85547 1.2305-1.5195 2.3672-2.2773 3.6953-0.1875-0.19141-0.37891-0.37891-0.66406-0.47266-1.8945-0.85547-3.4102-0.47656-5.207-0.097656 1.043-2.2734 2.4609-4.4531 4.3555-6.4414 3.3164-3.7891 7.957-6.8203 12.219-9.8516 4.3555-2.9375 8.4297-6.3477 12.785-9.4727 0.37891-0.09375 0-0.75781-0.37891-0.56641-3.5039 1.5195-7.0078 2.75-10.512 4.0742 1.5156-2.2734 2.9375-4.7344 4.2617-7.293 1.4219-3.2188 3.125-6.7227 2.9375-10.324 0-1.043-1.5156-1.4219-1.9883-0.56641-1.8945 2.7461-2.75 6.0625-4.0742 8.9023-1.3281 3.0312-3.125 5.9688-5.1133 8.7148-1.043 1.3242-2.0859 2.6523-3.2227 3.8828-4.5469 2.3672-8.6211 5.5898-12.125 9.4727l-0.1875 0.1875c-0.1875 0.09375-0.28516 0.28516-0.28516 0.47266-3.6914 4.168-5.9648 9.3789-7.0078 14.684-1.4219 8.332-2.1797 16.859-2.3672 25.191-0.09375 7.293 0.09375 14.398-2.4648 21.219-2.2734 6.1562-6.5352 11.648-11.082 16.387-8.6172 8.9961-20.078 14.773-31.633 18.754-8.7148 3.2188-5.0195 6.3438 3.3125 5.7773h0.1875c4.4531-1.7031 8.7148-3.5977 12.785-5.8711 9.9492-5.2109 18.758-12.031 25.672-21.125 3.6953-5.0195 6.2539-10.324 7.7695-16.289 1.5156-6.5352 1.1367-13.543 1.3242-20.176 0.37891-7.3867 1.6094-14.777 2.5586-21.973 0.1875-1.4219 0.56641-2.6523 0.94531-3.8828 1.6094 0 3.2188 0 4.832 0.66406 0.09375-0.003906 0.1875-0.003906 0.28516-0.003906-1.4219 3.8828-2.3711 7.8633-3.1289 11.934-0.94531 6.0625-1.5117 12.883-0.75391 18.852 0.94531 6.25 5.3984 9.9453 11.461 10.891 2.7461 0.47266 5.5898 0 8.5234-0.1875h0.28516s0 0.09375 0.09375 0.1875c0.1875 0.75781 0 1.9883 0 2.7461 0 1.4219 0.85156 2.9375 2.3672 3.0312 3.125 0.09375 5.3984-0.85156 6.8203-2.4609 0 0.28516 0.1875 0.56641 0.1875 0.75781 0.66406 1.6094 1.6094 3.3125 3.4102 3.8828 2.7461 1.3242 5.3984 0.37891 8.2422-0.75781 0.85156-0.1875 1.8945-0.94531 2.082 0.1875 0.57031 1.9922 0.19141 4.168 0.57031 6.2539 0.56641 2.3672 1.8906 4.6406 4.2617 5.3984 5.6797 1.7031 10.703-2.6523 15.152-5.4961 2.7461-1.7969 5.5898-3.2188 8.6211-4.0703 2.6523 7.6719 5.7773 11.555 10.512 12.504 0 0-4.5469-7.293-4.9258-13.922 1.1367-0.1875 2.3672-0.28516 3.5039-0.28516 1.8945 0 26.898 7.6719 38.074 5.4922 12.406-2.2734 24.059-7.4844 33.625-15.723 9.2812-7.8633 16.008-18.469 19.039-30.309 3.5078-13.074 3.1289-26.809 0.57031-39.688z"/>
 </g>
 <path d="m540.71 464.7c-1.3242-1.8945-3.6953 0-3.125 1.7031 0.75781 2.7461 1.8945 5.3984 2.3672 8.1445 0.66406 2.5586 0.66406 5.2109 0.56641 7.957 0 1.2305-0.37891 6.6289-1.7031 6.8203-2.6484 0.37891-2.4609 3.9805 0.19141 4.5469 5.3047 1.1367 6.8203-5.7773 7.1992-9.5664 0.66406-6.9141-1.8008-13.922-5.4961-19.605z"/>
 <path d="m600.67 432.5c-1.3242-13.641-6.25-26.426-13.164-38.078-13.543-22.828-34.762-40.066-54.934-56.828-7.957-6.6289-15.344-13.922-21.5-22.449-6.0664-8.6172-9.9492-18.469-11.559-28.98-3.6953-23.109 8.5234-46.125 21.691-64.312 0.28125-0.28516-0.28516-0.66406-0.47656-0.28516-8.9023 11.082-18.277 21.973-23.773 35.328-5.4922 13.547-5.7773 27.754-1.8945 41.77 7.1992 26.238 30.5 42.34 49.918 59.387 15.629 13.734 30.781 28.887 40.066 47.738 4.9258 9.8516 7.5781 20.555 8.6211 31.539 0.66406 6.4414 0.37891 13.164-1.3242 19.32-1.5156 5.8711-4.6406 11.176-7.5781 16.195-1.7109 2.9414 2.0781 5.9727 4.1602 3.2266 4.6406-5.8711 8.4297-12.312 10.23-19.605 2.0859-7.7695 2.3672-16.008 1.5156-23.965z"/>
 <path d="m587.5 421.23c-3.3164-13.262-11.27-24.344-20.934-33.91-10.23-10.32-22.352-18.562-33.625-27.465-12.219-9.6602-24.531-19.512-34.383-31.539-11.363-13.641-17.617-30.879-17.805-48.59 0-1.2305-1.8945-1.5156-1.8945-0.1875-1.3242 13.262 0.47266 26.898 5.7773 39.211 5.9688 13.543 15.629 23.961 26.332 34.098 11.461 10.988 24.246 20.555 36.844 30.402 9.9453 7.8633 19.797 16.859 25.859 28.129 3.8828 7.0078 5.8711 14.586 6.25 22.637 0.56641 8.9023-1.9883 16.574-5.3984 24.723-1.5156 3.8867 3.7891 6.4414 6.4414 3.5078 9.4688-10.895 10.133-27.754 6.5352-41.016z"/>
 <path d="m566.38 425.11c-1.8008-6.8203-4.3594-12.883-8.2422-18.754-8.3359-12.504-18.184-23.492-29.93-32.68-11.176-8.7109-23.773-15.344-34.855-24.059-9.9453-7.8594-18.281-17.711-24.344-28.98-0.56641-1.2305-2.6523-0.47266-1.9883 0.85156 4.832 10.988 11.27 20.836 19.703 29.266 9.6602 9.7539 21.312 17.051 32.016 25.48 5.6836 4.3555 11.461 8.7148 16.48 13.828 4.9258 5.2109 9.2812 10.891 13.641 16.672 4.168 5.3984 7.5781 10.988 9.5664 17.711 0.75391 3.125 1.5117 6.1562 2.0781 9.375 0.56641 3.5977 0.37891 7.293 0.94531 10.988 0.38281 3.2188 5.4023 4.168 6.3477 0.75781 2.1797-6.5352 0.28516-14.02-1.418-20.457z"/>
 <path d="m542.04 408.82c-1.3281-6.3477-5.9688-13.262-13.164-13.164-4.168 0.09375-8.3359 2.8398-11.84 4.8281s-7.1992 3.6016-10.801 5.7773c-3.2188 1.8945-6.3477 4.4531-8.2422 7.8633-2.1758 4.3555-0.375 8.2383 1.5195 12.219 0.37891 0.56641 1.1367 0.28516 1.1367-0.37891-0.28516-3.6953-0.75781-7.1992 1.3242-10.418 1.8008-2.5586 4.6406-4.0742 7.293-5.6836s5.4922-2.7461 8.1445-4.168c3.0312-1.7031 5.8711-3.4102 9.0938-4.6406 5.875-2.3672 9.5664 3.4102 10.703 8.4297 0.85547 3.2188-0.1875 5.9648-2.082 8.4297-1.8008 2.3672-5.1133 4.168-5.1133 7.3867 0 0.66406 0.75781 1.3242 1.5156 1.3242 3.3125 0.38281 6.7227-4.543 8.332-6.9102 2.1797-3.3164 3.125-7.1055 2.1797-10.895z"/>
 <path d="m555.68 434.49c-0.37891-1.6094-1.6133-2.2734-2.75-3.5039-0.94531-1.1367-1.7031-2.2734-2.1797-3.5039-1.2305-2.6523-2.1758-5.4961-3.3125-8.1445-0.28516-0.66406-1.2305-0.37891-1.2305 0.37891 0.09375 3.5039-0.94531 6.8203-0.75781 10.324 0.28516 3.5039 3.2188 8.6211 7.1055 8.6211 2.4609-0.003906 3.8828-1.8984 3.125-4.1719z"/>
 <path d="m530.77 405.12c-0.37891-0.28125-0.85547 0.19141-0.75781 0.57031 0 2.1797-1.1367 6.0625-3.125 7.1992-1.6094 0.94531-2.9375 0-4.4531-0.28516-1.3281-0.09375-2.5586 0.09375-3.9805 0.37891-2.3672 0.66406-3.3125 2.8398-4.168 4.9258 0 0.09375 0 0.1875-0.09375 0.1875h-0.1875c-1.5156 0.1875-2.8398 0.28516-4.3555 0.37891-1.6133 0.097656-1.9922 1.9883-1.3281 3.0312 1.7031 2.9375 7.0078 3.6016 9.7539 1.9883 1.2344-0.66016 1.8008-1.9883 2.1797-3.2188 0.37891-0.94531 0.66406-1.7031 0.66406-2.6523 0-0.37891 0-0.66406 0.09375-1.1367v-0.1875c0.85156-0.66406 2.6523 0.1875 3.4102 0.47266 0.85156 0.1875 1.7031 0 2.3672-0.28516 1.6094-0.56641 2.7461-1.5156 3.8828-2.7461 1.9883-2.2734 2.4648-6.4414 0.097656-8.6211z"/>
 <path d="m508.89 375.29c-1.2305-4.2656-7.0078-6.2539-10.703-8.0547-3.8828-1.9883-8.0508-3.5977-12.027-5.4922-3.2188-1.7031-6.25-3.9766-8.9961-6.4414-2.6523-2.4609-6.7266-4.6406-7.4844-8.4297-0.09375-0.75781-1.043-0.56641-1.043 0.19141 0.28516 3.4102 1.8945 6.0625 3.6953 8.9023 2.3672 3.6953 4.7344 7.0078 7.7656 9.9453 3.5039 3.5039 7.7656 5.8711 12.031 8.2422 2.1797 1.2305 4.4531 2.4609 6.6289 3.7891 2.3672 1.3242 4.7344 2.5586 7.4844 2.1797 2.2695-0.28906 3.4062-2.75 2.6484-4.832z"/>
</svg>
