<?xml version="1.0" encoding="UTF-8"?>
<svg width="752pt" height="752pt" version="1.1" viewBox="0 0 752 752" xmlns="http://www.w3.org/2000/svg">
 <g>
  <path d="m397.96 219.35h-59.641c-3.9258 0-7.1055-3.1758-7.1055-7.1055 0-3.9258 3.1758-7.1055 7.1055-7.1055h59.645c3.9258 0 7.1055 3.1758 7.1055 7.1055-0.003907 3.9258-3.1875 7.1055-7.1094 7.1055z"/>
  <path d="m324.59 504.73c0 3.7383-3.0312 6.7656-6.7656 6.7656-3.7383 0-6.7695-3.0273-6.7695-6.7656 0-3.7383 3.0312-6.7695 6.7695-6.7695 3.7344 0 6.7656 3.0312 6.7656 6.7695"/>
  <path d="m371.96 486.83c0 3.7383-3.0312 6.7695-6.7656 6.7695-3.7383 0-6.7695-3.0312-6.7695-6.7695s3.0312-6.7656 6.7695-6.7656c3.7344 0 6.7656 3.0273 6.7656 6.7656"/>
  <path d="m416.55 501.41c0 3.7383-3.0312 6.7695-6.7695 6.7695-3.7344 0-6.7656-3.0312-6.7656-6.7695 0-3.7383 3.0312-6.7656 6.7656-6.7656 3.7383 0 6.7695 3.0273 6.7695 6.7656"/>
  <path d="m399.88 292.29v-59.641h-63.348v60.387l-58.148 58.898v152.62c0 19.887 16.121 36.012 36.012 36.012h106.02c19.887 0 36.012-16.125 36.012-36.012l-0.003907-152.62zm-82.047 233.41c-11.566 0-20.98-9.4102-20.98-20.977s9.4102-20.977 20.98-20.977c11.559 0 20.969 9.4102 20.969 20.977 0 11.574-9.4102 20.977-20.969 20.977zm47.363-17.895c-11.566 0-20.977-9.4062-20.977-20.969 0-11.566 9.4102-20.977 20.977-20.977s20.977 9.4102 20.977 20.977c-0.003907 11.562-9.4141 20.969-20.977 20.969zm-17.758-75.273 29.684-33.691-30.582 20.332c-2.6055 4.3008-12.465 17.465-35.93 18.105l-0.26172-9.4688c16.676-0.45312 24.418-8.3906 27.168-12.156-1.5352-17.422 3.9766-55.238 82.219-51.172-0.007813 0-26.121 80.422-72.297 68.051zm62.352 89.859c-11.566 0-20.977-9.4102-20.977-20.977 0-11.566 9.4102-20.977 20.977-20.977s20.977 9.4102 20.977 20.977c0 11.566-9.4102 20.977-20.977 20.977z"/>
 </g>
</svg>
