<?xml version="1.0" encoding="UTF-8"?>
<svg width="752pt" height="752pt" version="1.1" viewBox="0 0 752 752" xmlns="http://www.w3.org/2000/svg">
 <path d="m591.01 351.85-32.676-10.891c-0.94922-0.47266-97.086-35.52-111.29-41.676-5.2109-1.8945-9.9453-3.3164-14.68-3.3164-8.5234 0-14.68 3.3164-19.418 5.6836-3.7891 1.8945-16.102 12.312-31.73 26.992 0.94531-4.2617 0.94531-8.9961-1.4219-13.262 0.47266-2.3672 11.84-9.9453 28.887-17.051 1.8945-0.94531 20.363-10.418 53.988-28.414 1.4219-0.47266 1.8945-1.8945 2.3672-3.3164 1.4219-5.6836-8.9961-19.891-15.156-27.469-5.6836-7.5781-9.9453-10.891-14.207-10.891-0.94531 0-2.3672 0.47266-3.3164 0.47266h-0.47266c-0.94531 0-3.3164 0.47266-17.051 15.156-0.47266 0-0.47266 0.47266-0.94531 0.47266-1.8945 1.8945-3.7891 4.2617-6.1562 6.6289l-0.47266 0.47266c-15.156 16.102-33.625 35.992-36.465 38.359-3.3164 1.8945-18.469 13.262-21.785 26.52-1.4219 5.6836-8.5234 20.363-14.207 32.203-0.94531 0.94531-1.8945 2.8398-2.8398 5.2109-6.1562 12.312-11.84 22.73-12.312 23.68-1.4219 1.8945-1.8945 4.2617-0.94531 6.6289 0 0 0 0.47266 0.47266 0.47266-11.84 7.5781-26.047 15.629-35.992 21.785v-1.8945c0-3.7891-2.3672-9.4727-4.2617-13.262v-0.47266c-1.8945-4.2617-5.2109-8.0508-9.4727-10.891-0.47266-0.47266-0.94531-0.47266-1.4219-0.94531-1.8945-0.94531-3.7891-1.8945-5.6836-2.3672-5.2109-1.8945-10.891-3.7891-13.262-4.7344l-31.258-31.73s0-0.47266-0.47266-0.47266c-4.2617-4.2617-8.0508-6.1562-11.367-5.6836-3.3164 0.47266-4.7344 2.8398-5.2109 3.3164-0.47266 0.94531-9.4727 13.262-16.102 21.785-2.8359 3.3164-3.7812 6.6328-2.8359 9.9492 0.47266 1.8945 1.4219 3.3164 2.8398 4.2617l0.47266 0.47266v0.47266h0.47266l0.47266 0.47266c1.8945 0.94531 8.0508 4.7344 15.629 8.9961 15.156 8.9961 25.574 15.156 27.941 17.523v1.4219c-0.47266 4.2617 1.4219 7.5781 2.8398 10.418 1.4219 1.8945 3.7891 3.3164 6.1562 5.2109 0.94531 0.47266 1.8945 0.94531 2.3672 1.4219 0 0 11.367 9.4727 17.051 9.4727 1.8945 0 4.7344-0.47266 6.1562-1.4219h0.47266c1.4219 0 2.3672-0.47266 3.3164-1.4219 0 0 1.8945 1.4219 3.7891 1.4219 0.94531 0 1.4219 0 2.3672-0.47266 0.47266-0.47266 1.4219-0.94531 1.8945-1.8945l0.47266 0.47266c-12.312 8.9961-21.785 14.68-24.152 16.102-1.8945 0.94531-6.1562 3.3164-11.84 6.1562l-0.47266 0.47266c-14.207 7.5781-35.047 18.469-39.781 21.312-3.7891 2.3672-15.629 6.6289-22.73 8.9961-5.2109 1.8945-6.1562 1.8945-7.1055 2.8398-1.4219 0.47266-6.1562 2.8398-5.2109 9.9453 0.47266 1.8945 1.4219 3.7891 4.2617 5.6836 4.7344 3.3164 16.102 7.1055 31.73 7.1055 7.5781 0 15.156-0.94531 22.258-2.8398 5.6836-1.4219 10.418-2.3672 15.156-2.3672 5.6836 0 10.418 0.94531 16.102 2.3672 3.3164 0.94531 6.6289 1.4219 10.891 2.3672 1.8945 0.47266 3.3164 0.47266 5.2109 0.47266 9.4727 0 14.207-5.2109 15.629-8.0508 0 0 0.94531-1.8945 1.4219-2.8398 0-0.47266 2.8398-8.5234 3.7891-23.68 0.47266-6.1562 19.891-14.207 41.203-22.73 15.156-6.1562 32.676-13.262 50.672-22.258 12.785-6.6289 44.043-24.625 54.461-51.621l1.8945 0.94531c0.47266 0.47266 58.723 39.781 71.984 48.777 13.262 8.9961 61.094 39.781 61.566 39.781 1.4219 0.94531 3.3164 0.47266 4.2617-0.94531 0.47266-0.47266 0.47266-1.4219 0.47266-2.3672 0-0.94531-0.47266-1.4219-1.4219-1.8945l-0.94531-0.47266c-11.367-7.1055-49.254-31.258-60.617-39.309-12.785-8.5234-71.039-47.832-72.457-48.777l-5.6836-2.3672c-0.94531-0.47266-1.8945-0.47266-2.3672 0-0.94531 0.47266-1.4219 0.94531-1.4219 1.8945 0 0.47266-8.0508 28.887-52.566 51.148-17.523 8.9961-35.047 16.102-50.199 22.258-26.52 10.891-44.043 17.996-44.516 27.469-0.94531 12.785-2.8398 20.363-3.7891 22.258 0 0.47266-1.8945 7.1055-11.367 7.1055-1.4219 0-2.8398 0-4.2617-0.47266-3.7891-0.47266-7.1055-1.4219-10.418-1.8945-5.6836-1.4219-10.891-2.3672-17.051-2.3672-5.2109 0-10.418 0.94531-16.574 2.3672-6.6289 1.8945-13.734 2.8398-20.836 2.8398-12.312 0-22.73-2.8398-27.469-5.6836-0.94531-2.8438-1.418-3.793-1.8906-3.793-0.47266-2.3672 0.47266-2.8398 1.8945-3.7891l0.94531-0.47266c0.47266 0 3.3164-1.4219 5.6836-1.8945 7.5781-2.8398 19.418-6.6289 24.152-9.4727 4.2617-2.8398 25.574-13.734 39.781-21.312 5.6836-2.8398 9.9453-5.2109 11.84-6.1562 2.3672-1.4219 13.262-8.0508 26.52-17.523 0.47266 0.47266 0.94531 0.47266 1.8945 0.47266 18.941 0 71.512-39.781 72.457-45.938 0-1.4219-0.94531-2.8398-2.3672-3.3164 0 0-1.4219-0.47266-4.7344-3.7891 1.4219-3.3164 2.3672-6.1562 2.3672-7.5781l0.47266-0.94531c0-0.47266 0.94531-2.3672 1.8945-4.7344l1.8945-1.8945c0.47266 1.8945 0.94531 4.2617 1.8945 5.6836 0.94531 1.4219 1.8945 1.8945 2.8398 1.8945h0.47266c1.4219 0 2.8398-0.94531 4.7344-2.3672 1.4219-1.4219 7.1055-6.1562 7.5781-13.734 0.47266-4.2617 0.94531-7.5781 1.8945-9.9453 18.941-18.469 35.992-33.625 40.254-35.992 4.7344-2.3672 9.9453-5.2109 17.051-5.2109 3.7891 0 8.0508 0.94531 12.312 2.8398 14.68 5.6836 110.82 41.203 111.77 41.203l32.676 10.891h0.47266c1.4219 0 2.8398-0.47266 3.3164-1.8945-0.94531-0.94141-1.418-2.3594-3.3125-2.8359zm-322.51 59.199-1.4219-1.4219c-1.4219-1.4219-3.7891-4.7344-4.2617-5.2109-0.47266-0.94531-1.8945-6.6289-3.3164-11.84v-0.47266c-0.47266-1.4219-1.4219-2.3672-2.8398-2.3672h-0.94531c-0.94531 0-1.4219 0.47266-1.8945 1.4219-0.47266 0.94531-0.47266 1.4219-0.47266 2.3672 0 0 2.8398 10.418 3.7891 12.312 0 0.47266 0.47266 0.94531 0.94531 1.8945 0.47266 0.94531 1.4219 1.8945 2.8398 3.7891l1.8945 2.3672c0.47266 0.47266 0.94531 1.4219 1.4219 1.8945l-0.47266-0.47266c-0.47266-0.47266-0.94531-0.94531-1.4219-0.94531-0.47266-0.47266-0.94531-0.94531-1.4219-0.94531-0.94531-0.47266-1.4219-1.4219-2.3672-2.3672-2.8398-3.3164-5.6836-7.1055-6.1562-8.5234-0.94531-2.3672-2.8398-5.2109-2.8398-5.2109-0.94531-1.4219-2.8398-1.8945-4.2617-0.94531-1.4219 0.94531-1.8945 2.8398-0.94531 4.2617 0.47266 0.47266 1.4219 2.3672 2.3672 4.2617 0.47266 1.4219 1.8945 3.7891 4.2617 6.1562h-1.418l-1.4219-1.4219c-0.47266-0.47266-0.47266-0.94531-0.94531-0.94531-0.94531-1.4219-2.3672-3.3164-4.2617-5.6836-0.94531-1.4219-2.8398-1.4219-4.2617-0.47266 0 0-0.47266 0-0.47266 0.47266 0.46484 1.418 0.46484 2.8359 1.4102 4.2578 0 0 2.3672 3.3164 4.7344 6.1562 0.47266 0.47266 0.94531 0.94531 0.94531 1.4219 0.47266 0.47266 0.47266 0.47266 0.94531 0.94531l0.47266 0.47266c-0.47266-0.47266-0.94531-0.47266-0.94531-0.94531l-0.47266-0.47266c-0.94531-0.47266-1.8945-1.4219-2.8398-1.8945-0.94531-0.47266-2.3672-1.4219-3.3164-2.3672-0.47266-0.47266-0.47266-0.47266-0.94531-0.94531-0.94531-1.8945-1.8945-3.3164-1.8945-4.7344v-1.8945-2.3672l0.94531 0.47266-0.94141-1.4258v-0.47266c0-1.4219-0.47266-2.3672-0.47266-2.8398v-0.47266l-0.47266 0.47266 0.47266-0.47266v-0.47266h-0.47266l-0.47266 0.47266v-0.47266l-0.47266-0.47266c-4.2617-2.3672-16.574-9.4727-26.047-14.68-4.2617-2.3672-9.4727-5.2109-15.156-8.5234l-0.47266-0.47266s-0.47266-0.47266-0.94531-0.47266-0.94531-0.47266-1.8945-0.94531c-0.47266-0.47266-0.94531-0.94531-1.4219-1.4219v-0.47266-0.47266c-0.47266-0.94531 0-2.8398 1.4219-4.2617 6.6289-8.9961 16.102-21.785 16.102-22.258l0.94531-0.94531s0.94531 0 1.8945 0.47266c0.47266 0.47266 1.4219 0.94531 1.8945 1.4219 0.94531 0.47266 1.4219 1.4219 2.3672 2.3672l32.676 32.676h0.47266l0.47266 0.47266 9.4727 4.2617h0.47266 0.47266 0.94531 0.47266c0.47266 0 1.4219 0 1.8945 0.47266 1.8945 0.47266 3.3164 0.94531 5.2109 1.8945h0.47266s0.47266 0 0.47266 0.47266c3.3164 2.3672 6.1562 5.2109 7.5781 8.5234l0.47266 0.47266c1.4219 2.8398 2.3672 4.7344 2.8398 6.6289 0.47266 1.8945 0.94531 3.3164 0.94531 4.2617v1.4219 1.4219c-0.47266-0.47266-0.94531-0.94531-1.4219-1.4219-1.4219-1.4219-2.3672-2.3672-2.8398-3.3164-0.94531-0.94531-1.8945-6.6289-2.8398-11.367 0-1.4219-1.8945-2.8398-3.3164-2.3672-1.4219 0-2.8398 1.8945-2.3672 3.3164 0.47266 2.3672 1.4219 10.891 3.7891 14.207 0.94531 1.4219 2.3672 3.3164 4.7344 5.6836l0.47266 0.47266c0.47266 0.47266 0.94531 0.94531 1.4219 1.4219 0.47266 0.47266 1.4219 1.4219 1.8945 1.8945l1.4219 0.94531c0.47266 0 0.94531 0.94531 1.4219 1.4219-0.47266 0.94531-0.94531 1.4219-1.4219 1.4219 0 0-0.47266-0.47266-1.4219-0.47266 0 0-0.47266 0-0.47266-0.47266l-0.94141-0.007812c-1.4219-0.94531-2.8398-1.8945-4.2617-2.8398-0.94531-0.47266-1.4219-0.94531-1.8945-1.4219-0.47656-1.4219-1.4219-2.3711-1.8945-3.3164zm1.418 2.8398m-15.625 0.47656 0.47266 0.47266c0 0.47266 0.47266 0.47266 0.47266 0.94531-0.47266-0.47266-0.94531-0.94531-1.8945-1.4219-0.47266-0.47266-0.47266-0.47266-0.94531-0.94531zm10.891-22.262m59.672-11.363c0.47266-0.47266 1.4219-2.3672 1.8945-3.7891 0 1.4219-0.94922 2.8398-1.8945 3.7891zm49.25-62.988c0 0.47266 0.47266 0.94531 0.47266 1.4219 0.47266 0.47266 0.94531 1.4219 0.94531 2.3672 0.94531 5.2109-2.3672 12.785-3.3164 14.207-0.94531 0.94531-1.4219 1.8945-1.8945 3.3164v0.47266c-0.47266 1.4219-0.94531 2.8398-1.4219 4.7344 0 0.94531-0.47266 1.4219-0.47266 2.3672v1.4219c0 1.4219-0.47266 2.8398-0.47266 4.2617-0.47266 4.2617-2.8398 7.5781-5.2109 9.4727-0.47266-1.8945-0.47266-4.2617-0.47266-5.6836v-0.47266-0.47266c0-0.94531 0.47266-2.3672 0.47266-4.2617 0-1.4219 0.47266-2.3672 0.47266-3.7891 0.94531-6.6289 2.3672-15.156 2.3672-17.051 0-0.94531 0-1.8945-0.94531-2.3672-0.47266-0.47266-0.94531-0.47266-1.4219-0.94531-0.47266 0-0.94531 0-1.4219 0.47266l-1.4219 2.3672v0.47266c0 1.4219-0.47266 3.3164-0.47266 4.7344-0.47266 0.94531-1.4219 3.3164-2.3672 7.1055-0.47266 2.3672-3.3164 8.9961-5.6836 13.734l-1.8945 4.7344c-1.4219 3.3164-2.3672 5.6836-2.3672 6.1562l-0.47266 0.94531c-0.47266 0.94531-0.47266 2.3672-1.4219 4.2617 0 0.47266-0.47266 0.94531-0.47266 1.4219-0.47266 0.94531-0.47266 1.4219-0.94531 2.3672-0.47266 0.94531-0.47266 1.4219-0.94531 2.3672-0.94531 1.4219-1.4219 3.3164-2.3672 4.7344 0 0.47266-0.47266 0.94531-0.47266 0.94531 0-0.94531 0.47266-2.3672 0.47266-3.3164l1.8945-10.891c0.47266-3.3164 0.94531-5.2109 1.4219-5.6836 0.94531-2.3672 1.4219-5.2109 2.3672-8.0508 0.47266-1.8945 0.94531-3.3164 0.94531-3.3164v-0.47266c0.47266-3.3164 0.94531-5.6836 0.94531-6.6289 0-0.47266 0.47266-2.8398 1.4219-5.2109 0.47266-1.4219 0-2.8398-1.4219-3.7891 0.47266-1.4219 0.94531-2.3672 1.8945-3.7891l0.94531-2.3672c2.3672-5.6836 4.2617-9.9453 4.7344-12.312 2.8398-10.891 16.574-20.836 18.941-22.73h0.47266c3.7891-2.3672 20.363-20.363 33.625-34.57l4.2617-4.7344c0.94531-0.94531 1.8945-1.8945 2.8398-2.8398 5.2109-5.6836 10.418-10.891 14.207-14.207 2.8398-2.3672 3.7891-3.3164 3.7891-3.3164 0.47266 0 0.94531 0 0.94531-0.47266h1.4219c1.4219 0 3.3164 0.47266 8.0508 6.6289l0.47266 0.94531v0.47266l0.94531 1.4219c8.5234 10.418 13.734 19.418 13.734 22.258-31.73 17.051-51.148 27.469-53.043 27.941-0.94531 0.47266-1.8945 0.94531-3.3164 1.4219-3.7891 1.8945-9.9453 4.7344-15.629 7.5781-8.0508 4.7344-12.785 8.9961-13.734 12.312-0.45313 0.003907-0.45313 0.95313 0.019531 1.8984zm-89.504 104.19c0.94531-0.94531 1.4219-1.8945 1.4219-2.8398 0.94531-2.8398-1.4219-4.7344-2.8398-6.1562 12.785-7.1055 29.836-17.523 43.098-26.047 0 1.4219-0.47266 2.3672-0.47266 2.8398v1.4219c0 0.47266 0 1.4219 0.47266 1.8945 0.94531 1.4219 2.8398 2.3672 4.2617 2.8398 2.3672 0.94531 4.7344 0 6.1562-1.8945 0.47266-0.47266 0.47266-1.4219 0.94531-2.3672 2.8398 0 5.2109-2.3672 8.0508-6.6289 0.47266-0.94531 0.94531-1.8945 1.8945-3.3164 0.94531 0.94531 1.4219 1.4219 2.3672 1.8945-8.9961 8.5234-42.621 34.098-60.145 38.832-1.4219 0.47266-2.8398 0.47266-3.7891 0.94531l-1.4219-0.94531c-0.47656 0.003906 0 0.003906 0-0.47266zm56.355-71.508c-0.47266 1.4219-0.47266 2.3672-0.47266 3.3164-0.94531 3.3164-1.4219 6.1562-2.3672 7.5781 0 0.47266-0.47266 0.94531-0.47266 1.8945-0.47266 2.3672-1.4219 5.6836-1.8945 9.9453l-1.4219 7.5742c-0.47266 1.4219-0.47266 3.3164-0.94531 4.7344l-0.47266 2.3672c-0.47266 1.4219-0.47266 2.3672-0.47266 2.3672h-0.47266c0-0.47266 0-1.4219 0.47266-1.8945l0.94531-8.9961c0-0.94531 0.47266-1.8945 0.47266-3.3164 0.47266-1.8945 0.47266-3.7891 0.47266-5.2109v-2.3672c0-3.3164 1.8945-8.5234 3.3164-12.312 0.94531-2.3672 1.8945-4.2617 2.3672-4.7344 0 0 0-0.47266 0.47266-0.47266v-0.47266c0.47266-0.47266 0.47266-0.94531 0.94531-1.8945 0 0.94531 0 1.418-0.47266 1.8945z"/>
</svg>
