<?xml version="1.0" encoding="UTF-8"?>
<svg width="752pt" height="752pt" version="1.1" viewBox="0 0 752 752" xmlns="http://www.w3.org/2000/svg">
 <g>
  <path d="m357.22 311.41c-5.2188-1.3984-10.633-1.8984-16.02-1.4844-5.6914-0.25391-11.348-0.87109-17.016-1.3984v0.003906c-11.297-1.2773-22.684-1.5938-34.035-0.94922-3.4414 0.28125-6.8594 0.80469-10.227 1.5703 7.4258-4.168 14.793-8.4531 22.312-12.445 8.293-4.4023 16.766-8.4648 25.09-12.812 4.1523-2.1719 8.582-3.6328 12.883-5.4922 4.2812-1.8477 8.418-3.7773 12.621-5.7617 0.45312-0.21484 0.33594-1.043-0.20703-1.0078-2.2344 0.015625-4.4688 0.15234-6.6875 0.41797-2.4609 0.4375-4.9336 1.0312-7.3633 1.6211-4.5156 1.0977-8.8711 2.8711-13.305 4.2617h0.003907c-9.0469 2.9531-17.805 6.7227-26.168 11.262-15.254 7.7539-29.633 17.117-42.895 27.926-2.293 1-4.5469 2.1289-6.7773 3.2773-6.2227-0.050782-12.426-0.66406-18.641-0.35156-7.5039 0.37891-15.016 0.47266-22.52 0.86328h-0.003907c-7.1914 0.32031-14.363 1.0039-21.488 2.0469-7.3555 0.74219-14.48 2.9609-20.961 6.5156-0.34766 0.22266-0.3125 0.83203 0.17578 0.84766v-0.003907c3.418-0.023437 6.832-0.26953 10.219-0.73047 3.8398-0.38281 7.7031-0.52734 11.555-0.75391 7.2461-0.42188 14.531-0.49609 21.785-0.58203 7.3242-0.085937 14.645-0.24609 21.949-0.65234 1.4336-0.082031 2.8594-0.23047 4.2773-0.43359l-9.4648 4.5078c-6.0352 2.8867-12.094 5.7109-18.176 8.4766-6.2773 2.832-12.125 6.4062-18.602 8.7461-0.74219 0.26953-0.29687 1.5742 0.45313 1.3164 5.5898-1.918 11.34-3.0078 16.992-4.6992 5.5117-1.6484 10.906-3.7891 16.277-5.8398h-0.003907c10.879-4.2461 21.527-9.0664 31.895-14.441 5.1328-2.6133 9.8438-6.0703 15.117-8.3945h0.003907c5.3398-2.2969 10.988-3.793 16.762-4.4453 11.203-0.92578 22.477-0.4375 33.559 1.457 6.1914 0.80078 12.426 1.3906 18.66 1.7344v-0.003907c6.1172 1.1211 12.426 0.39453 18.129-2.0859 0.39453-0.21875 0.625-0.64453 0.58984-1.0938-0.035156-0.44922-0.32812-0.83594-0.75-0.98828z"/>
  <path d="m418.11 344.55c-1.1602-1.4531-2.5664-2.6992-4.1523-3.6758-1.4336-0.72656-2.9297-1.3359-4.4648-1.8125-3.5469-1.1602-7.1719-2.0547-10.852-2.6797-8.1133-1.4492-16.371-1.875-24.578-2.5117-8.6914-0.67188-17.398-1.2422-26.105-1.6484-7.0625-0.33203-14.074-0.29687-21.113-0.32031l4.7227-0.4375h0.003906c4.7109-0.22656 9.3359-1.3789 13.605-3.3867 2.0469-1.1328 3.9727-2.4727 5.7422-4 1.5156-1.6562 2.7656-3.5391 3.7031-5.582l-0.51172-0.4375c-1.6602 1.3867-3.5352 2.5-5.5469 3.293-1.8945 0.89844-3.8945 1.5391-5.957 1.9141-4.1797 1.0078-8.4141 1.7891-12.684 2.332-5.3477 0.61719-10.727 0.85156-16.094 1.2461-5.9062 0.75781-11.891 0.6875-17.781-0.19922-0.65625-0.13281-1 0.82422-0.32422 1.0117 5.75 1.8516 11.633 3.2578 17.598 4.207 2.5352 0.28125 5.082 0.39453 7.6328 0.33203l0.21484 0.17188c8.4922 1.293 16.852 2.875 25.391 3.8789 8.4727 0.99609 16.957 1.8672 25.457 2.6133 7.7383 0.67188 15.508 1.2109 23.207 2.2656l-0.003906 0.003906c3.9648 0.51172 7.8828 1.3359 11.719 2.4609 1.6719 0.50391 3.2852 1.1562 4.9414 1.6914 1.6992 0.40234 3.4219 0.71484 5.1562 0.93359 0.90625 0.19141 1.8594-0.87891 1.0742-1.6641z"/>
  <path d="m422.7 353.34c-4.8281-1.1758-9.8203-1.5469-14.773-1.1016l-1.4766 0.039063c2.8906-0.75781 5.7773-1.5078 8.6992-2.1289 0.32031-0.066406 0.53125-0.37891 0.46484-0.70312-0.066406-0.32031-0.38281-0.53125-0.70703-0.46484-6.3711 0.78906-12.809 0.96875-19.199 1.8008-6.1484 0.79688-12.246 2.0391-18.418 2.6367-6.1719 0.60156-12.297 1.6211-18.406 2.6953h0.003906c-6.082 0.80469-12.039 2.3438-17.746 4.5859-0.51953 0.26953-0.79297 0.85156-0.67578 1.4219 0.12109 0.57422 0.60156 0.99609 1.1836 1.0391 6.1641 0.25 12.332-0.25391 18.375-1.4961 6.1133-0.97656 12.227-2.0078 18.25-3.4531l4.125-0.90234c7.0742-0.77344 14.176-1.1016 21.312-1.2695 4.5742-0.10547 9.1875-0.058594 13.754 0.25 1.9883-0.074218 3.957 0.42188 5.6758 1.4258 1.1523 0.84766 1.6719 1.9688 3.0508 2.5273l0.85156-0.30859c2.3828-2.8047-2.0508-5.8086-4.3438-6.5938z"/>
  <path d="m394.12 374.3c3.4219-0.85156 6.8711-1.5586 10.285-2.4727 3.5898-0.96484 7.1602-2.0039 10.762-2.9219 3.4688-0.33203 6.8281-1.3906 9.8633-3.1055 0.42969-0.39453 0.62109-0.98828 0.5-1.5586-0.125-0.57031-0.53906-1.0352-1.0938-1.2227-3.2734-0.32422-6.5781 0.17187-9.6133 1.4414-3.5977 0.92578-7.1992 1.8867-10.754 2.9727-3.1914 0.97656-6.3125 2.1055-9.4336 3.2852l0.003906 0.003906c-3.7422 1.2305-7.5938 2.1055-11.5 2.6172-7.082 1.2969-13.965 3.7305-20.992 5.3203-3.5938 0.8125-7.2148 1.5156-10.824 2.2656v-0.003907c-3.0742 0.20703-6.0586 1.0859-8.7539 2.5781l0.066407 0.84375h0.003906c2.1289 0.98438 4.5 1.3242 6.8203 0.97656 11.766 1.1641 23.75 0.11328 35.559 1.0859h-0.003906c6.5547 0.46875 13.066 1.3906 19.488 2.7695 3.0312 0.63281 6.0156 1.4648 8.9336 2.4883 2.8242 0.83594 5.5195 2.0586 8.0039 3.6367 0.99609 0.76562 2.0781-0.71484 1.3672-1.6094-1.5586-2.3398-3.6523-4.2734-6.1094-5.6367-2.7188-1.2891-5.543-2.3438-8.4414-3.1523-6.7461-1.9766-13.676-3.2578-20.68-3.8242-3.3281-0.26953-6.7266-0.47266-10.133-0.58594 1.9609-0.55469 3.8945-1.1719 5.7773-1.8828 3.543-1.6523 7.1836-3.0938 10.898-4.3086z"/>
  <path d="m419.33 399.56c-7.5547-1.4492-15.266-1.8828-22.93-1.2812-7.9922 0.17578-15.98 0.48047-23.965 0.875-7.6055 0.37891-15.203 0.95312-22.789 1.5938-3.9727 0.33203-7.9258 0.84375-11.875 1.3867-4.1758 0.57422-8.1641 1.7773-12.266 2.5508-0.83594 0.15625-0.77344 1.5352 0.11328 1.5156 0.45703-0.007813 0.91797-0.011719 1.375-0.011719l0.77734 0.34766c1.5781 0.10156 3.0469 0.75 4.625 0.87891 1.1523 0.09375 2.3477 0.042969 3.5039 0.066406 2.7266 0.050781 5.4492 0.13281 8.1758 0.25391 5.4453 0.23828 10.887 0.61719 16.312 1.1367l0.003906-0.003906c5.1172 0.30859 10.215 0.89453 15.273 1.75 3.9023 0.81641 7.4805 2.7695 10.277 5.6133 0.29688 0.27344 0.89453 0.16797 0.89062-0.3125-0.10938-8.8203-14.922-9.7617-21-10.461l-4.5469-0.48828 11.473-0.66797c7.7891-0.44922 15.582-0.79688 23.379-1.0508 7.7461 0.19531 15.492-0.46094 23.098-1.9648 0.80469-0.21094 1.0156-1.4922 0.09375-1.7266z"/>
  <path d="m422.3 255.8c-9.457 2.0078-15.805 10.574-25.18 12.938-5.2656 1.0078-10.645 1.2383-15.977 0.69531-5.793-0.21875-11.598-0.10156-17.379 0.34766-0.5 0.035156-0.39844 0.79688 0.0625 0.84375 6.2148 0.58203 12.059 2.875 18.195 3.8438v-0.003906c5.3672 0.91797 10.867 0.75 16.168-0.49609 4.7852-1.2891 9.1445-3.8047 12.656-7.2969 3.4805-3.6875 7.5664-6.7578 12.074-9.0781 0.41797-0.22266 0.60938-0.71484 0.45703-1.1641-0.15625-0.44531-0.61328-0.71484-1.0781-0.62891z"/>
  <path d="m442 275.12c-0.28516-1.707-0.34375-3.4453-0.17188-5.168 0.0625-2.9492-0.5-5.8789-1.6523-8.5938-1.5469-3.4844-6.8047-8.2422-10.891-6.1953l-0.023437 0.55078c2.1445 1.5352 4.3945 2.2539 5.832 4.668h0.003906c1.3711 2.3945 2.1719 5.0703 2.3438 7.8242 0.23047 2.7812-0.53125 5.4219-0.40625 8.1445 0.09375 2.0977 0.85156 4.0195 3.0469 4.4844h-0.003906c0.64844 0.19141 1.3477 0.082031 1.9023-0.30078 0.55469-0.38281 0.90625-0.99609 0.95703-1.668-0.09375-1.293-0.41016-2.5625-0.9375-3.7461z"/>
  <path d="m466.06 281.96c-0.37891-4.168-1.5586-8.2266-3.4805-11.945-1.3633-3.2188-4.2422-5.5469-7.6719-6.2109-1.3125-0.058594-5.8477 1.957-4.0352 3.9844 1.3828 1.5469 3.375 2.3398 4.6094 3.9922v0.003906c1.4336 2.2188 2.5352 4.6367 3.2656 7.1758 1.375 5.3984 3.1172 10.695 5.2109 15.855 0.30469 0.57031 0.94922 0.87109 1.582 0.73828 0.63281-0.13281 1.1016-0.66406 1.1562-1.3047 0.26172-4.1094 0.046875-8.2305-0.63672-12.289z"/>
  <path d="m380.3 319.54c-4.168-4.8008-6.3984-10.984-6.25-17.344 0.13281-3.25 1.1367-6.4336 1.4453-9.6719 0.48047-3.6875 0.30469-7.4336-0.51172-11.062-0.39453-1.668-1.8398-2.875-3.5508-2.9688s-3.2773 0.95312-3.8516 2.5703c-2.2695 7.8242-2.1484 16.152 0.34375 23.91 1.9414 6.3789 5.8047 12.008 11.066 16.109 0.91797 0.74219 2.0352-0.69922 1.3086-1.543z"/>
  <path d="m404.01 301.96c-0.23438-3.1523-1.0469-6.2344-2.4023-9.0938-2.1445-3.0703-3.6875-6.5195-4.5469-10.164-0.046875-0.53125-0.92188-0.45703-0.92578 0.070313-0.019531 3.0312-0.34766 6.0664-0.21484 9.1133h0.003906c0.28906 2.9609 0.73047 5.9102 1.3164 8.8281 0.40625 2.8203 0.71875 5.6797 0.99219 8.5156 0.17969 3.3281 0.035156 6.668-0.43359 9.9688-0.007812 0.30469 0.1875 0.57812 0.47656 0.67188 0.28906 0.089844 0.60547-0.015625 0.77734-0.26562 3.5312-5.1836 5.2695-11.379 4.957-17.645z"/>
  <path d="m473.45 263.64c-2.6328-0.79688-5.2227 2.6289-3.0664 4.7344 0.66016 0.78516 1.0586 1.7578 1.1367 2.7812 0.55078 1.8398 0.98047 3.7109 1.2891 5.6055 0.20703 1.8125 2.6836 1.5898 3.2461 0.17578 1.6562-4.1367 3.2305-11.535-2.6055-13.297z"/>
  <path d="m586.14 393.57c-6.6602-6.2539-14.219-11.477-22.426-15.496-8.0195-4.0938-16.355-7.5195-24.344-11.68h0.003906c-8.082-3.75-15.52-8.7422-22.055-14.797-3.1445-3.2148-5.8398-6.8398-8.0078-10.777-0.98047-1.6836-1.8047-3.4531-2.4648-5.2852 2.4023-7.1602 4.1758-14.512 5.2969-21.98 0.875-5.4023 1.3594-10.859 1.4414-16.332 0.31641-5.4609-0.11719-10.945-1.2891-16.289-3.1367-11.406-14.785-11.539-24.527-10.73-0.47266 0.039063-0.375 0.75781 0.058594 0.80078h0.003906c5.3516 0.14453 10.449 2.3125 14.273 6.0625 2.6289 3.5469 3.9062 7.9141 3.5977 12.32 0.52344 9.5273-0.0625 19.082-1.7383 28.473-1.8906 9.4453-4.3828 18.766-7.457 27.895-2.9375 9.7773-7.0156 19.176-12.148 28-0.20312 0.34375-0.097657 0.78906 0.23828 1.0039 0.33594 0.21875 0.78516 0.12891 1.0156-0.19922 6.3555-9.4023 12.125-19.188 17.266-29.309l0.0625-0.13281c0.98438 2.7852 2.3555 5.418 4.0742 7.8242 6.0547 7.8906 13.871 14.25 22.824 18.578 18.449 7.2773 36.512 15.496 54.117 24.621 1.5547 1.0469 3.5938-1.2188 2.1836-2.5703z"/>
  <path d="m452.27 458.11c-10.094-2.3672-20.16-4.5078-30.41-6.0938-3.7617-0.58203-7.6602-1.0938-11.496-1.8555h-0.003906c4.1133 0.03125 8.1719-0.89844 11.859-2.7148 8.8516-4.4219 16.508-10.914 22.309-18.93 2.8555-3.9492 4.9922-8.3711 6.3203-13.059 1.8594-4.2969 1.8828-9.168 0.058594-13.48-0.70703-1.0352-2.1406-0.35547-2.5273 0.53906-0.5625 1.7109-0.77734 3.5117-0.63672 5.3047-0.097656 2.1367-0.4375 4.2539-1.0039 6.3164-1.0352 3.6836-2.6641 7.1719-4.832 10.324-4.8242 6.4609-11.082 11.715-18.281 15.344-3.4805 2.2305-7.5156 3.4453-11.648 3.5039-4.0391-0.29688-7.9922-1.3281-11.664-3.043-3.1797-1.3633-5.6406-4.0039-6.7695-7.2773-1.332-4.207-1.0312-8.7617 0.84766-12.758 0.41016-0.73438-0.65625-1.4414-1.1094-0.71094-0.73828 1.1836-1.8672 2.082-2.6055 3.3164l-0.003906-0.003906c-0.61328 1.0273-1.1484 2.0977-1.5977 3.2031-0.92969 2.3086-1.375 4.7812-1.3164 7.2695 0.046875 2.2812 0.61328 4.5234 1.6562 6.5508-4.082-4.5078-8.4961-8.707-13.199-12.562-4.418-3.0312-9.3359-5.2578-14.531-6.5703l1.0625-0.078124c6.1797-0.39063 12.336-0.26953 18.496-0.91406 0.875-0.20312 1.5117-0.95703 1.5586-1.8555 0.050781-0.89453-0.5-1.7148-1.3477-2.0117-10.008-1.2969-20.16-0.90625-30.035 1.1523-10.625 1.4336-21.363 1.8438-32.066 1.2305-10.668-0.74609-21.301-2.3438-31.891-3.8047h0.003907c-10.289-0.95703-20.488-2.7266-30.496-5.293-10.047-3.1484-19.309-8.4062-27.156-15.418-0.64453-0.56641-1.9805 0.074219-1.3945 0.94531h-0.003906c2.7891 4.1484 6.1328 7.8984 9.9336 11.145-2.2422 0.41016-4.4414 1.0078-6.5859 1.7734-10.82 4.0352-21.211 9.1367-31.016 15.234-10.973 7.1797-22.598 13.297-34.727 18.273-1.2305 0.42969-0.46484 2.2656 0.71484 2.0742 11.379-1.9727 22.375-5.7305 32.582-11.133 10.051-5.6602 20.395-10.781 30.992-15.336 2.5273-0.98047 5.0859-1.8555 7.6797-2.625l2.4844-0.71484 1.3789 5.0195c1.3164 5.0117 2.8008 9.9961 4.332 14.949h0.007812c2.6445 9.7188 6.3516 19.113 11.062 28.016 8.9922 16.094 23.273 28.586 40.422 35.355 9.5625 3.4531 19.715 4.9727 29.867 4.4766 0.89063 0.011719 1.6328-0.68359 1.6836-1.5703 0.046875-0.89063-0.61719-1.6602-1.5039-1.7461-16.762-3.1016-32.348-10.738-45.07-22.086-6.2539-5.3477-11.645-11.629-15.98-18.625-4.6211-8.332-8.293-17.156-10.949-26.309-1.8438-6.2852-4.2383-12.395-7.1602-18.254 9.25 4.0703 19.047 6.7578 29.078 7.9844 10.914 2.0703 21.957 3.4102 33.047 4.0117 8.3789 0.20703 16.762-0.15234 25.094-1.0742 4-0.007812 7.9961 0.28516 11.957 0.87891 8.9609 0.97266 17.527 4.2188 24.887 9.4219 7.0195 5.3594 11.59 13.242 19.309 17.832 7.7695 4.1016 16.301 6.5586 25.062 7.207 11.543 1.4336 23.172 2.043 34.801 1.8281 1.4023-0.027344 2.0234-2.2109 0.47266-2.5742z"/>
  <path d="m330.36 247.12c-2.2148-1.4922-4.582-0.26953-6.9141 0.46484-2.5391 0.79688-5.0664 1.6211-7.6484 2.2695v-0.003906c-5.6133 1.5273-11.391 2.3672-17.207 2.4961-3.0508 0.16016-6.1094 0.11719-9.1523-0.13281-2.6758-0.33984-5.3711-0.50781-8.0664-0.50391-5.4414 0.070313-10.859 0.71875-16.164 1.9258-10.285 1.668-20.047 5.6797-28.527 11.727l-1.793 1.5039c-2.6836 0.33984-5.3711 0.57422-7.957 0.80859-6.5977 0.59766-13.215 0.63672-19.836 0.66406-6.4297 0.019531-12.848-0.37891-19.27-0.43359-3.1406-0.027344-6.2734 0.085937-9.4102 0.28906-3.207 0.3125-6.3984 0.79688-9.5586 1.4453-0.23047 0.050781-0.39844 0.25391-0.41016 0.49219-0.015624 0.23828 0.13281 0.45312 0.35547 0.53516 3.1289 1.3477 6.3438 2.4844 9.6211 3.4023 3.1367 0.77344 6.3164 1.3281 9.5273 1.6719 6.9297 0.72266 13.91 0.85547 20.859 0.39062 6.6758-0.41016 13.293-1.4414 19.773-3.0859l0.88672-0.25c-0.64844 0.92188-1.2344 1.8828-1.75 2.8867-0.90234 1.7617-1.7031 3.5938-2.4375 5.4297-0.90625 2.2852-1.1484 4.668-1.9023 6.9805-0.10547 0.33594 0.078125 0.69531 0.41406 0.80078 0.33594 0.10938 0.69531-0.074219 0.80078-0.41016 1.8789-4.2031 4.8555-7.8164 8.6211-10.461 3.2695-2.7227 6.7773-5.1406 10.48-7.2305 8.7891-4.6719 18.289-7.8516 28.117-9.4062 5.1328-1.0352 10.191-2.4102 15.141-4.125 2.7812-1.1055 5.7188-1.7617 8.7031-1.9414 2.5859 0.019532 5.168 0.18359 7.7383 0.48438 5.0742 0.53516 10.203 0.24609 15.188-0.85156 3.457-0.78516 11.316-1.8711 12.492-5.8359 0.22656-0.75-0.066407-1.5586-0.71484-1.9961z"/>
  <path d="m331.21 252.79c-0.41797 4.1758-2.9609 5.7773-5.9453 8.1992-2.3438 2.0898-4.9375 3.8789-7.7188 5.3359-3.1992 1.5156-6.6445 2.4102-9.9453 3.6602-3.8594 1.4648-7.7031 3.7109-11.672 4.8008-0.73828 0.20313-0.5 1.3711 0.23828 1.168 4.7422-0.61719 9.5156-0.94141 14.297-0.96094 4.332-0.60156 8.5078-2.0156 12.312-4.1758 3.4336-1.6484 6.2539-4.3477 8.0508-7.707 1.2305-3.2773 1.918-6.7305 2.043-10.23 0.023438-0.45703-0.32812-0.84766-0.78516-0.875-0.46094-0.023437-0.85156 0.32813-0.875 0.78516z"/>
  <path d="m532.78 502.27c-5.75-13.406-15.52-24.695-27.961-32.312-5.9648-3.9961-12.391-7.2617-19.133-9.7227-3.3281-1.1562-6.7539-2-10.238-2.5195-1.7812-0.32422-3.582-0.53516-5.3906-0.64062-1.8008-0.0625-3.793 0.77344-5.5156 0.53516-0.32812-0.007812-0.60937 0.22266-0.66797 0.54297s0.125 0.63281 0.42969 0.74219c1.6172 0.75781 3.1641 1.6562 4.6211 2.6836l4.5195 2.0352c2.3477 1.0977 4.6758 2.2383 7.0039 3.375l-1.4453 0.70703c-4.3555 2.1328-8.5898 4.5156-12.773 6.9727v0.003906c-7.9375 4.9766-16.172 9.4609-24.66 13.422-19.344 7.4727-39.957 11.094-60.688 10.656-0.67969 0.011719-0.75 1.043-0.058594 1.0625 20.629 2.5156 41.543 1.1719 61.676-3.9688 9.0781-3.4961 17.82-7.8086 26.121-12.879 4.2148-2.4023 8.4297-4.8203 12.758-7.0156 2.7305-1.3867 5.8242-2.5234 8.6289-4.0312 3.3164 1.8633 6.5625 3.8633 9.6797 6.0391 10.641 7.957 20.465 16.961 29.324 26.867 0.78125 0.8125 2.0312 0.94531 2.9648 0.3125 0.92969-0.63281 1.2695-1.8438 0.80469-2.8672z"/>
  <path d="m431.78 404.42c-1.5039 0.84375-2.8242 1.9883-3.875 3.3555-0.375 0.62109-0.83594 1.1875-1.3594 1.6875l-1.9609 1.5586h-0.003907c-0.32812 0.3125-0.41797 0.80469-0.21094 1.2109 0.20312 0.40625 0.65234 0.63281 1.1016 0.55078l2.4609-0.56641c0.71875-0.085938 1.4453-0.085938 2.1641 0 1.7422 0.007812 3.4727-0.32422 5.082-0.98828 4.5352-1.8281 0.90625-9.2305-3.3984-6.8086z"/>
 </g>
</svg>
