<?xml version="1.0" encoding="UTF-8"?>
<svg width="752pt" height="752pt" version="1.1" viewBox="0 0 752 752" xmlns="http://www.w3.org/2000/svg">
 <g>
  <path d="m335.04 188.46c0.85938-0.96484 2.1641-1.3945 3.4258-1.1289 1.2617 0.26172 2.2852 1.1797 2.6836 2.4062 0 0.28516 9.4727 28.129 32.867 37.035 0.49219-2.8789 0.74609-5.793 0.75781-8.7148 0-19.273-10.281-37.078-26.969-46.715-16.691-9.6367-37.254-9.6367-53.941 0-16.691 9.6367-26.973 27.441-26.973 46.715v3.4102c11.887-2.1328 48.688-10.469 68.148-33.008z"/>
  <path d="m336.46 197.32c-22.02 21.641-57.254 29.266-68.527 31.207 3.1055 15.855 13.156 29.48 27.383 37.137 14.227 7.6523 31.137 8.5234 46.074 2.3789 14.941-6.1484 26.34-18.668 31.062-34.117-20.883-7.4805-31.777-26.992-35.992-36.605z"/>
  <path d="m301.22 319.17-9.1406-12.172c-0.70703-0.94922-0.90234-2.1914-0.51953-3.3125l2.5586-7.2461c-55.836 14.633-71.039 75.773-75.488 107.55l-0.003906-0.003907c21.168-6.2461 42.875-10.492 64.836-12.691z"/>
  <path d="m340.48 319.17 17.098 69.426h-0.003906c19.43 0.58594 38.805 2.3555 58.016 5.3047-9.5117-8.3594-16.652-19.078-20.703-31.074-4.0469-11.996-4.8633-24.852-2.3594-37.262-11.484-14.234-27.242-24.395-44.945-28.984l2.5117 7.2461c0.42188 1.1133 0.24219 2.3633-0.47656 3.3164z"/>
  <path d="m334.85 315 8.0039-10.609-3.4102-9.4727v0.003906c-12.297-1.9922-24.832-1.9922-37.129 0l-3.3633 9.4727 7.9102 10.609z"/>
  <path d="m307.85 322.11-17.094 68.574c15.484-1.4219 31.824-2.2266 48.828-2.2266h10.418l-16.34-66.301z"/>
  <path d="m180.27 472.95c12.977 9.4727 33.578 17.477 59.527 23.68l0.003906-0.003906c32.848 7.0508 66.375 10.434 99.973 10.09h2.3672c11.461-40.066 36.844-87.469 93.199-99.168l1.7539-0.37891c-2.4531-0.94922-4.8555-2.0234-7.1992-3.2227-29.656-5.6602-59.789-8.4531-89.98-8.332-94.434 0-174.18 25.48-174.18 55.598-0.14062 7.3398 4.7852 14.773 14.539 21.738z"/>
  <path d="m339.77 513.81c-34.145 0.25391-68.215-3.2734-101.59-10.512-26.852-6.1562-48.305-14.68-62.086-24.578-3.8633-2.7344-7.3945-5.9141-10.512-9.4727v28.414c0.54688 0.64844 0.85156 1.4727 0.85156 2.3203 0 29.363 75.773 54.273 166.84 55.551 1.1758-14.023 3.4883-27.93 6.9141-41.578z"/>
  <path d="m460.3 404.8h5.6836c22.84-0.99219 43.477-13.926 54.328-34.047 10.852-20.121 10.324-44.465-1.3906-64.098-11.715-19.629-32.895-31.652-55.754-31.652-22.859 0-44.039 12.023-55.754 31.652-11.715 19.633-12.246 43.977-1.3906 64.098 10.852 20.121 31.488 33.055 54.328 34.047z"/>
  <path d="m489.66 414.46-2.2266-0.57031c-16.129-2.9102-32.648-2.9102-48.777 0l-1.8008 0.37891c-88.652 18.566-96.324 132.23-96.988 150.17 79.223 31.117 167.28 31.117 246.5 0-0.66406-17.945-8.3828-131.61-96.707-149.98z"/>
 </g>
</svg>
