<?xml version="1.0" encoding="UTF-8"?>
<svg width="752pt" height="752pt" version="1.1" viewBox="0 0 752 752" xmlns="http://www.w3.org/2000/svg">
 <g>
  <path d="m287.62 408.09c-1.3398 0.015624-2.5195-0.875-2.8828-2.1641-0.35938-1.2891 0.19141-2.6562 1.3438-3.3398 9.6484-5.918 35.52-16.93 47.359-16.988 9.9453 0 16.988 6.5703 23.145 12.371l0.76953 0.71094c1.0625 1.1328 1.0625 2.8984 0.003906 4.0391-1.0625 1.1367-2.8203 1.2617-4.0312 0.28125l-1.0039-0.65234c-5.918-5.5664-11.484-10.773-19.121-10.773-10.121 0-35.047 10.656-44.219 16.102h-0.003906c-0.41406 0.24609-0.87891 0.39062-1.3594 0.41406z"/>
  <path d="m328.17 440.23c-10.461-0.007813-20.465-4.2852-27.703-11.84-1.1602-1.2422-1.0938-3.1914 0.14844-4.3516 1.2422-1.1602 3.1914-1.0938 4.3516 0.14844 6.5469 7.0039 15.891 10.695 25.453 10.062 6.5391-0.41016 12.484-3.9336 15.984-9.4688 0.86719-1.3906 2.6953-1.8164 4.0859-0.94922 1.3867 0.86719 1.8125 2.6953 0.94531 4.0859-4.5352 7.1797-12.242 11.738-20.719 12.254z"/>
  <path d="m469.54 408.09c-0.54297 0.007812-1.0781-0.13281-1.5391-0.41406-9.1172-5.5039-34.098-16.102-44.219-16.102-7.6367 0-13.199 5.2109-19.121 10.773l-0.76953 0.71094h-0.003907c-1.1914 1.1602-3.1016 1.1328-4.2617-0.058594-1.1602-1.1953-1.1328-3.1016 0.058594-4.2617l0.76953-0.71094c5.8828-6.9531 14.211-11.383 23.266-12.371 11.84 0 37.59 11.188 47.359 16.988 1.0898 0.70312 1.5938 2.0391 1.2422 3.293-0.35547 1.25-1.4844 2.125-2.7812 2.1523z"/>
  <path d="m428.98 440.23h-2.6641c-8.4883-0.52734-16.199-5.1133-20.719-12.312-0.86719-1.3906-0.44531-3.2188 0.94531-4.0859 1.3906-0.86719 3.2188-0.44141 4.0859 0.94922 3.5469 5.6016 9.5938 9.1328 16.219 9.4688 9.5664 0.63281 18.91-3.0586 25.457-10.062 0.50391-0.62891 1.2461-1.0234 2.0508-1.0898 0.80469-0.070312 1.6016 0.19141 2.207 0.72656 0.60547 0.53125 0.96875 1.2891 1.0039 2.0977 0.03125 0.80469-0.26562 1.5898-0.82422 2.1719-7.1992 7.6797-17.238 12.066-27.762 12.137z"/>
  <path d="m376.41 545.37c-74.887 0-139-103.48-139-188.19 0-82.875 62.336-150.48 139-150.48 76.664-0.003907 139 67.48 139 150.42 0 84.77-64.109 188.25-139 188.25zm0-332.81c-73.406 0-133.08 65.117-133.08 144.56 0 82.047 61.445 182.27 133.08 182.27 71.629-0.003906 133.08-100.17 133.08-182.27 0-79.68-59.672-144.56-133.08-144.56z"/>
  <path d="m462.61 276.79c-1.1875-0.015625-2.2461-0.73828-2.6953-1.832-0.45312-1.0938-0.20703-2.3516 0.62109-3.1992 4.9883-4.9805 9.5039-10.41 13.496-16.219 0.93359-1.3594 2.7891-1.7031 4.1445-0.76953 1.3594 0.92969 1.7031 2.7852 0.76953 4.1445-4.1875 6.0781-8.9258 11.766-14.148 16.988-0.57422 0.58594-1.3672 0.91016-2.1875 0.88672z"/>
  <path d="m257.61 440.76c-1.5469 0.007812-2.8359-1.1797-2.9609-2.7227-5.1484-57.242 47.359-116.56 94.184-124.96 7.2812-1.3008 14.68-2.1328 21.844-2.9609 8.6445-1.0078 17.758-2.0117 26.105-3.8477h0.003906c12.895-2.7539 25.289-7.4688 36.762-13.969 1.4062-0.69531 3.1172-0.16797 3.8867 1.2031 0.76953 1.3672 0.33594 3.1016-0.98828 3.9453-11.992 6.7812-24.945 11.691-38.418 14.562-8.8203 1.8945-17.758 2.9023-26.641 3.9062-7.1055 0.82813-14.387 1.6562-21.43 2.9023-43.391 7.8125-94.125 65.117-89.328 118.39 0.13672 1.6172-1.0508 3.043-2.6641 3.1992z"/>
  <path d="m495.4 440.76c-0.78516-0.027344-1.5234-0.37109-2.0586-0.94922-0.53125-0.57812-0.8125-1.3438-0.78125-2.1289 2.3086-61.152-46.176-110.76-92.941-118.75-5.918-0.94531-13.082-1.6562-19.711-2.3086l-7.8125-0.76953h-0.003906c-1.6328-0.17969-2.8125-1.6484-2.6328-3.2852 0.17969-1.6328 1.6484-2.8125 3.2852-2.6328l7.6367 0.94531c6.6875 0.65234 14.266 1.3633 20.129 2.3672 49.016 8.4062 100.64 58.488 97.855 124.79h-0.003907c-0.125 1.543-1.4141 2.7305-2.9609 2.7227z"/>
  <path d="m463.61 314.38c-3.2461-0.007812-6.418-0.97266-9.1172-2.7812l-28.355-18.883c-3.6406-2.4336-6.168-6.2148-7.0234-10.512-0.85547-4.2969 0.03125-8.7578 2.4648-12.398l3.2578-4.8555c2.4414-3.6289 6.2227-6.1445 10.516-7 4.293-0.85156 8.7461 0.023438 12.395 2.4414l28.355 18.883v0.003907c3.6406 2.4336 6.168 6.2148 7.0234 10.508 0.85547 4.2969-0.03125 8.7578-2.4648 12.402l-3.2578 4.8555v-0.003906c-3.0742 4.6055-8.2539 7.3633-13.793 7.3398zm-24.98-50.848c-3.5469 0-6.8594 1.7773-8.8203 4.7344l-3.2578 4.8555c-3.2773 4.8086-2.0625 11.367 2.7227 14.68l28.355 18.883h0.003907c4.8789 3.1992 11.422 1.8789 14.68-2.957l3.4336-4.6797c3.2305-4.8711 1.9062-11.441-2.9609-14.68l-28.297-19.062c-1.7344-1.1562-3.7734-1.7773-5.8594-1.7734z"/>
  <path d="m376 504.58h-0.88672c-15.441 0.027344-29.934-7.4336-38.895-20.008-0.46484-0.66016-0.64062-1.4844-0.48438-2.2812 0.15625-0.79297 0.63281-1.4883 1.3164-1.9219 2.1328-1.3633 20.957-13.617 26.105-15.805 4.8281-1.1367 9.8984 0.37109 13.32 3.9648 3.457-3.4883 8.4922-4.9023 13.258-3.7305 5.0898 2.1914 23.68 14.387 26.105 15.805v0.003907c0.69141 0.44141 1.168 1.1523 1.3125 1.9609 0.14844 0.80859-0.050782 1.6406-0.54297 2.3008-9.7031 12.562-24.734 19.855-40.609 19.711zm-33.031-20.957c7.9961 9.543 19.812 15.051 32.262 15.039 13.199 0.28516 25.859-5.2344 34.633-15.098-6.8672-4.4414-19.062-11.84-22.438-13.496-3.4492 0.20703-6.6562 1.8633-8.8203 4.5586-1.2188 1.1875-3.1602 1.1875-4.3789 0-2.1328-2.7383-5.3555-4.4062-8.8203-4.5586-3.375 1.4219-15.629 9.1172-22.496 13.555z"/>
  <path d="m406.79 487.53h-60.738c-1.6328 0-2.9609-1.3281-2.9609-2.9609 0-1.6367 1.3281-2.9609 2.9609-2.9609h60.738c1.6328 0 2.957 1.3242 2.957 2.9609 0 1.6328-1.3242 2.9609-2.957 2.9609z"/>
  <path d="m471.37 513.1c-1.207 0.007813-2.3008-0.72266-2.7578-1.8438-0.45703-1.1211-0.18359-2.4062 0.6875-3.2461 16.039-16 29.5-34.395 39.898-54.52 0.33594-0.75 0.96875-1.3242 1.7461-1.5898 0.77344-0.26562 1.625-0.19531 2.3477 0.19141 0.72656 0.38672 1.2578 1.0547 1.4688 1.8477 0.21094 0.79297 0.082032 1.6367-0.35156 2.332-10.688 20.633-24.508 39.48-40.965 55.883-0.53906 0.57812-1.2852 0.92188-2.0742 0.94531z"/>
  <path d="m488.83 525.54c-1.1953 0.007813-2.2773-0.70703-2.7422-1.8047-0.46484-1.1016-0.22656-2.375 0.60938-3.2266 18.766-19.914 34.199-42.723 45.703-67.547 0.30078-0.76172 0.90625-1.3672 1.668-1.6719 0.76563-0.30078 1.6211-0.26953 2.3633 0.085938 0.74219 0.35156 1.3008 1 1.5469 1.7852 0.24609 0.78125 0.15625 1.6328-0.25 2.3477-11.781 25.352-27.574 48.641-46.766 68.965-0.53125 0.63672-1.3047 1.0234-2.1328 1.0664z"/>
  <path d="m514.82 470.72c-1.6133 0-2.9297-1.2891-2.9609-2.9023v-12.492l-10.184 6.5117 0.003907 0.003906c-1.3672 0.77734-3.1055 0.35156-3.957-0.97266-0.85156-1.3242-0.51953-3.082 0.75781-4l14.621-9.3516v-0.003906c0.90234-0.57812 2.0469-0.625 2.9922-0.12109s1.543 1.4766 1.5664 2.5469l0.35547 17.758v0.003907c0.015625 0.78516-0.28125 1.543-0.82422 2.1094-0.54297 0.56641-1.2891 0.89453-2.0742 0.91016z"/>
  <path d="m538.09 470.42c-1.6133 0-2.9297-1.2891-2.9609-2.9023v-12.492l-10.184 6.5117v0.003907c-0.65625 0.47266-1.4844 0.65625-2.2812 0.50391-0.79688-0.14844-1.5-0.62109-1.9375-1.3047-0.4375-0.68359-0.57812-1.5195-0.38672-2.3086 0.19531-0.78906 0.70312-1.4609 1.4102-1.8633l14.09-9.5312c0.89844-0.57812 2.043-0.625 2.9883-0.12109 0.94531 0.50391 1.5469 1.4766 1.5703 2.5469l0.35547 17.758v0.003906c0.015625 0.78516-0.28125 1.543-0.82812 2.1094-0.54297 0.56641-1.2891 0.89062-2.0742 0.90625z"/>
  <path d="m280.63 513.1c-0.78906-0.023437-1.5352-0.36719-2.0703-0.94531-16.492-16.434-30.328-35.324-41.023-56-0.4375-0.69531-0.5625-1.543-0.35156-2.332 0.21094-0.79297 0.74219-1.4648 1.4648-1.8516 0.72266-0.38672 1.5742-0.45312 2.3516-0.1875s1.4062 0.83984 1.7422 1.5859c10.402 20.129 23.859 38.523 39.902 54.523 0.95312 0.81641 1.2891 2.1445 0.83594 3.3164-0.45312 1.1719-1.5938 1.9297-2.8516 1.8906z"/>
  <path d="m263.17 525.54c-0.80078 0.003906-1.5703-0.31641-2.1328-0.88672-19.191-20.328-34.984-43.613-46.766-68.969-0.40625-0.71094-0.49609-1.5625-0.25-2.3477 0.24609-0.78516 0.80469-1.4297 1.5469-1.7852 0.74219-0.35547 1.5977-0.38281 2.3594-0.082031 0.76562 0.30078 1.3711 0.90625 1.6719 1.6719 11.52 24.762 26.953 47.508 45.699 67.367 0.83594 0.85156 1.0781 2.125 0.61328 3.2266-0.46484 1.0977-1.5469 1.8125-2.7422 1.8047z"/>
  <path d="m237.18 470.72c-0.78516-0.015625-1.5312-0.34375-2.0781-0.91016-0.54297-0.56641-0.83984-1.3242-0.82422-2.1094l0.35547-17.758v-0.003906c0.023437-1.0703 0.625-2.043 1.5703-2.5469 0.94531-0.50391 2.0859-0.45703 2.9883 0.12109l14.621 9.3516v0.003907c1.2773 0.91797 1.6133 2.6758 0.76172 4-0.85156 1.3242-2.5898 1.75-3.957 0.97266l-10.184-6.5117v12.492-0.003906c-0.011719 0.82812-0.37109 1.6133-0.98828 2.168-0.62109 0.55078-1.4414 0.81641-2.2656 0.73438z"/>
  <path d="m213.92 470.42c-0.78516-0.015625-1.5312-0.34375-2.0742-0.91016-0.54688-0.56641-0.84375-1.3242-0.82422-2.1094l0.35547-17.758h-0.003906c-0.11719-1.1875 0.48828-2.3281 1.5352-2.8945 1.0469-0.57031 2.332-0.45703 3.2617 0.28906l14.621 9.3516c0.70703 0.40234 1.2148 1.0781 1.4102 1.8672 0.19141 0.78906 0.054687 1.6211-0.38672 2.3047-0.4375 0.68359-1.1406 1.1562-1.9375 1.3086s-1.6211-0.03125-2.2812-0.50781l-10.184-6.5117v12.492c0.050782 0.90625-0.31641 1.7852-0.99609 2.3867-0.68359 0.60156-1.6016 0.85547-2.4961 0.69141z"/>
 </g>
</svg>
