<?xml version="1.0" encoding="UTF-8"?>
<svg width="752pt" height="752pt" version="1.1" viewBox="0 0 752 752" xmlns="http://www.w3.org/2000/svg">
 <path d="m588.16 480.66c-0.47266-0.47266-0.47266-0.47266-0.47266-0.94531-4.2617-24.625-10.418-49.254-18.941-72.457-3.3164-11.84-8.9961-23.207-16.102-33.152l-0.47266-0.47266c-0.94531-0.94531-3.7891-4.7344-7.5781-9.4727-13.734-17.996-43.098-56.355-74.824-82.402-0.47266 0-0.47266-0.47266-0.94531-0.47266-109.87-51.148-187.07-101.35-188.48-100.87-2.3672 0.94531 83.824 53.516 107.98 66.301 56.355 29.836 71.984 38.359 77.195 40.727 31.258 26.047 59.672 63.461 73.406 81.457 4.2617 5.6836 6.6289 8.5234 8.0508 9.9453 6.6289 9.4727 11.367 19.891 14.68 31.258 7.5781 20.836 13.262 42.621 17.523 64.406-1.8945-0.47266-3.7891 0-5.6836 0.94531-0.94531 0.47266-1.8945 0.94531-2.8398 1.8945-6.6289 5.6836-8.5234 15.629-6.1562 29.836-9.9453-13.262-18.469-28.887-22.73-43.098-2.8398-17.996-5.6836-34.57-8.0508-44.988-2.3672-9.9453-7.1055-19.418-13.734-27.469-4.2617-4.7344-9.4727-10.891-14.68-17.523-14.68-17.051-46.41-55.41-47.832-54.461-1.4219 0.94531 27.941 41.203 42.621 58.723 5.6836 6.1562 10.418 12.312 14.68 17.051 6.1562 7.1055 10.418 15.629 12.312 24.625 4.2617 18.469 10.418 52.566 11.84 78.613l-0.47266-0.47266c-2.3672-1.4219-4.7344-2.3672-7.5781-1.8945-0.94531 0-2.3672 0.47266-3.3164 0.94531-8.5234 3.7891-13.262 13.734-14.68 29.836-0.47266 2.8398 0 6.1562 0 8.9961-9.9453-8.5234-16.574-27.941-20.363-44.516-5.2109-30.309-13.262-66.773-16.574-79.562v-0.47266c-8.0508-21.785-21.785-36.938-36.465-53.516-8.9961-9.9453-29.836-35.52-31.258-34.098-1.4219 0.94531 17.051 28.414 26.047 38.832 13.734 16.102 26.992 30.781 35.047 51.148 3.7891 15.156 13.734 62.039 18.469 93.297-1.8945-0.94531-4.2617-1.4219-6.6289-1.4219-0.94531 0-2.3672 0.47266-3.3164 0.94531-8.5234 3.7891-13.262 14.207-14.207 29.836v3.3164c-14.68-18.469-22.258-55.41-27.469-81.93-2.3672-11.367-4.2617-21.312-6.1562-27.469v-0.47266c-22.73-43.098-83.824-98.977-84.77-98.031-0.47266 0.94531 11.84 18.941 18.941 27.941 13.734 17.051 29.836 36.465 34.098 51.621 4.7344 16.102 4.7344 40.254 4.7344 58.25-1.4219-0.94531-3.3164-0.94531-5.2109-0.47266-0.94531 0-1.8945 0.47266-2.8398 0.94531-7.1055 3.3164-10.891 11.84-11.367 24.625v2.8398c-10.891-17.523-13.262-45.465-14.207-60.145-0.94531-8.9961-0.94531-11.84-2.3672-13.262-1.8945-2.3672-4.7344-6.1562-7.5781-10.418-14.68-20.363-39.781-54.461-67.25-66.773h-0.47266c-8.5234-2.8398-15.629-4.7344-21.785-6.1562-12.785-3.3164-22.73-5.6836-39.781-16.102-56.355-33.152-77.668-80.508-79.09-80.035-1.8945 0.94531 26.52 56.828 75.773 85.719 17.996 10.418 28.887 13.734 41.676 16.574 6.1562 1.4219 12.785 3.3164 20.836 6.1562 26.047 11.84 50.199 44.988 64.406 64.406 2.8398 4.2617 5.6836 7.5781 7.5781 9.9453 0.47266 1.4219 0.94531 5.6836 0.94531 9.9453 1.4219 19.891 4.2617 57.305 24.152 73.879 0.94531 2.3672 2.3672 4.7344 4.2617 7.1055 0.94531 0.94531 1.4219 1.8945 2.8398 2.8398 3.3164 2.3672 7.5781 2.3672 10.891 0 0.47266-0.47266 0.94531-0.94531 1.4219-1.4219 6.1562-6.1562 6.1562-16.574 5.6836-22.258-0.47266-3.7891-0.47266-7.5781-1.4219-11.367v-15.156c0-18.469 0-44.043-4.7344-61.566-1.4219-4.7344-3.7891-9.9453-6.6289-15.156 10.418 13.262 19.891 26.992 25.574 38.359 1.8945 5.6836 3.7891 15.156 6.1562 26.047 6.6289 32.203 15.156 75.301 35.52 91.875 1.4219 5.2109 3.7891 10.418 7.1055 15.156 0.94531 1.4219 1.8945 2.3672 3.3164 3.3164 3.7891 2.3672 8.5234 2.8398 12.312 0 0.94531-0.47266 1.4219-0.94531 1.8945-1.4219l0.47266-0.47266c5.6836-7.5781 8.0508-17.051 6.6289-26.992 0-3.7891-0.47266-8.0508-0.94531-11.84 0.47266-0.94531 0.94531-2.3672 0.94531-3.3164 4.2617 8.0508 8.9961 14.207 14.207 17.523 1.4219 0.94531 2.8398 1.4219 3.7891 2.3672 1.4219 3.7891 3.3164 7.5781 5.6836 11.367 0.94531 1.4219 1.8945 2.3672 3.3164 3.3164 3.7891 2.3672 8.5234 2.8398 12.312 0 0.94531-0.47266 1.4219-0.94531 1.8945-1.4219 0 0 0.47266-0.47266 0.47266-0.47266 3.7891-4.7344 4.7344-17.996 5.2109-30.309 0.47266-0.47266 0.94531-0.94531 0.94531-1.8945 1.8945-8.9961 1.4219-22.73 0-38.359 7.5781 13.734 17.051 27.469 26.992 36.938 2.8398 4.2617 6.1562 7.5781 9.9453 10.891 0.47266 0.47266 0.94531 0.47266 0.94531 0.94531 1.8945 1.4219 4.2617 1.8945 7.1055 1.8945 2.8398 0 5.6836-1.4219 8.0508-3.7891 0.47266-0.47266 0.94531-1.4219 1.4219-1.8945 4.2578-8.9883-9-45.453-11.844-51.609zm-187.54 35.043c-0.47656 0.47266-0.47656 0.47266 0 0-1.8945 0.94531-3.3164 0.94531-4.2617-0.47266-4.2617-5.6836-6.1562-12.785-5.6836-19.891s1.8945-16.102 7.5781-18.941h0.47266s0.47266 0 0.47266-0.47266c0.47266 0 0.94531 0 1.4219 0.47266 0.47266 0.47266 0.94531 0.94531 0.94531 1.4219v0.47266l0.47266 0.94531c1.4219 6.1562 2.3672 12.785 2.8398 19.418-0.46875 4.7344 0.003906 13.258-4.2578 17.047zm84.297 47.832s-0.47266 0.47266-0.47266 0.47266c-1.8945 1.4219-4.7344 0.94531-6.1562-1.4219-5.2109-7.1055-8.0508-16.102-7.1055-25.102 0.94531-12.785 4.2617-21.312 10.418-24.152h0.47266c0.47266 0 0.94531-0.47266 0.94531-0.47266 0.94531 0 1.8945 0 2.3672 0.47266 0.94531 0.47266 0.94531 1.4219 1.4219 2.3672v0.47266l0.47266 0.94531c1.8945 8.0508 2.8398 16.574 3.3164 24.625v0.47266c0.47656 7.5859-1.418 15.164-5.6797 21.32zm48.305-9.4727-0.47266 0.47266c-0.94531 0.47266-2.3672 0.94531-3.3164 0.47266-0.94531-0.47266-1.8945-0.94531-2.8398-1.8945-5.2109-7.1055-7.5781-16.102-7.1055-25.102 0.94531-12.785 4.7344-21.312 10.418-24.152h0.47266c0.47266 0 0.94531-0.47266 0.94531-0.47266 0.94531 0 1.4219 0 2.3672 0.47266 0.94531 0.47266 0.94531 1.4219 1.4219 2.3672v0.47266l0.47266 0.94531c1.8984 9.0078 1.4258 40.738-2.3633 46.418zm59.672-24.625c0 0.47266-0.47266 0.47266-0.47266 0.94531-0.94531 0.94531-1.8945 1.4219-2.8398 1.4219-0.94531 0-2.3672-0.47266-3.3164-0.94531-7.1055-5.6836-11.84-13.262-13.734-22.258-2.8398-12.785-1.4219-21.785 3.3164-26.047 0.47266-0.47266 0.47266-0.47266 0.94531-0.47266 0.94531-0.47266 1.8945-0.47266 2.3672 0 0.47266 0 0.47266 0 0.94531 0.47266 0.47266 0.47266 0.94531 0.94531 0.94531 1.4219 0 0 0 0.47266 0.47266 0.47266l0.94531 0.94531c4.2695 8.0508 13.266 38.832 10.426 44.043z"/>
</svg>
