<?xml version="1.0" encoding="UTF-8"?>
<svg width="752pt" height="752pt" version="1.1" viewBox="0 0 752 752" xmlns="http://www.w3.org/2000/svg">
 <g>
  <path d="m328.53 489.7c-29.402-10.785-57.84-20.832-87.5-31.535-5.0859-1.707-24.664-8.6797-45.152-16.023-2.5625-0.91797-5.1367-1.8438-7.6992-2.7617-1.2812-0.46094-2.5586-0.91797-3.832-1.375-0.63281-0.22656-1.2695-0.45703-1.8984-0.68359-0.58594-0.21875-1.1836-0.40625-1.7539-0.65625-2.3125-0.92969-4.4766-2.1562-6.3945-3.5508-0.94141-0.71484-1.8555-1.4453-2.6445-2.2461-0.79688-0.78906-1.5195-1.6172-2.082-2.4766-0.57031-0.85156-1.0391-1.7266-1.2812-2.5742-0.078124-0.19141-0.13672-0.46484-0.20312-0.71875-0.066407-0.25391-0.12891-0.50391-0.17969-0.75781-0.11328-0.5-0.19922-1-0.28516-1.4961-0.30469-1.9766-0.35547-3.875-0.27344-5.6719 0.078125-1.7969 0.25781-3.4883 0.41406-5.0352 0.039062-0.40234 0.074219-0.79297 0.10938-1.1719 0.035156-0.39062 0.050781-0.74609 0.078125-1.1055 0.042969-0.66797 0.082031-1.2891 0.11719-1.8594 0.035156-0.52734 0.085938-1.0312 0.15234-1.5156 0.16797-1.082 0.46094-2.0547 0.96484-2.9805 0.5-0.92578 1.2148-1.8008 2.0703-2.6328 0.83984-0.84375 1.875-1.5898 2.9102-2.3125 1.1016-0.72266 2.2188-1.4609 3.3633-2.1602 4.5586-2.8242 9.0625-5.4688 12.727-7.6836 3.3555-2.0508 6.7656-4.1406 10.164-6.2188-1.6602 0.81641-3.2031 1.5742-4.5391 2.2344 3.5391-1.9766 7.0898-3.9336 8.4023-4.7734 7.4414-4.3789 3.0312-2.2539-0.054688-0.96875-2.168 1.0195 0.53906-0.76562-2.8164 0.90625 2.3633-1.3008 3.5469-1.9492 5.9219-3.2578 0.19531-0.28906-7.2461 4.1016-5.7266 2.9727 2.3008-1.2109 4.8047-2.7031 7.1758-4-0.92188 0.26172-8.2305 4.4609-7.9648 4.082 1.25-0.75391 6.7773-3.4375 7.1094-3.9102 0.066407-0.09375-2.3047 1.207-3.4922 1.8555 7.2461-4.0938 11.156-6.5 4.3594-3.0938 2.2109-1.2109 5.332-2.8086 7.7344-4.1406 0.082031 0.21094 0.17578 0.41797 0.28906 0.60938 0.32812 0.46875 0.72266 0.89453 1.2148 1.1641l0.35547 0.21484 0.38672 0.15625c0.12891 0.046875 0.25781 0.10156 0.39062 0.13672l0.40625 0.085937c0.26953 0.058594 0.53516 0.125 0.8125 0.12891l0.33203 0.023437c0.10156 0.007813 0.19531 0.007813 0.28516 0.007813 0.18359-0.003907 0.36328-0.003907 0.53906-0.007813 0.16797-0.011719 0.33594-0.023437 0.5-0.035156 0.65625-0.050781 1.2305-0.15234 1.7695-0.24609 1.0703-0.20703 1.957-0.44531 2.707-0.65625 0.36328-0.10547 0.71875-0.21875 1.0703-0.33594 1.6211-0.50781 3.2734-1.1211 4.9219-1.7734 0.82422-0.32812 1.6445-0.66406 2.4609-1.0039 0.67188-0.28125 1.3398-0.5625 2.0039-0.84375 0.10156-0.078125 0.23828-0.035156 0.3125 0.058594 0.019532 0.023437 0.039063 0.046874 0.058594 0.070312l0.019531 0.027344 0.058594 0.097656 0.11328 0.20703c0.15234 0.28906 0.30078 0.60547 0.44141 0.92969 0.55859 1.3125 1.0234 2.7031 1.4531 3.957 0.84766 2.332 1.6484 4.7773 2.8516 7.2109-0.42188-1.1953-0.69141-2.2812-0.90625-3.2266 0.39844 1.25 0.83984 2.5039 1.3477 3.5625 0.50391 1.0664 1.0781 1.9062 1.6328 2.3789 0.72656 0.70312 1.5352 0.95703 2.1562 0.92578 0.15625 0 0.30469-0.019531 0.4375-0.03125 0.10547-0.011718 0.20312-0.023437 0.29688-0.035156 0.17578-0.015625 0.33594-0.0625 0.45703-0.089844 0.5-0.12109 0.55469-0.21875 0.33984-0.24609-0.21484-0.046875-0.65625-0.046875-1.2188-0.125-0.30469-0.023438-0.625-0.082031-0.91406-0.23047-0.28906-0.14844-0.53516-0.36328-0.73047-0.58984-0.29297-0.3125-0.34766-0.48047-0.35156-0.55469 0-0.078125 0.066406-0.078125 0.11328-0.10156 0.10938-0.058594 0.074219-0.14062-0.4375-1.168 0.40625 0.72656 0.77734 1.2148 1.2305 1.5391 0.23047 0.16016 0.50391 0.27734 0.8125 0.28906 0.16016 0.003907 0.30469-0.007812 0.49219-0.011718 0.1875 0 0.37891-0.019532 0.58203-0.046875 0.039062-0.050781-0.24219-0.003907-0.69531-0.003907-0.19922 0.003907-0.4375 0.035157-0.68359-0.039062-0.24219-0.066406-0.47266-0.20312-0.67188-0.37109-0.38281-0.32031-0.69922-0.80078-0.85156-1.082-0.15625-0.28906-0.17969-0.40625 0.015625-0.19141 0.18359 0.33984 0.41016 0.68359 0.66406 0.95703 0.23828 0.25781 0.53516 0.48828 0.88672 0.57812 0.17578 0.042969 0.35938 0.039063 0.53516 0.023437 0.16797-0.015624 0.41406-0.007812 0.60547-0.046874 0.40625-0.050782 0.80469-0.11719 1.1367-0.25781-0.13672-0.003906-0.49219 0.10156-1.0273 0.13281-0.24219 0.035156-0.60938 0.023437-0.82812 0.027343-0.25391 0.011719-0.51562-0.074219-0.72656-0.21484-0.21875-0.14453-0.38281-0.3125-0.54297-0.51563-0.16797-0.21094-0.30469-0.42578-0.41016-0.61328-0.21094-0.37891-0.30078-0.63672-0.23047-0.60547 0.10938 0.1875 0.28516 0.53125 0.52344 0.89844 0.26172 0.38281 0.48438 0.6875 0.86328 0.88281 0.18359 0.09375 0.38672 0.13281 0.57812 0.12109 0.16406-0.003906 0.44141 0.003906 0.61719-0.027344 0.19141-0.027343 0.35156-0.054687 0.47266-0.085937 0.11328-0.042969 0.1875-0.085937 0.21484-0.125 0.011719-0.015625-0.070312-0.007813-0.20312 0.015625-0.14453 0.015625-0.34766 0.035156-0.57812 0.058594-0.12109 0.003906-0.24609 0.007812-0.375 0.007812-0.09375 0-0.1875 0.007813-0.28125 0.003906-0.1875-0.007812-0.36328-0.070312-0.48828-0.14062 0.19922 0.10156 0.41406 0.14062 0.62109 0.11719 0.12109-0.007813 0.23828-0.015625 0.35547-0.023437 0.14062-0.003907 0.26172-0.027344 0.38672-0.046876 0.50781-0.058593 0.89453-0.20703 1.1602-0.37891 0.26953-0.17188 0.44922-0.37891 0.61719-0.625 0.16406-0.23438 0.30469-0.47656 0.40625-0.65625 0.20312-0.35547 0.22656-0.47266-0.050781-0.22656-0.125 0.11328-0.32031 0.32031-0.54297 0.55859-0.22656 0.22656-0.44141 0.41406-0.71094 0.51562 0.19141-0.089843 0.34375-0.21094 0.60156-0.51172 0.25-0.29688 0.57812-0.75391 0.98047-1.1953 0.39453-0.45703 0.88281-0.85938 1.3516-1.2148 0.24219-0.15625 0.48047-0.32813 0.71484-0.46484 0.23438-0.13281 0.46484-0.26172 0.6875-0.38672-0.003906 0-0.011719 0.003906-0.015625 0.003906-0.22266 0.11719-0.48438 0.25781-0.76953 0.41016-0.27344 0.18359-0.58203 0.34766-0.85938 0.57422-0.57812 0.41406-1.0703 0.95312-1.3633 1.3086 0.36328-0.44141 0.79297-0.90234 1.2734-1.2695 0.46875-0.38281 0.97656-0.69141 1.4844-0.95703-0.17578 0.054687-0.375 0.125-0.58594 0.20312-0.76562 0.42969-1.5312 1.0234-2.1445 1.7461 0.51172-0.61328 1.1602-1.1797 1.832-1.6016-0.54687 0.24219-1.168 0.65234-1.7617 1.1797-0.53516 0.51562-0.96484 1.0859-1.2539 1.3594-0.29688 0.28125-0.37891 0.25391-0.56641 0.29688-0.16797 0.039063-0.5 0.046875-0.79688 0.054688-0.070312 0.003906-0.16406-0.003907-0.23828-0.007813l-0.10156-0.003906-0.011718-0.003906c-0.019532-0.003906-0.035156-0.011719-0.050782-0.015625-0.042968-0.015625-0.078124-0.046875-0.10547-0.082031l-0.17578-0.23047c-0.078124-0.11328-0.16016-0.24609-0.24219-0.38672-0.32812-0.57422-0.64062-1.3047-0.91797-2.0625-0.5625-1.5234-1.0352-3.1875-1.5234-4.8711-0.49219-1.6914-0.96484-3.4141-1.6406-5.2148-0.17188-0.45312-0.35938-0.91016-0.58203-1.3867-0.11328-0.23828-0.23047-0.47656-0.375-0.72656-0.1875-0.33594-0.44531-0.72656-0.69922-1.0547-0.52734-0.66797-1.1914-1.2031-1.9648-1.4727-0.38281-0.14063-0.80078-0.19922-1.2031-0.19531-0.39844 0-0.80859 0.11328-1.2109 0.22656l-1.6367 0.64453-1.1641 0.47266-2.3008 0.92188c-1.5273 0.59766-3.0508 1.168-4.5664 1.6602 0.011719 0.09375 0.54297 0.023438-0.22266 0.31641-1.2148 0.42969-2.3438 0.6875-3.4141 0.82813-0.53516 0.074218-1.0469 0.10547-1.5195 0.12109l-0.33594-0.003906c-0.10156-0.003906-0.22656-0.019531-0.19922-0.011719-0.015624 0-0.03125 0-0.054687 0.003906-0.03125 0.046876-0.0625 0.089844-0.10156 0.12891-0.089843-0.089844-0.0625-0.23438 0.003907-0.28906 0.007812 0.023438 0.011719-0.03125 0.042969-0.074218 0.035156-0.042969 0.042968-0.085938 0.085937-0.13672 0.066406-0.097657 0.15625-0.21094 0.26562-0.33203 0.22266-0.24609 0.53516-0.52734 0.91406-0.82031 1.3516-1.1562 3.2773-2.4492 4.8438-4.2773 0.78516-0.91797 1.4844-1.9648 2.0078-3.0938 0.52734-1.1289 0.86328-2.332 1.0508-3.5156-0.074218 0.11328-0.13281 0.16016-0.085937-0.30859 0.070312-0.51562 0.10156-0.96484 0.15234-1.4766 0.054688-0.50781 0.10156-1.0469 0.14844-1.6055 0.10156-1.125 0.18359-2.332 0.25-3.5586 0.007812-0.36328 0.015625-0.72266 0.019531-1.0781-0.023437-0.27734-0.074219-0.35156-0.10547-0.39844 0.050782-1.0977 0.10156-2.0703 0.16016-2.9609 0.027343-1.4727 0.066406-2.9336 0.16406-4.375 0.089844-1.4453 0.23047-2.875 0.46875-4.2852 0.10156-0.71094 0.26172-1.4023 0.40234-2.1055 0.18359-0.6875 0.33984-1.3867 0.56641-2.0625 0.19531-0.71875 0.46875-1.2812 0.71094-1.9023 0.33594-0.57031 0.61328-1.1797 1.0508-1.707 0.375-0.56641 0.87109-1.0547 1.3398-1.5742 0.25391-0.24609 0.52734-0.47656 0.78906-0.71484 0.13281-0.11719 0.26172-0.24219 0.40234-0.35547l0.43359-0.32812c1.1289-0.91016 2.4375-1.668 3.7656-2.4102 2.7031-1.4375 5.6445-2.6445 8.6836-3.8125 1.2773-0.52344 2.5586-1.0391 3.8398-1.543 1.2773-0.50781 2.5508-1.0078 3.7812-1.4258 1.8398-0.58594 4.0039-1.1055 6.0977-1 1.0391 0.085937 2.0547 0.30078 3.0039 0.67188 0.95312 0.375 1.8594 0.81641 2.7148 1.2578-0.14062-0.38672 1.9023 0.46094 3.8555 1.1172 1.9492 0.66016 3.7852 1.0508 3 0.49219 1.2148 0.41797 2.7344 0.94531 3.9727 1.3711 1.2539 0.44922 2.207 0.875 2.332 0.84375 0.19141-0.042969 0.46094-0.042969 0.86719 0.039063 0.20312 0.039062 0.44141 0.097656 0.71875 0.17969 0.27344 0.097657 0.58594 0.22266 0.94141 0.375 0.69922 0.31641 1.582 0.83984 2.5156 1.4531 0.9375 0.60547 1.9766 1.207 3.4219 1.8203 1.1289 0.48828 2.6016 1.1094 3.957 1.5781 1.3398 0.48438 2.5312 0.83594 2.9766 0.93359 1.4258 0.27344-3.1367-1.2812-1.707-1.0078-2.2656-0.74609-4.4922-1.5469-6.3203-2.625-0.92969-0.53125-1.7188-1.1602-2.7539-1.9609-1.0312-0.80078-2.2734-1.6055-3.4961-2.2109-1.2266-0.59375-2.457-1.0938-3.6719-1.5117l-1.7773-0.60547c-0.54297-0.19141-1.0938-0.36328-1.6289-0.57031-2.168-0.79688-4.168-1.8164-6.4336-2.9453-1.1445-0.55859-2.4453-1.1328-3.8984-1.4922-0.36719-0.078125-0.73047-0.17969-1.1055-0.22656l-1.125-0.125c-0.37109-0.023438-0.73828-0.011719-1.1094-0.015626-0.18359 0-0.37109-0.003906-0.55078 0.007813l-0.53125 0.050781-1.0625 0.10938-1.0117 0.19141c-0.6875 0.11328-1.3164 0.29687-1.9609 0.46484-0.65234 0.15625-1.2539 0.375-1.875 0.57031l-0.92188 0.30078-0.86719 0.30078c-4.6094 1.6328-9.375 3.1289-14.125 5.418-0.39844 0.19922-0.9375 0.5-1.5977 0.875-0.66797 0.35547-1.4414 0.86719-2.3203 1.4336-0.42969 0.3125-0.88281 0.64844-1.3633 0.99609-0.46094 0.39063-0.94531 0.80078-1.4414 1.2461-0.94531 0.95703-1.9688 2.043-2.7695 3.4414-0.44531 0.66797-0.75781 1.4414-1.1016 2.2188-0.17187 0.39063-0.26172 0.74219-0.40234 1.125-0.12891 0.375-0.25781 0.75391-0.35938 1.1445-0.46875 1.5469-0.79688 3.1875-1.0586 4.8672-0.51953 3.3633-0.61719 6.8594-0.75 10.297-0.0625 1.7188-0.13672 3.4219-0.25391 5.1016-0.054688 0.83984-0.13672 1.6719-0.21875 2.4961-0.082032 0.76172-0.20703 1.4219-0.41406 2.082-0.41016 1.3008-1.1211 2.418-2.0703 3.418-0.94531 1.0078-2.1172 1.8672-3.3711 2.8516-0.625 0.5-1.2773 1.0312-1.9102 1.7305-0.3125 0.36328-0.625 0.74219-0.89062 1.2188-0.26953 0.46875-0.48438 0.94141-0.63281 1.6211-0.13672 0.625-0.15625 1.2578-0.070312 1.8555 0.042969 0.34375 0.125 0.67578 0.24219 0.99219-0.23047 0.089844-0.48438 0.1875-0.75391 0.29297-1.0547 0.53906-2.1094 1.0859-3.1914 1.6758 0.92188-0.5 1.8477-1.0039 2.7734-1.5039-0.73047 0.30469-1.5664 0.66797-2.4727 1.0781-3.3672 1.6523-6.625 3.1758-8.4062 4.1523-7.1953 3.9141-14.383 7.8672-21.523 11.953-3.5742 2.0508-7.1172 4.1055-10.66 6.3789-0.4375 0.26953-0.89844 0.59766-1.3516 0.91406s-0.91016 0.62891-1.3438 1l-0.65625 0.53516c-0.21484 0.1875-0.42578 0.39062-0.63672 0.58203-0.42969 0.37891-0.83203 0.81641-1.2305 1.2539-0.78125 0.90234-1.5312 1.8906-2.082 3.0352-0.56641 1.1289-0.95312 2.3555-1.168 3.5391 0.089844 0.046876 0.35156-0.92187 0.13281 0.625-0.15234 1.2031-0.19922 2.2734-0.27344 3.2539-0.035156 0.49609-0.074218 0.95703-0.11719 1.4141l-0.078125 0.66797-0.09375 0.71484c-0.24609 1.9102-0.50781 3.8828-0.49609 6.1523 0.046875 0.10547 0.097656 0.21875 0.14844 0.32812-0.042969 1.75 0.035156 3.5781 0.30469 5.4141 0.13281 0.91797 0.31641 1.8359 0.53516 2.75 0.042969 0.21484 0.14062 0.5 0.21484 0.75 0.082031 0.25781 0.16016 0.51953 0.25391 0.76953 0.21484 0.47656 0.39844 0.99219 0.65234 1.4375 0.92188 1.6836 2.0898 3.1094 3.3477 4.3711 1.2617 1.2656 2.6289 2.3633 4.0625 3.3359 1.4336 0.97656 2.9297 1.832 4.4766 2.582l1.1719 0.53516c0.39453 0.17188 0.79688 0.32422 1.1914 0.48828 0.39453 0.16797 0.80469 0.30078 1.2109 0.44531l1.1758 0.41406c-0.14062-0.10938-0.19531-0.1875 0.41016 0.011719 2.5156 0.86328 5.9688 2.168 9.5625 3.4805 0.53516 0.18359 1.0703 0.36719 1.5938 0.54688 0.41797 0.11719 0.54297 0.10156 0.61719 0.09375 1.6211 0.59766 3.0625 1.1328 4.3984 1.625 17.754 6.0625 35.785 12.215 55.324 18.887 4.1523 1.3477 8.3125 2.6992 12.293 4.0625 5.8828 2.0586 13.336 4.8555 19.047 6.9336-0.69531-0.82812 13.332 3.9492 10.734 2.4297 3.8086 1.3867 9.5273 3.4688 9.8711 3.4297 1.0391-0.11328 4.1523 0.44531 14.375 3.8359 3.9844 1.3711 10.008 3.7461 11.438 4.1641 2.3008 0.71484-4.9766-2.0977-2.7266-1.4453zm-112.01-119.34c0.003907 0.015625 0.011719 0.03125 0.015625 0.042969-1.2539 0.66406-3.1211 1.6523-4.168 2.207 1.3867-0.74609 2.7695-1.5 4.1523-2.25z"/>
  <path d="m588.18 464.84c-8.3203-0.25-16.375-0.33984-24.711-1.0273-1.4336-0.015625-6.9219-0.35156-12.594-1.2891-5.7773-0.91406-11.812-1.8281-14.273-2.2539l-0.44922-0.0625c-2.6875-0.43359-5.9648-0.875-8.2734-1-1.0625-0.023437-2.1484-0.023437-3.2305-0.027343 0.48047 0.16016 0.92188 0.3125 1.3047 0.45703-0.60938-0.09375-1.2148-0.1875-1.707-0.24219 0.082031-0.050781 0.16797-0.097656 0.25-0.14844 0.13281-0.097656 0.25781-0.20703 0.38281-0.31641 0.48828-0.44531 0.86328-1.0625 1.0625-1.5391 0.21484-0.5 0.33984-0.95703 0.44922-1.375 0.20703-0.83984 0.33984-1.5391 0.55078-2.1523 0.050781-0.15625 0.10938-0.29688 0.16406-0.44141 0.066407-0.13672 0.11328-0.25781 0.20313-0.41797 0.15625-0.30078 0.34375-0.625 0.53516-0.94531 0.77734-1.2891 1.6562-2.5898 2.5352-3.8711-1.1445 1.5312-2.2617 3.0391-3.1406 4.4453-0.09375 0.16797-0.21875 0.35156-0.28906 0.5-0.082031 0.14844-0.16016 0.30859-0.23047 0.47656-0.14062 0.33594-0.26172 0.69141-0.37109 1.0664-0.23047 0.75391-0.39844 1.582-0.80469 2.4844 0.30078-0.70312 0.44922-1.3477 0.59766-1.9258 0.14453-0.58203 0.28516-1.1133 0.46484-1.5898 0.089844-0.24219 0.19141-0.45703 0.30078-0.67188 0.13281-0.23438 0.25781-0.46484 0.40625-0.70703 0.28516-0.47656 0.59766-0.95312 0.90625-1.418 0.62109-0.93359 1.2578-1.8398 1.8711-2.6992 0.30859-0.42969 0.61328-0.85156 0.90625-1.2578 0.32031-0.4375 0.63281-0.85938 0.93359-1.2695 0.67969-1.3633 1.2891-2.5898 1.8125-3.6406 0.50391-1.0234 0.91797-1.875 1.2148-2.5117 1.0547-2.1719 1.8867-3.8906 2.5117-5.1758l0.61328-1.2695-1.3242-0.23438c-0.625-0.10937-1.1133-0.19531-1.4727-0.26172-0.042969-0.45703-0.078125-0.78516-0.11328-0.99219-0.023438-0.12891-0.042969-0.21875-0.050781-0.27344-0.015626-0.085938-0.03125-0.10547-0.046876-0.070313-0.015624 0.035156-0.023437 0.14844-0.039062 0.22656-0.011719 0.074219-0.023438 0.17969-0.035156 0.30859-0.023438 0.26172-0.042969 0.62891-0.0625 1.0898 0.48828 0.14453 1.0703 0.3125 1.7031 0.5l0.65234 0.19141-0.30469 0.53906c-0.31641 0.55859-0.65625 1.1562-0.99609 1.7539l-0.37891-0.80078 0.25-0.49219c-0.015625-0.003906-0.035156-0.007812-0.050781-0.011718-0.074219 0.14453-0.14844 0.29297-0.22266 0.44531l-0.0625-0.12891c0.054687-0.11328 0.11328-0.22656 0.16797-0.33984-0.054687-0.011718-0.10938-0.023437-0.16016-0.035156-0.03125 0.0625-0.0625 0.125-0.097656 0.1875l-0.023438-0.050781c0.023438-0.046875 0.050782-0.097657 0.074219-0.14453-0.046875-0.011719-0.097656-0.019532-0.14453-0.03125-0.003906 0.003906-0.003906 0.011718-0.007813 0.015624l-0.007812-0.015624v-0.003907h-0.003907l-0.015624-0.035156c0.011718 0.003906 0.023437 0.003906 0.035156 0.007813 0.023437-0.046876 0.046875-0.089844 0.066406-0.13672-0.0625-0.015625-0.12109-0.027344-0.18359-0.039063l-0.023437-0.050781c0.074219 0.015625 0.15234 0.035156 0.22656 0.050781 0.019531-0.042968 0.042969-0.085937 0.0625-0.12891-0.12109-0.027344-0.24219-0.054688-0.36719-0.078125l-0.070313-0.15234c0.15625 0.035157 0.32422 0.074219 0.49609 0.11328 0.007813-0.015624 0.015625-0.03125 0.023437-0.046874l-0.54687-0.12109-0.44531-0.94141c-0.13672 0.26172-0.26172 0.51172-0.38672 0.75391l-0.14453-0.046875-0.03125-1.0547c-0.027344-0.10547-0.027344 0.30078-0.011719 1.0938 0.050782 0.011719 0.11719 0.027344 0.17188 0.039063-0.023437 0.042968-0.042969 0.085937-0.066406 0.12891-0.082031-0.019531-0.16406-0.035156-0.24219-0.054688-0.03125-0.88281-0.0625-1.7617-0.089844-2.6328-0.011719-0.3125-0.019532-0.62109-0.03125-0.92969l-0.007813-0.23047-0.003906-0.11719-0.10938-0.035156c-0.14844-0.042969-0.29688-0.078125-0.44531-0.11328 0.10156 0.035156 0.25391 0.089843 0.45703 0.16016 0.074219 0 0.054687 0.074219 0.054687 0.13672v0.19922 0.44531c0.003906 0.35547 0.007813 0.76172 0.015625 1.2031 0.015625 0.62109 0.027344 1.293 0.046875 2.0078 0.097656 0.023438 0.20312 0.046876 0.30469 0.070313-0.007813 0.015625-0.015625 0.03125-0.023438 0.046875-0.10938-0.023438-0.22266-0.050781-0.32812-0.074219-0.03125-0.95703-0.066406-1.7852-0.10156-2.4141-0.027344-0.40234-0.058594-0.61328-0.09375-0.70703-0.011719-0.03125-0.015625 0.17969-0.011719 0.54297 0.015625 0.66797 0.039062 1.6211 0.066406 2.6992 0.13281 0.03125 0.26953 0.058594 0.40234 0.089844-0.007812 0.011719-0.011719 0.027343-0.019531 0.039062-0.14062-0.03125-0.28906-0.0625-0.42578-0.09375-0.039063-1.0586-0.078126-2.0742-0.11719-3.0469-0.011719-0.26953-0.023438-0.53125-0.035156-0.78906l-0.003906-0.046875-0.15625-0.039063-0.18359-0.046875c-0.125-0.027343-0.24609-0.050781-0.36328-0.074219-0.24219-0.042968-0.46875-0.070312-0.71484-0.09375-0.30859-0.023437-0.63672-0.039062-0.92578-0.027343-0.59375 0.019531-1.1172 0.11328-1.5234 0.27734-0.85547 0.35547-1.5273 0.95313-1.9883 1.4219-0.23438 0.23437-0.41797 0.45312-0.5625 0.63281-0.039063 0.046875-0.074219 0.09375-0.10547 0.13672-0.050781 0.0625-0.09375 0.12109-0.13672 0.17578-0.078125 0.11328-0.14844 0.20703-0.19922 0.28125-0.29297 0.22656-0.42187 0.34375-0.41797 0.35938 0.007812 0.011719 0.14453-0.074219 0.48047-0.28516 0.12109-0.12891 0.44531-0.5 0.64453-0.67578 0.24609-0.23438 0.57812-0.54688 1.0117-0.87109 0.42188-0.32031 0.98828-0.67969 1.5586-0.83984 0.29297-0.078125 0.65234-0.12891 1.0664-0.14062 0.20703-0.003906 0.42969 0.003906 0.66016 0.019531 0.11719 0.011719 0.23438 0.023438 0.35547 0.035156 0.070312 0.011719 0.13672 0.019532 0.21094 0.03125l-0.21094-0.023437c-0.125-0.007813-0.24609-0.019531-0.37109-0.027344-0.25-0.011719-0.49609-0.015625-0.73828 0-0.24219 0.015625-0.48047 0.042969-0.69531 0.089844-0.10547 0.027344-0.21875 0.046875-0.3125 0.085937-0.097656 0.03125-0.19531 0.0625-0.30859 0.12109-0.42969 0.19531-0.88672 0.49219-1.3242 0.86328-0.21875 0.18359-0.43359 0.38281-0.64453 0.59766-0.10547 0.10547-0.20703 0.21484-0.30859 0.32812l-0.089843 0.097656-0.12891 0.15234-0.25 0.3125c-0.28906 0.18359-0.55859 0.36328-0.79297 0.53125-0.26562 0.10547-0.57812 0.17578-0.90625 0.28516l-0.51172-0.023437-0.44531-0.015626-0.63672-0.011718c-0.42188-0.003906-0.84766 0-1.2617 0.015625-0.82422 0.03125-1.6602 0.097656-2.3281 0.26172-0.15625 0.042968-0.32812 0.085937-0.42578 0.13281-0.10938 0.03125-0.17969 0.09375-0.26172 0.14062-0.16406 0.125-0.375 0.35156-0.52734 0.58984-0.16016 0.24219-0.29297 0.52344-0.39453 0.81641-0.050781 0.14453-0.097656 0.29688-0.13672 0.44531-0.023437 0.089843-0.046875 0.19531-0.0625 0.28125l-0.023437-0.09375c-0.14062-0.76953-0.60547-1.4414-1.1641-1.9922-0.13281-0.14453-0.30078-0.25781-0.45312-0.39062-0.15234-0.12891-0.30859-0.25781-0.47266-0.35938-0.24609-0.17188-0.45312-0.28906-0.67578-0.42188-1.7148-0.95312-3.2891-1.4883-4.8906-2.0195-0.79688-0.25781-1.5938-0.49219-2.3906-0.71094l-1.1992-0.31641-1.1562-0.28516c-2.4258-0.67969-4.8516-1.3594-7.2773-2.0391-2.4492-0.67578-4.8984-1.3438-7.3672-1.9961-1.2344-0.32422-2.4727-0.64063-3.75-0.94531-0.33203-0.074219-0.63281-0.14844-0.99219-0.22266l-0.53906-0.10938c-0.19141-0.039063-0.32031-0.054688-0.48438-0.082032l-1.9023-0.30859c-2.5586-0.39844-5.1562-0.72266-7.8086-0.88281-2.6719-0.11719-5.3594-0.19531-8.375 0.53906l-1.1641 0.38281-0.94141 0.38672c-0.62109 0.26562-1.2383 0.53906-1.8477 0.83594-1.2266 0.58594-2.418 1.2461-3.5312 1.875-1.1172 0.62891-2.1719 1.2148-3.2656 1.7422-1.0547 0.50391-2.0703 0.96484-3.0117 1.2383-0.29687-0.5-0.55078-0.98828-0.77734-1.1992-2-1.9805-4.1328-3.8438-6.4727-5.5-0.058593 0.074218 0.011719 0.24219-0.20703 0.14062-0.66016-0.34766-0.98438-0.94922-1.6719-1.2773l-0.12891 0.10156c-0.46094-0.36328-0.93359-0.75781-1.457-1.1211-0.50391-0.28125-1.0391-0.53125-1.5781-0.77344l-0.39844-0.17969-0.30078-0.14453-0.60547-0.28125c-0.007812 0.058594-0.023437 0.10938-0.11328 0.085938-0.35547-0.15625-0.80859-0.53125-1.2891-0.85156-0.078124-0.039062-0.15625-0.078125-0.23047-0.125-0.074219-0.011718-0.12109 0.019532-0.14844 0.042969-0.21875-0.16406-0.41016-0.32031-0.58203-0.46875-2.5938-1.5195-5.2266-3.3164-8-5.3477-0.62891-0.38281-1.2578-0.77344-1.8164-1.1992-0.79688-0.66406-1.6953-1.6445-2.4102-2.3594-0.26562 0.50391-2.2266-1.0234-2.2539-0.28906-0.47656-0.48047-1.1914-1.207-1.3359-1.1328-0.43359 0.21484-1.1836 0.23047-2.6562-0.85547-0.54688-0.45703-1.1719-1.3672-1.418-1.4922-0.38281-0.17969 0.41797 0.89453 0.035156 0.71094 3.3242 3.5938 6.8125 6.7539 10.484 10.016-10.973-1.9805-21.77-3.7422-32.949-5.6836-2.3242-0.27344-11.23-1.7539-20.602-3.25-9.3984-1.4492-19.121-3.0117-23.113-3.7031-0.24219-0.035157-0.48438-0.074219-0.72656-0.10938-4.3477-0.72656-9.6406-1.5312-13.355-1.918-1.7109-0.14453-3.4531-0.26562-5.1875-0.39062 0.78125 0.21484 1.5039 0.42188 2.1289 0.60938-1.5469-0.25781-3.0898-0.51562-3.8945-0.57422-2.3398-0.80078-4.707-1.625-6.9102-2.5078-0.30859-0.13281-0.66406-0.25781-0.92969-0.39062-0.27734-0.13672-0.54297-0.25-0.82812-0.39844-0.58594-0.34766-1.1719-0.66797-1.7422-1.0273-0.57031-0.37109-1.1406-0.71875-1.6953-1.0977-0.55469-0.38281-1.1016-0.76172-1.6445-1.1328-2.1523-1.5273-4.1445-3.0781-5.9531-4.4727-3.332-2.543-6.6953-5.2188-10.145-7.8008 1.5078 1.3242 2.8672 2.5742 4.0391 3.6602-1.668-1.3984-3.3555-2.7891-4.8047-3.9414-0.73438-0.57031-1.3984-1.0859-1.9805-1.5117-0.58594-0.42188-1.0703-0.76172-1.4258-0.99609-1.9453-1.332-3.25-2.0391-3.9375-2.3555-0.69141-0.33203-0.81641-0.32031-0.58984-0.10938 0.44922 0.42188 2.3164 1.6875 3.6406 2.9102 1.9688 1.6523-0.94531-0.22266 2.1445 2.3242-0.5625-0.44922-1.0703-0.82422-1.5391-1.1758-0.46484-0.35547-0.90625-0.67188-1.3477-0.98047-0.44141-0.3125-0.88281-0.625-1.3789-0.93359-0.24609-0.15625-0.5-0.32031-0.76953-0.49609-0.27734-0.16406-0.57031-0.33594-0.87891-0.51953-0.17969-0.011719 1.7617 1.0508 3.3789 2.2422 1.6367 1.1641 3.0469 2.2969 2.1797 1.7773-0.53516-0.44141-1.1133-0.86328-1.6914-1.3008-0.58594-0.42578-1.1953-0.83984-1.8086-1.2539-1.2344-0.79297-2.5391-1.5273-3.8008-2.2148 0.38672 0.33203 2.5742 1.5234 4.4258 2.8633 1.875 1.3242 3.5312 2.6875 3.293 2.6289-0.625-0.45703-2.1758-1.7617-3.707-2.8555-1.5234-1.082-3.0625-1.9648-3.3672-1.9805-0.058594-0.007812 0.53516 0.33984 1.2891 0.79688 0.38281 0.21875 0.78125 0.48828 1.1719 0.73828 0.39063 0.24609 0.75781 0.49219 1.0469 0.70312-1.8008-1.2188-3.5352-2.1406-4.9336-2.8359-1.4023-0.69531-2.4922-1.1367-3.1055-1.3516-0.61719-0.21094-0.75391-0.20703-0.29297 0.0625 0.46094 0.26953 1.5234 0.8125 3.25 1.793-1.2148-0.64844-2.6992-1.3984-4.2422-2.0586-0.76953-0.33594-1.5508-0.63672-2.3125-0.90234-0.37891-0.13281-0.75781-0.25391-1.1211-0.35937-0.35547-0.10547-0.74219-0.20313-1.0156-0.26172 0 0 0.007812 0.003906 0.011719 0.007812 0.60938 0.14062 1.5742 0.44141 2.4648 0.77344 0.90625 0.32812 1.7852 0.70703 2.4023 0.96484-1.5039-0.64062-3.0664-1.2227-4.5898-1.6211 0.23047 0.097656 0.49219 0.20703 0.76953 0.32422 1.1367 0.375 2.2812 0.82031 3.457 1.3125-1-0.42188-2.0156-0.80469-3.0391-1.1289 0.73828 0.32031 1.5859 0.71094 2.5039 1.1602 1.7578 0.79687 3.4219 1.7188 4.8555 2.582 1.4375 0.86328 2.6562 1.6797 3.4844 2.2266 3.4375 2.3516 6.7695 5.2148 10.125 8.0195 3.3633 2.8203 6.7227 5.6953 10.316 8.3984 1.7891 1.3555 3.6445 2.668 5.6523 3.8594l0.75391 0.44922c0.26172 0.14844 0.57031 0.28906 0.85547 0.43359 0.29297 0.14453 0.58594 0.28516 0.84375 0.38672l0.80078 0.33594c0.53906 0.23438 1.0586 0.42188 1.5859 0.625 0.52344 0.19922 1.0508 0.40625 1.5742 0.58984 4.1836 1.5234 8.3633 2.8984 12.547 4.2539 0.058594-0.082032-0.80469-0.45703 0.59766-0.054688 4.3945 1.3125 7.8125 2.7031 12.223 3.9609 0.11719-0.015625 0.23828-0.035156 0.35938-0.050782 3.3711 1.0898 6.8867 2.2266 10.477 3.3828 6.6641 1.9531 13.305 3.8398 19.934 5.668-0.15625-0.10156-0.22266-0.17578 0.44141-0.007813 2.7617 0.73828 6.5625 1.8633 10.516 2.9648 0.58594 0.15234 1.1758 0.30469 1.7539 0.45312 0.45703 0.089844 0.58984 0.070312 0.67188 0.058594 1.7852 0.5 3.375 0.94141 4.8516 1.3555 9.7773 2.457 19.637 4.8867 29.895 6.9297 2.5781 0.48047 5.1523 0.98828 7.8516 1.3008 0.67188 0.085938 1.3828 0.12109 2.0742 0.18359 0.375 0.007813 0.77344-0.003906 1.1602-0.011719 0.19922-0.003906 0.39062-0.011718 0.54297-0.03125l0.48828-0.050781c1.3047-0.14453 2.6172-0.25781 3.9336-0.36328 1.3203-0.097656 2.6406-0.17188 3.9961-0.25 1.3438-0.078125 2.7812-0.15625 4.25-0.52344 1.4609-0.37109 2.7891-0.98438 4.0273-1.6016 1.2617-0.62109 2.4922-1.3242 3.6875-2.0234 1-0.60547 1.9844-1.1875 2.9961-1.7148 0.50391-0.26562 1.0156-0.51953 1.5312-0.75781 0.25781-0.125 0.51953-0.23828 0.77734-0.35547l0.39062-0.17188 0.37109-0.13281c0.47656-0.19922 1.0156-0.30469 1.5391-0.4375 0.54297-0.082032 1.082-0.19141 1.6367-0.23047 1.1016-0.125 2.2227-0.12891 3.3281-0.12891 3.293 0.070312 7.0391 0.58203 10.754 1.2422 1.7891 0.32812 3.6211 0.85938 5.3711 1.3164 1.7539 0.48438 3.4414 0.94922 5.0117 1.3828-0.55859-0.54297 6.3711 1.1289 9.9336 1.8516 1.707 0.26562 2.6602 0.39844 1.7188-0.042969 2.1172 0.57031 4.7422 1.3594 6.8164 2.3516 0.52734 0.25781 0.98438 0.5 1.4531 0.82812 0.48047 0.34375 0.86719 0.72656 1.0781 1.125 0.22266 0.40625 0.17188 0.79688 0.19141 1.0664-0.003906 0.27344-0.015625 0.45313 0 0.50781 0.074219 0.35156 0.12109 0.78125 0.003906 1.5273-0.125 0.72656-0.43359 1.7422-1.293 2.9219-0.44141 0.57422-1.0273 1.1797-1.7969 1.7305-0.76562 0.55469-1.7266 1.0195-2.8281 1.3398-0.23828 0.085938-0.64453 0.16797-1.0039 0.21875-0.17188 0.015625-0.34375 0.027344-0.51953 0.042969-0.17188 0.011719-0.32812 0.003906-0.5 0.007813-0.66406-0.003907-1.3086-0.070313-1.957-0.16797-1.3047-0.19531-2.6484-0.52344-4.0898-0.94141-2.25-0.67187-4.9609-1.7539-7.2891-2.7695-2.3281-1.0117-4.2656-1.9375-5.0391-2.2539-0.58203-0.23828-0.55078-0.17969-0.21484 0.023437 0.34766 0.21484 1.0117 0.56641 1.6719 0.91016 1.3203 0.69141 2.6562 1.3516 1.457 0.91016 3.0156 1.3359 6.0508 2.5859 9.2539 3.625 0.80078 0.25781 1.6172 0.5 2.457 0.71484 0.84375 0.21484 1.7031 0.40625 2.6523 0.52734 0.23438 0.03125 0.48828 0.050782 0.73047 0.074219 0.25 0.019531 0.52344 0.023438 0.78516 0.03125 0.29688-0.011719 0.5625-0.011719 0.89453-0.054687l0.49609-0.078125c0.16016-0.03125 0.25391-0.0625 0.38672-0.09375 0.97266-0.22656 1.9531-0.62109 2.8711-1.1484 1.8477-1.0547 3.3711-2.8164 4.1133-4.8516 0.19531-0.50781 0.33594-1.0312 0.4375-1.5742l0.042968-0.22266 0.027344-0.29688 0.054688-0.59766c0.015625-0.19922 0-0.39453-0.003906-0.58984l-0.019532-0.29297c-0.015625-0.046875 0.015625-0.10156-0.035156-0.14062l-0.003906-0.03125c0.085937-0.46875 0.29688-1.1055 0.62109-1.5742 0.085937-0.125 0.17969-0.24219 0.27734-0.34766 0.10156-0.10547 0.21094-0.19922 0.27734-0.24219 0.046875-0.019531 0.089844-0.050781 0.13281-0.074218 0.050781-0.015625 0.10937-0.039063 0.17578-0.066406 0.15234-0.042969 0.31641-0.097657 0.50781-0.12891 0.75781-0.14844 1.6367-0.20703 2.4453-0.22656 0.40625-0.007813 0.80078-0.007813 1.1758-0.003907 0.19141 0.003907 0.37891 0.007813 0.55859 0.011719 0.03125 0 0.058593 0.003907 0.089843 0.003907-0.058593 0-0.11719-0.003907-0.16797-0.003907l-0.56641-0.007812c-0.37891 0-0.75391 0-1.125 0.011719-0.74219 0.023437-1.4844 0.074218-2.1484 0.19141-0.15625 0.035156-0.33594 0.054687-0.46875 0.10156-0.14453 0.039063-0.29297 0.078125-0.37891 0.12109-0.18359 0.078125-0.28125 0.13281-0.47266 0.33984-0.33984 0.35938-0.61719 0.89844-0.78906 1.4922 0.14453-0.37891 0.35547-0.79297 0.61719-1.1133 0.11719-0.17188 0.25-0.30469 0.37891-0.42578l0.082031-0.0625c0.015625-0.019531 0.050781-0.027344 0.074219-0.042969 0.027343-0.011719 0.050781-0.03125 0.078125-0.046875 0.035156-0.007813 0.0625-0.019531 0.10156-0.035156 0.33984-0.125 0.89844-0.21875 1.4453-0.27734 0.55859-0.058594 1.1523-0.082031 1.75-0.09375h0.25781c-0.52344 0.003906-1.0391 0.027344-1.543 0.0625-0.49609 0.042969-0.99609 0.10156-1.4219 0.19531-0.19531 0.050781-0.41406 0.10547-0.52344 0.15625-0.11719 0.046874-0.17188 0.085937-0.27344 0.16797 0.15625-0.10938 0.22656-0.11719 0.54688-0.19531 0.28906-0.070313 0.69141-0.10938 1.0938-0.14453 0.82812-0.058593 1.7695-0.050781 2.7539-0.011718l0.54297 0.019531c0.29688 0.011719 0.64453 0.027344 0.96484 0.050781 0.36328-0.14453 0.69922-0.25391 0.98828-0.37891 0.3125-0.17578 0.625-0.35156 0.92578-0.51953l0.25781-0.32031 0.13281-0.15625 0.10547-0.11719c0.089844-0.097657 0.18359-0.19141 0.27344-0.28516 0.1875-0.18359 0.375-0.35937 0.57031-0.51562 0.38281-0.32031 0.77734-0.58594 1.1406-0.76172 0.18359-0.089844 0.35937-0.15234 0.49219-0.1875 0.16016-0.039063 0.33984-0.066407 0.53516-0.085938 0.39453-0.035156 0.84375-0.015625 1.2969 0.042969 0.10547 0.015625 0.14453 0.03125 0.1875 0.042969 0.042969 0.015625 0.085938 0.03125 0.125 0.046875 0.10938 0.007812 0.066406 0.125 0.0625 0.20312l-0.011718 0.11328c0 0.015625-0.003907 0.003906-0.003907 0.039062l0.003907 0.28516c0.003906 0.23047 0.007812 0.46094 0.011718 0.6875 0.019532 0.91797 0.039063 1.8086 0.054688 2.668 0.37109 0.085937 0.73047 0.16797 1.0859 0.25-1.4414 2.8242-2.8828 5.6523-4.3281 8.4844l-1.5195 2.0625c-0.53906 0.74609-1.0742 1.4961-1.6016 2.2617-0.52734 0.76953-1.0469 1.543-1.5625 2.3867-0.25391 0.41406-0.51953 0.88281-0.78125 1.4609-0.23828 0.54297-0.40625 1.0781-0.54687 1.5703-0.26953 0.98047-0.45703 1.8711-0.64844 2.25-0.046875 0.10156-0.078125 0.14844-0.085938 0.14844-0.003906 0.019531-0.019531 0.023437-0.03125 0.035156-0.015624 0.011718-0.019531 0.007812-0.050781 0.019531-0.027343 0.015625-0.097656 0.035156-0.17578 0.054687l-0.22266 0.0625c-0.67969 0.16016-1.5273 0.27344-2.3633 0.35156-0.42187 0.042969-0.85156 0.074219-1.2852 0.10156l-0.66406 0.039062-1.2812 0.050781c-0.45703 0.35938-0.86328 0.65234-1.1445 0.89844l-1.1211 0.9375c-0.050781 0.019531-0.10938 0.16406-0.12109 0.16406l-0.027344 0.039063c-0.015625 0.027344-0.042969 0.054687-0.0625 0.082031-0.039062 0.054687-0.09375 0.10547-0.14062 0.16016-0.10547 0.10547-0.21484 0.21094-0.34375 0.30859-0.25 0.19531-0.59375 0.38672-0.82812 0.47266-0.76172 0.27734-1.8164 0.53516-2.8203 0.75391-1.0234 0.22266-2.0703 0.41797-3.125 0.60156l-1.5859 0.26562-2.1016 0.32422-0.50391 0.38281c-0.16406 0.125-0.30859 0.23438-0.44531 0.34375l-0.9375 0.74609-0.14062 0.17188c-0.03125 0.042969-0.050781 0.058594-0.078125 0.089844-0.050781 0.050781-0.097656 0.10547-0.15625 0.15625-0.10938 0.10156-0.23438 0.19922-0.36719 0.28516l-0.085937 0.058594-0.007813 0.003906c-0.003906 0-0.011718 0.003906-0.015624 0.003906l-0.12891 0.019531c-0.09375 0.015626-0.19922 0.03125-0.32812 0.042969-0.96094 0.11328-2.0898 0.16406-3.1758 0.21094-2.1992 0.085937-4.4336 0.11719-6.6641 0.13672-2.2344 0.019531-4.4727 0.019531-6.7109 0.007812l-3.3555-0.023438c-1.1523-0.011718-2.1641-0.007812-3.0508-0.13672-0.48438-0.066406-0.55469-0.10547-1.2305-0.32422l-1.6133-0.51562-3.2227-1.0156-6.457-1.9844c-4.3203-1.2969-8.6289-2.5742-13.055-3.6992-0.085938 0.078125 1.6992 0.61719-1.125-0.035156-1.125-0.25391-2.1992-0.5-3.4023-0.67969-0.28906-0.046876-0.63672-0.082032-1.0039-0.10938l-0.34766-0.003906c-0.10156 0-0.26562 0.003906-0.30859 0.007813l-0.39844 0.027343c-0.52734 0.039063-1.0508 0.078126-1.5703 0.11719-2.0586 0.15234-4.0391 0.28906-5.9531 0.30469-0.47656 0.003906-0.94531-0.003907-1.4102-0.015626-0.22656-0.011718-0.45703-0.019531-0.67578-0.039062l-0.32813-0.027344c-0.10937-0.007812-0.17578-0.027344-0.26562-0.039062-0.69141-0.10156-1.6211-0.38672-2.5547-0.69531-1.8945-0.625-3.9453-1.3945-6.3086-1.9453-0.23047 0-0.48047-0.003907-0.72266-0.003907-0.93359-0.19531-1.8984-0.36719-2.9414-0.41406-0.42578-0.023438-0.85547-0.046875-1.2812-0.070312-0.43359-0.027344-0.86719-0.058594-1.3008-0.085938-1.75-0.13281-3.5117-0.26562-5.2891-0.39844-3.5625-0.28906-7.1797-0.59375-10.832-0.92969-6.7344-0.53125-13.449-1.1133-20.125-1.7852-3.3359-0.34375-6.668-0.69922-9.9766-1.1133-3.3203-0.39453-6.5898-0.87109-9.8242-1.457 0.32812 0.12109 0.47656 0.20312-0.81641-0.027344-5.4023-1-12.855-2.8789-20.469-5.1328-1.1289-0.32812-2.2578-0.64062-3.3633-0.98047-0.87109-0.23828-1.1094-0.25781-1.2578-0.26953-3.4297-1.0664-6.4414-2.1211-9.2188-3.125-4.582-1.6172-9.1289-3.3789-13.496-5.4414-1.1016-0.5-2.1484-1.082-3.2266-1.6172-0.52734-0.28125-1.0352-0.58984-1.5508-0.88281-0.51953-0.30469-1.0195-0.57812-1.5703-0.91797-2.1445-1.3203-4.3438-2.5586-6.5742-3.7422-2.2344-1.1758-4.5078-2.2773-6.8008-3.3281-2.2891-1.0547-4.6016-2.0469-6.8672-3.0664-2.2617-1.0195-4.4922-2.0625-6.4258-3.3633-2.0781-1.4297-4.2383-2.8281-6.3555-4.2031-2.1289-1.3828-4.2539-2.7617-6.3594-4.1797-2.0977-1.418-4.1914-2.8633-6.1367-4.4141-0.49609-0.38281-0.94531-0.78516-1.4023-1.1836-0.41797-0.39844-0.85937-0.82031-1.1211-1.1875-0.30859-0.40234-0.59766-0.95312-0.86719-1.4727-0.26172-0.53906-0.50781-1.0938-0.73438-1.668-0.89453-2.293-1.5469-4.7617-1.9688-7.2383-0.20703-1.2422-0.35547-2.4844-0.37109-3.7031-0.015624-1.2305 0.070313-2.5039 0.21094-3.7734 0.28906-2.5391 0.76562-5.1016 1.4844-7.5547 0.36719-1.2266 0.78125-2.418 1.3789-3.4688 0.62891-1.1211 1.3164-2.2539 2.0273-3.3711 1.418-2.2422 2.9102-4.4688 4.4453-6.6797 2.5664-3.7617 5.2305-7.4648 8-11.027 0.70312-0.88281 1.4023-1.7617 2.1016-2.6367 0.72266-0.85156 1.4219-1.7305 2.1602-2.5547 1.457-1.6797 2.9766-3.2734 4.5664-4.7227 2.3945-2.043 5.457-3.7227 8.6562-5.2695 3.2188-1.543 6.6484-2.9062 10.102-4.1758 6.918-2.5273 13.934-4.6289 20.09-6.2305-0.51953-0.003906 1.0312-0.49219 3.375-1.5 2.3555-0.98828 5.5234-2.4688 8.7148-3.543 3.1758-1.125 6.3867-1.7109 8.3867-1.9844 0.5-0.074219 0.92578-0.13281 1.2578-0.18359 0.33203-0.039063 0.57031-0.074219 0.69531-0.10547 0.25391-0.066406 0.058594-0.125-0.73047-0.17578 8.5898-0.27344 21.266 1.168 21.941 1.0859 1.0078-0.10547 3.1562-0.16406 7.8789 0.29297 0.58984 0.066406 1.2227 0.13672 1.8945 0.21094 0.67578 0.09375 1.3945 0.19141 2.1562 0.29687 0.76953 0.12891 1.5781 0.24219 2.4492 0.42969 0.4375 0.085938 0.87891 0.17188 1.3594 0.30078 0.23828 0.0625 0.47656 0.12109 0.71875 0.18359 0.23828 0.0625 0.44922 0.13672 0.68359 0.20703 3.6406 1.1445 8.0586 2.5625 13.418 4.3242 6.9844 2.332 17.016 5.8945 21.887 7.5469-5.0508-0.30859-10.133-0.61719-15.234-0.92969-2.1484-0.10156-5.5078-0.30469-9.8984-0.5625-1.0977-0.066406-2.2578-0.13672-3.4766-0.20703-0.60938-0.035156-1.2344-0.074219-1.875-0.11328-0.32031-0.019531-0.64453-0.039062-0.96875-0.058594-0.16406-0.011718-0.32812-0.019531-0.49219-0.03125l-0.046875-0.003906-0.23828-0.039062c-2.7227-0.4375-5.6719-0.91406-8.8164-1.4219-1.6523 0.058594-3.3633 0.11719-5.1133 0.17578-0.41797 0.57031-0.83984 1.1484-1.2656 1.7305-0.17578-0.007812-0.35156-0.019531-0.53125-0.027343-0.59766-0.03125-1.1992-0.058594-1.8125-0.082031-1.2305-0.035157-2.4648-0.066407-3.8398 0.011718l-0.52734 0.039063-0.65234 0.078125c-0.57031 0.10938-1.1328 0.27734-1.6562 0.52734-1.0117 0.59375-1.6914 1.6445-2.0078 2.8125-0.12891 0.46094-0.19922 0.88672-0.24219 1.3086-0.019532 0.16406-0.042969 0.53516-0.042969 0.82031 0 0.15234 0 0.30078 0.007813 0.45312l0.007812 0.22656c-0.003906 0.078125 0.046875 0.14062 0.070312 0.21484 0.10547 0.27734 0.24219 0.55859 0.36719 0.82812l0.20703 0.4375 0.12109 0.25781c-0.078125 0.48828-0.16016 0.97656-0.24219 1.4688l-0.027344 0.67969-0.011719 0.33984-0.011719 0.25781c0 0.027344 0.035156 0.042969 0.050782 0.066406 0.32031 0.33594 0.62109 0.67188 0.97656 0.98828 0.34766 0.32031 0.75 0.59766 1.1523 0.87109 0.097656 0.0625 0.22266 0.13672 0.32031 0.19531 0.070313 0.042969 0.14062 0.085938 0.21484 0.12109 0.14453 0.078125 0.28906 0.16016 0.44141 0.23047 0.59766 0.29297 1.2305 0.52734 1.8867 0.69531 0.34766 0.089844 0.62891 0.14062 0.91016 0.19531l0.83984 0.14062c0.55469 0.085938 1.1055 0.15625 1.6523 0.22266 0.54688 0.0625 1.0938 0.12109 1.6445 0.17188 0.47656 0.039062 0.95703 0.078125 1.4375 0.11719 3.3047 0.91016 6.6914 1.8438 10.133 2.793-1.6289 0.050781-3.2578 0.10156-4.8945 0.15234l-6.0586 0.1875-1.7383 0.054687c-0.28906 0.039063-0.53516 0.14062-0.80469 0.20703l-0.39453 0.11328c-0.125 0.046875-0.28516 0.039062-0.35547 0.1875-0.74609 0.84375-1.1992 2.0039-1.3047 3.2383-0.039062 0.58984 0 1.3516 0.09375 1.7344 0.085938 0.47266 0.20312 0.87891 0.36719 1.3398 0.10156 0.26953 0.27734 0.55078 0.41406 0.82422 0.0625 0.14453 0.15625 0.26953 0.26172 0.38672 0.10156 0.12109 0.20312 0.23828 0.30859 0.35547 0.19141 0.23828 0.48828 0.42578 0.71094 0.59766 0.12109 0.09375 0.23828 0.16406 0.35156 0.22266l0.34766 0.18359c0.91797 0.44141 1.75 0.625 2.5273 0.75391 1.543 0.23047 2.9492 0.24609 4.2891 0.27344 0.67188 0.011719 1.3164 0.019531 1.9414 0.042969 0.65625 0.035156 1.3086 0.070312 1.9648 0.10547 2.6406 0.11328 5.2578 0.22266 7.8516 0.33594 2.5664 0.12891 5.1328 0.26562 7.5117 0.55078 0.29687 0.035156 0.56641 0.082032 0.85156 0.125 0.14844 0.019532 0.25781 0.046875 0.375 0.074219l0.33984 0.074219c0.011718 0.007812 0.027344 0.015625 0.042968 0.019531 0.050782-0.058594-0.097656 0.25391 0.3125-0.54688l0.11719-0.20312c-0.74609 1.5039-0.17578 0.42969-0.32812 0.76953l0.10156 0.042969 0.20703 0.082031c0.14062 0.054688 0.28125 0.10156 0.42188 0.14844 0.46094 0.11328 0.91016 0.19531 1.2734 0.22266 1.5117 0.14453 2.7695 0.070312 4.043 0.019531 2.457-0.14844 4.875-0.29688 7.2422-0.44141 1.1641-0.058594 2.3125-0.10156 3.4336-0.11328 1.1172-0.015625 2.2773-0.003906 3.3633 0.019531 0.54688 0.011719 1.082 0.035156 1.5547 0.074219 0.24609 0.019531 0.42969 0.046875 0.61328 0.078125l0.33203 0.074219c0.15234 0.035156 0.3125 0.070312 0.48828 0.10547 0.69922 0.13281 1.2969 0.17969 1.875 0.22656 0.27344 0.027343 0.61719 0.035156 0.94922 0.042969 0.33594 0.015624 0.65625-0.019532 0.98047-0.027344 2.5938-0.20312 4.7539-1.1016 6.6406-1.8633 0.94141-0.38672 1.8203-0.75391 2.6055-1 0.12109-0.046874 0.13672-0.023437 0.20312-0.039062 0.054688-0.007812 0.10547-0.015625 0.16016-0.03125 0.015625-0.007812 0.066406-0.011719 0.12109-0.015625l0.14844-0.007813 0.59375-0.039062 0.33203-0.003906c0.21875-0.003906 0.4375-0.003906 0.65625-0.007813 3.5859 0.054688 7.043 0.35547 10.094 0.58203 3.0625 0.23828 5.7773 0.46094 8.1016 0.60938 1.1211 0.0625 2.2344 0.12109 3.4023 0.13672h1.0078c0.3125-0.007812 0.625-0.015625 0.9375-0.023437 0.62891-0.015625 1.2578-0.03125 1.8945-0.046875 1.2695-0.03125 2.5547-0.0625 3.8477-0.097656 2.5898-0.066407 5.2227-0.13672 7.8789-0.20313 5.3086-0.14844 10.703-0.29687 16-0.44141 1.1172-0.035156 2.2227-0.070312 3.3281-0.10156 0.007813 0.015625 0.015625 0.03125 0.027344 0.050781 0.22266 0.19141 0.44922 0.375 0.69922 0.55078l-0.63672-0.44531c0.11328 0.17969 0.25 0.37109 0.41016 0.57031 0.66797 0.65625 1.2656 1.3516 1.6758 1.6328 3.2734 2.3516 6.6016 4.6523 9.9883 6.8438 0.058593-0.074219-0.070313-0.27344 0.23438-0.12891 0.9375 0.48828 1.4766 1.2109 2.418 1.6992l0.14453-0.089843c0.65234 0.49219 1.3359 1.0078 2.0312 1.5312 1.375 0.82031 2.7578 1.6133 4.1602 2.375-0.007812-0.070313 0.003906-0.125 0.14844-0.0625 0.58984 0.30078 1.3672 0.80078 2.1875 1.2891 0.12891 0.0625 0.25781 0.12109 0.38281 0.17969 0.11328 0.023437 0.16406-0.011719 0.19531-0.03125 0.37891 0.21094 0.71484 0.40625 1.0195 0.59375 0.52734 0.25391 1.0938 0.48047 1.6523 0.71484 0.28516 0.11328 0.54687 0.23828 0.84766 0.34375l0.91016 0.30859 0.91016 0.30078 0.90234 0.22266c0.60156 0.14453 1.207 0.3125 1.8125 0.40625 2.418 0.49609 4.8789 0.75781 7.4297 1.0234 1.0898 0.027344 2.1758 0.066406 3.2148 0.13281 1.1211 0.11719 2.457 0.32813 3.6758 0.50391-1.5117 0.15625-3.0234 0.32031-4.5273 0.48438-1.2227 0.13281-2.4531 0.27344-3.6406 0.38672l-0.4375 0.039063-0.39844 0.03125c-0.23438 0.011719-0.44141 0.015625-0.64453 0-0.20312-0.011719-0.39062-0.039063-0.5625-0.074219-0.042969-0.007812-0.085937-0.019531-0.12109-0.03125-0.074219-0.015625-0.14453-0.042968-0.21875-0.066406l-0.22266-0.023438c-0.30078-0.027343-0.57422-0.09375-0.83984-0.13672l-0.52734-0.09375-0.55469-0.09375c-0.84766 0.28906-1.6758 0.72656-2.3477 1.3398-0.68359 0.60156-1.1641 1.4297-1.3359 2.3164-0.074218 0.44531-0.078125 0.90625-0.007812 1.3867l0.12891 1.0664c0.054688 0.36328 0.125 0.78125 0.25781 1.2422-0.24219 0.019532-0.48437 0.042969-0.72656 0.058594-0.46484 0.03125-0.89844 0.046875-1.3672 0.058594l-1.4219 0.019531c-1.9219 0.011719-3.8672-0.011719-5.8164-0.035156-0.035156 0.09375 0.91797 0.19922-0.5625 0.22656-0.68359 0-1.3438-0.003906-1.9922-0.003906-0.23438-0.003906-0.48828-0.027344-0.74219-0.058594-0.12891-0.015625-0.25781-0.035156-0.38672-0.058593l-0.39453-0.074219c-0.14844-0.027344-0.29297-0.066407-0.44141-0.10156-0.32422 0.042969-0.64844 0.085938-0.96875 0.12891-0.28906 0.03125-0.62109 0.10938-0.96484 0.16797-0.38672 0.27734-0.76562 0.57422-1.1133 0.91797-0.17578 0.16406-0.35156 0.35156-0.49609 0.52344-0.14062 0.16797-0.23047 0.27344-0.38672 0.49609-0.57031 0.8125-0.91406 1.7773-0.83984 2.7734 0.019531 0.1875 0.035156 0.37109 0.070312 0.57422 0.023438 0.15234 0.042969 0.26953 0.070313 0.40234 0.050781 0.26172 0.11328 0.51562 0.1875 0.76953 0.14844 0.50781 0.34375 1.0117 0.60547 1.5156 0.26172 0.50391 0.59375 1.0117 1.043 1.4961l0.035157 0.035157c-0.28125 0.015624-0.5625 0.035156-0.85938 0.046874-0.83594 0.039063-1.6445 0.042969-2.6172 0.03125-0.29688 0-0.59375-0.003906-0.89844-0.003906-0.22656 0-0.45313 0-0.68359-0.003906-0.22656 0.003906-0.46875-0.015625-0.66797 0.027344-0.21094 0.03125-0.42188 0.0625-0.63281 0.09375l-0.48047 0.070312c-0.023438 0.007813-0.058594 0-0.074219 0.019532l-0.046875 0.070312c-0.24219 0.37109-0.49609 0.72656-0.71875 1.125-0.44141 0.78906-0.78516 1.7188-0.89844 2.6758-0.097656 0.80469-0.027343 1.7344 0.33984 2.6133 0.097656 0.26172 0.25 0.49609 0.39062 0.73438l0.054688 0.089843 0.035156 0.050781 0.066406 0.09375 0.12891 0.1875c0.18359 0.26563 0.36719 0.52734 0.55078 0.78906 0.33203 0.41406 0.48047 0.51172 0.55859 0.5625 0.33203 0.43359 0.75391 0.89844 1.2383 1.2852 0.48047 0.39062 0.99219 0.6875 1.4609 0.91016 0.47266 0.22266 0.90625 0.39453 1.3594 0.54297l0.33594 0.10156 0.30078 0.082031 0.082031 0.023438c0.015625 0.003906 0.027344 0.007812 0.035156 0.007812 0.0625 0.003906 0.13672 0 0.20313 0-0.015626 0.066406-0.019532 0.14062-0.011719 0.23047l0.015625 0.125c0.019531 0.23047 0.066406 0.46484 0.11719 0.69922 0.10938 0.46875 0.27344 0.94922 0.52344 1.4023 0.12109 0.23047 0.25781 0.44531 0.41797 0.65234 0.14844 0.21484 0.32812 0.39844 0.50781 0.58203l0.13672 0.13672 0.070312 0.066406 0.13672 0.12891c0.089844 0.085937 0.17578 0.17578 0.26172 0.26562 0.17188 0.1875 0.33984 0.38672 0.55859 0.65234 0.21875 0.25781 0.50781 0.625 0.98828 1 0.44531 0.35156 1.0156 0.60938 1.4727 0.73828 0.24609 0.082031 0.44531 0.10937 0.66797 0.16406 0.19922 0.03125 0.41016 0.070312 0.60156 0.089844 0.77734 0.085937 1.4492 0.097656 2.1211 0.10938s1.332 0.003906 1.9961 0c1.3203-0.015625 2.6367-0.054688 3.9648-0.10156 0.66406-0.027344 1.3281-0.050781 1.9961-0.078125l0.50391-0.023437c0.10156-0.003906 0.12891-0.007813 0.22266-0.007813l0.25-0.003906 0.99609-0.015625c1.332-0.019531 2.6719-0.042969 4.0273-0.0625 0.33984-0.003906 0.67969-0.011719 1.0195-0.015625 0.35547-0.007813 0.64453-0.003906 1.082-0.023437 0.80078-0.042969 1.5117-0.14453 2.2305-0.25781 0.71484-0.11328 1.418-0.24609 2.1211-0.38672 0.35156-0.074218 0.70312-0.14844 1.0547-0.22266l0.52734-0.11719 0.22266-0.054687c0.46484 0.070313 0.93359 0.13672 1.4062 0.20703 0.57812 0.078125 1.1602 0.14453 1.7539 0.19922 0.29688 0.027344 0.59766 0.050781 0.89844 0.066406 0.29688 0.019531 0.61328 0.03125 0.95313 0.03125 0.64062-0.003906 1.2422-0.039062 1.8438-0.085937 1.1992-0.09375 2.3867-0.21875 3.5859-0.36328 0.59766-0.074218 1.1992-0.15234 1.8008-0.22656l0.45312-0.0625c0.16797-0.023438 0.11328-0.019531 0.32031-0.027344l0.91016-0.035156c4.7695-0.1875 9.7109-0.37891 14.746-0.57422 0.058594 0.027344 0.12891 0.0625 0.19922 0.09375 1.7891 0.84375 3.5781 1.6875 5.3516 2.5273l0.27734 0.65625 0.39453 0.97266c0.19141 0.46484 0.38281 0.92969 0.57031 1.3906-0.32422 0.25391-0.65234 0.50781-0.97266 0.76172-0.47656 0.36328-0.94922 0.72266-1.418 1.082-0.33984 0.25391-0.6875 0.51562-1.0391 0.77734-0.40234 0.28516-0.57812 0.49219-0.91797 0.54297-0.87109 0.25-1.7578 0.50391-2.6641 0.76562-1.8086 0.51172-3.6719 1.0391-5.5312 1.5625-0.97656 0.29688-1.9102 0.67969-2.793 1.1211-0.87891 0.45703-1.7227 0.94922-2.5117 1.4844-1.582 1.0703-2.9922 2.2344-4.2227 3.4258 0.28906-0.089844-0.26953 0.58594-1.0547 1.6719-0.39453 0.54688-0.86719 1.1914-1.3125 1.9258-0.22656 0.36328-0.44141 0.75781-0.60937 1.1836-0.17578 0.44141-0.22266 0.88281-0.3125 1.3164-0.078126 0.4375-0.12891 0.88672-0.0625 1.3086 0.0625 0.42188 0.24219 0.79688 0.44531 1.1172 0.20703 0.32812 0.44531 0.57812 0.66797 0.84766 0.21484 0.26562 0.39844 0.52344 0.53516 0.76172 0.14062 0.23438 0.24609 0.44141 0.33594 0.58203 0.085938 0.13672 0.15625 0.21094 0.21094 0.24609 0.10547 0.0625 0.10547-0.039062 0.046875-0.36328 0.17969 0.59375 0.72266 0.96484 1.418 1.2148 0.60938 0.20703 1.4805 0.11328 2.2656-0.023438 0.80078-0.14453 1.5781-0.36328 2.2852-0.58984 0.35547-0.11328 0.6875-0.23437 1.0039-0.34766 0.15625-0.058594 0.30469-0.11719 0.44922-0.17188 0.14062-0.058593 0.22656-0.089843 0.32812-0.14062 0.19531-0.15625 0.375-0.30078 0.53516-0.42969 0.17969-0.14062 0.33594-0.26562 0.46875-0.37109 0.26562-0.21094 0.42578-0.34766 0.45703-0.39844 0.14844-0.24609 0.42188-0.57813 0.92578-1.043 0.25391-0.23047 0.55859-0.49219 0.95312-0.78516 0.38281-0.28906 0.80469-0.58984 1.3125-0.94531 2.0195-1.4062 5.2188-3.4531 10.262-6.4766 0.5-0.28906 1.0312-0.59375 1.582-0.91406 0.27734-0.15625 0.55859-0.31641 0.84375-0.48047l0.1875-0.10547 0.14844-0.09375 0.45703-0.28125c1.2148-0.73438 2.4844-1.3945 3.7148-1.9531 2.4453-1.1367 4.7773-1.7344 5.6836-1.9297 0.62109-0.15625 0.5625-0.18359 0.16016-0.14844-0.18359 0.011718-0.53125 0.070312-0.89453 0.12891-0.375 0.054687-0.76953 0.16016-1.1836 0.24609-1.6094 0.39453-3.1133 0.97656-1.8555 0.38281-1.207 0.45312-2.3555 0.97656-3.4727 1.5508-0.55859 0.28516-1.1055 0.58594-1.6484 0.89453l-0.8125 0.48047-0.41016 0.25391-0.12109 0.078124-0.14844 0.082032c-2.0391 1.1523-4.0781 2.3008-6.1094 3.4453-2.0312 1.1484-4.0586 2.293-6.082 3.4375-1.0195 0.58984-1.9844 1.0977-3.1211 1.7969-0.53906 0.33594-1.0547 0.68359-1.5625 1.0391l-0.75391 0.54297-0.375 0.28125-0.089844 0.070313-0.29297 0.10938-0.63281 0.22266c-0.42578 0.14844-0.84766 0.27344-1.2695 0.39062-0.82422 0.22266-1.6836 0.39453-2.2734 0.40234-0.0625-0.003906-0.125-0.003906-0.1875-0.003906-0.070312 0.003906-0.074218-0.015625-0.11328-0.015625h-0.035156c-0.003907 0-0.015625-0.003906-0.035157-0.015625-0.15234-0.074219-0.20312-0.10156-0.21875-0.10938l-0.035156-0.082032c-0.078125-0.19922-0.21875-0.54687-0.38281-0.86719-0.30859-0.64062-0.89062-1.3555-0.9375-1.4453-0.078125-0.11328-0.10938-0.19141-0.14062-0.24609l-0.019531-0.0625c0-0.003907-0.003907-0.027344 0.007812-0.11719 0.007812-0.085937 0.046875-0.25391 0.09375-0.44922l0.082031-0.32812 0.046875-0.18359 0.035156-0.14062 0.007813-0.023438v-0.003906h0.003906c0-0.003906 0-0.003906 0.003907-0.011719 0.003906 0 0.003906 0 0 0v-0.003906c0.027343-0.046875 0.023437-0.066406 0.066406-0.14062 0.125-0.24219 0.35156-0.58594 0.59766-0.92188 0.49609-0.67578 1.0977-1.3828 1.707-2.0469 0.53906-0.58594 1.2461-1.2305 1.9258-1.8125 1.3789-1.1797 2.8633-2.2227 4.3867-3.0312 0.76172-0.38672 1.5312-0.72266 2.293-0.95703l2.8125-0.8125c1.9883-0.57031 3.9766-1.1445 5.9648-1.7188l0.17578-0.050782 0.089844-0.027343 0.37109-0.27344 0.46484-0.34375 0.59375-0.44141 1.1914-0.88281c1.2852-0.94922 2.5664-1.8984 3.8555-2.8477-0.80859-2.1523-1.6289-4.3281-2.4492-6.5039-2.4375-1.2383-4.9102-2.4961-7.3828-3.7578-5.293 0.125-10.66 0.25-16.066 0.375-0.14062 0.007812-0.29297 0.011718-0.45703 0.019531-0.11328 0.003906-0.23047 0.007812-0.35156 0.011719-0.085938 0.003906-0.16797 0.019531-0.25781 0.03125l-0.13672 0.019531c-0.35156 0.046875-0.74219 0.097656-1.168 0.15234-0.85156 0.10547-1.8477 0.21875-2.957 0.32422-0.55469 0.050781-1.1406 0.10156-1.7383 0.13672-0.30078 0.019531-0.60156 0.03125-0.89453 0.039062-0.14062 0-0.30469 0.007813-0.42578 0.003907-0.13281-0.003907-0.25391 0-0.41797-0.015625-0.625-0.035156-1.3008-0.10156-2.0039-0.19141-0.35156-0.050782-0.71484-0.10156-1.0781-0.15234-0.18359-0.03125-0.36719-0.058594-0.55078-0.089844-0.33594-0.0625-0.67188-0.125-1.0117-0.1875-0.39844 0.085938-0.80469 0.17578-1.2148 0.26562-0.25781 0.050781-0.51562 0.10547-0.77734 0.16016-0.52344 0.10547-1.0586 0.20312-1.5977 0.29688-0.53906 0.089844-1.0859 0.17969-1.6211 0.24219-0.26563 0.03125-0.53516 0.0625-0.78125 0.078125-0.27344 0.023437-0.41406 0.023437-0.76563 0.023437-1.2266 0.003906-2.4922 0.011719-3.7891 0.015625-0.64844 0.003907-1.3047 0.003907-1.9688 0.007813-0.33203 0-0.66406 0.003906-1 0.003906-0.33984 0.011719-0.68359 0.019531-1.0312 0.03125-1.3359 0.039062-2.6992 0.074219-4.082 0.089844-1.375 0.011718-2.793 0.023437-4.1328-0.039063-0.33203-0.015625-0.65625-0.035156-0.92969-0.070312-0.28125-0.03125-0.52734-0.078125-0.66016-0.125-0.13672-0.046875-0.125-0.046875-0.17187-0.082031-0.042969-0.027344-0.23828-0.25781-0.48828-0.57422-0.25391-0.31641-0.5625-0.66797-0.88672-0.99609-0.15234-0.14844-0.38281-0.36719-0.36719-0.36328-0.050781-0.039063-0.082031-0.089844-0.11719-0.13672-0.058593-0.10547-0.12891-0.20703-0.16406-0.36719-0.019531-0.078126-0.039062-0.16016-0.050781-0.25391l-0.007813-0.070312-0.007812-0.15234c-0.003906-0.0625 0.007812-0.097656 0.011718-0.14453l0.0625-0.55078c-0.55469-0.76172-0.89453-1.2578-1.0938-1.5859-0.26562-0.26953-0.67187-0.69922-1.293-1.4219-0.29297-0.011719-0.56641-0.054688-0.83594-0.10156-0.070312-0.007813-0.13672-0.027344-0.20312-0.039063l-0.13281-0.035156c-0.054688-0.011719-0.10547-0.027344-0.16016-0.042969-0.21484-0.058594-0.42578-0.13281-0.63672-0.21484-0.42969-0.16797-0.75781-0.33984-1-0.53125-0.24219-0.18359-0.47266-0.44531-0.76953-0.85938-0.14453-0.19922-0.30078-0.42578-0.45703-0.66406l-0.24219-0.36328-0.125-0.18359-0.03125-0.046875-0.011719-0.035157c-0.058594-0.10937-0.10547-0.21484-0.089844-0.47266 0.011719-0.082031 0.003907-0.085937 0.011719-0.10547 0.003906-0.019532 0.007812-0.039063 0.011719-0.054688 0.011719-0.039062 0.023437-0.074219 0.039062-0.10938 0.019531-0.027344 0.027344-0.085937 0.066407-0.085937h0.11719l1.2422-0.003907c2.4688-0.003906 4.8281-0.19531 7.1602-0.40625l0.875-0.085937c0.078125-0.015625 0.43359-0.015625 0.71094-0.027344 0.57422-0.019531 1.1484-0.039062 1.7188-0.058594 1.1445-0.046875 2.2773-0.09375 3.4023-0.14062 1.125-0.054687 2.2422-0.11328 3.3516-0.18359 1.1172-0.078126 2.1992-0.14844 3.375-0.30469 0.30859-0.042969 0.58984-0.082031 1.0273-0.1875 0.12109-0.035156 0.23438-0.058594 0.46484-0.15234 0.066406-0.03125 0.097656-0.039062 0.19531-0.089844 0.10547-0.054687 0.20703-0.11719 0.30469-0.18359 0.10938-0.078125 0.21484-0.16797 0.30859-0.26562 0.046875-0.050782 0.09375-0.10156 0.13672-0.15234 0.023438-0.027344 0.11719-0.14844 0.19922-0.29297 0.16016-0.27734 0.25781-0.60547 0.27734-0.91016 0.027344-0.35938-0.054687-0.78906-0.22656-1.125-0.10547-0.20312-0.14453-0.24609-0.19141-0.3125-0.050781-0.066406-0.10547-0.13281-0.16406-0.19531s-0.12109-0.12109-0.18359-0.17578c-0.0625-0.054687-0.14453-0.11328-0.15234-0.12109-0.10938-0.074219-0.22656-0.14453-0.34375-0.20313-0.074218-0.035156-0.125-0.054687-0.19141-0.082031l-0.09375-0.035156-0.058594-0.019531c-0.17578-0.058594-0.28516-0.082032-0.39453-0.10938-0.40234-0.085938-0.68359-0.12109-0.98047-0.16016-0.27734-0.03125-0.55859-0.058593-0.83594-0.089843-1.0781-0.10156-2.1055-0.16797-3.1133-0.23438-1.9961-0.125-3.9141-0.24609-5.7461-0.36328-0.90625-0.0625-1.7891-0.12891-2.6211-0.21094-0.41406-0.039063-0.82031-0.085937-1.1914-0.14062-0.18359-0.027344-0.35938-0.054688-0.50391-0.082031l-0.097657-0.019531-0.015625-0.003907c-0.015625-0.003906-0.027344-0.007812-0.039062-0.015625-0.023438-0.007812-0.19531-0.12109-0.31641-0.26562-0.13281-0.14844-0.26953-0.34766-0.38672-0.57812-0.11719-0.23047-0.21484-0.48438-0.29297-0.73828-0.039062-0.12891-0.074219-0.25781-0.097656-0.38281-0.011719-0.054687-0.03125-0.14062-0.03125-0.16797 0 0-0.003906-0.015625-0.003906-0.027344-0.007813-0.074219 0.027343-0.15234 0.0625-0.19141 0.027343-0.039063 0.09375-0.11719 0.097656-0.125l0.03125-0.035156c0.023437-0.023438 0.042968-0.039063 0.066406-0.058594 0.023438-0.011719 0.039062-0.042969 0.0625-0.027344 0.027344 0.007812 0.050781 0.011719 0.070312 0.015625l0.039063 0.007813c0.074219 0.011718 0.14844 0.023437 0.21875 0.035156 0.22266 0.03125 0.42969 0.058594 0.63672 0.082031 0.39844 0.042969 0.8125 0.0625 1.1562 0.0625 0.60938 0.003906 1.2188 0.007813 1.8242 0.011719 1.9023 0.027344 3.875 0.050781 5.9023 0.042968 1.0195-0.007812 2.0352-0.011718 3.1406-0.070312 1.0742-0.0625 2.1172-0.16016 3.1836-0.28906 0.53516-0.066407 1.0703-0.14063 1.6328-0.23828 0.28516-0.050781 0.57031-0.10547 0.90625-0.19141 0.17578-0.046875 0.33984-0.089844 0.60547-0.1875 0.11328-0.042969 0.29297-0.11328 0.53906-0.26172 0.089843-0.058593 0.17969-0.12109 0.26562-0.19141l0.125-0.10547c0.082031-0.078125 0.18359-0.19141 0.26172-0.29688 0.082032-0.10938 0.15625-0.23047 0.21875-0.35156 0.03125-0.0625 0.058594-0.12109 0.082032-0.18359 0.035156-0.09375 0.074218-0.22266 0.097656-0.33984 0.050781-0.24609 0.058594-0.51953 0.023438-0.76953-0.019532-0.125-0.046876-0.24609-0.078126-0.35938-0.03125-0.089844-0.054687-0.14453-0.085937-0.21875-0.125-0.28125-0.32422-0.55078-0.53906-0.75-0.09375-0.082031-0.18359-0.14844-0.28125-0.21484l-0.14844-0.09375c-0.050781-0.03125-0.10938-0.0625-0.12109-0.066406l-0.14844-0.066406c-0.23438-0.10156-0.32031-0.11719-0.45703-0.16016-0.12891-0.039062-0.20312-0.050781-0.30859-0.078124l-0.066407-0.015626-0.019531-0.007812-0.042969-0.011719c-0.12109-0.027343-0.19922-0.058593-0.23437-0.078125-0.058594-0.03125-0.11328-0.070312-0.14844-0.13672-0.046875-0.089844-0.14453-0.39453-0.19922-0.79688-0.027343-0.1875-0.054687-0.37109-0.078125-0.55469 0-0.15234 0.14062-0.25391 0.26953-0.31641 0.035156-0.027344 0.058593 0.011719 0.089843 0.015625 0.03125 0.011718 0.0625 0.019531 0.09375 0.027344l0.12891 0.03125c0.070312 0.019531 0.14062 0.03125 0.21094 0.042968 0.14062 0.03125 0.27734 0.050782 0.41406 0.070313 0.55078 0.078125 1.0781 0.097656 1.5859 0.078125 0.51953-0.019532 0.92578-0.070313 1.3359-0.11328 0.40234-0.046874 0.79688-0.09375 1.1875-0.14062 1.5391-0.20313 3.0078-0.39844 4.3867-0.57813 2.125-0.30469 4.2656-0.61719 6.4062-0.89453 1.0703-0.14062 2.1367-0.26562 3.1992-0.37891 1.082-0.11328 2.0352-0.17578 3.0352-0.12891-0.92578-0.125-1.7891-0.15234-2.707-0.13672-0.90625 0.007812-1.7734 0.039062-2.5781 0.0625 1.0938-0.09375 2.1914-0.17578 3.2227-0.22266 0.99609-0.046875 1.9453 0.003906 2.8047 0.11328 1.7148 0.22266 3.1289 0.67969 3.9688 0.87109 1.1406 0.32031 2.1172 0.55078 2.8984 0.67969 0.78125 0.125 1.3789 0.17188 1.7695 0.18359 0.79297 0.023438 0.89844-0.042969 0.59766-0.14062-0.30078-0.10547-1.0234-0.24219-1.8906-0.48438-0.86328-0.23828-1.8398-0.58984-2.6836-0.94141-1.2305-0.45312-0.97656-0.48438-0.90625-0.57031 0.035156-0.042969 0.027344-0.097656-0.23047-0.22656-0.26172-0.125-0.76953-0.33594-1.7734-0.60938 2.9102 0.6875 4.2227 1.418 7.1367 1.7461 0.085938-0.03125-0.43359-0.089844-1.207-0.22266-0.77734-0.13281-1.8125-0.39062-2.7969-0.68359-1.957-0.61719-3.8086-1.0273-2.7617-0.91016 1.4062 0.36328 2.832 0.86328 4.2812 1.2109 0.72656 0.17188 1.457 0.29688 2.1875 0.38281 0.74219 0.078125 1.4844 0.14062 2.2188 0.19141-0.25-0.070313-1.0117-0.15234-1.9844-0.28125-0.96875-0.12109-2.1211-0.35938-3.2422-0.69531-1.1172-0.32812-2.2148-0.69141-3.0195-0.91406-0.80469-0.23047-1.3086-0.34375-1.1797-0.375 0.41016 0.070313 1.1367 0.24219 1.9766 0.50781 0.83984 0.26172 1.7852 0.59766 2.6953 0.85938 0.91016 0.26953 1.7969 0.44922 2.5 0.53125 0.71484 0.074219 1.2344 0.089844 1.3828 0.039062 0.058594-0.023437-0.64453-0.085937-1.5156-0.20703-0.85547-0.11328-1.8906-0.35938-2.582-0.55469 1.0742 0.28906 2.0625 0.46875 3.0156 0.55469 0.96094 0.09375 1.8633 0.13672 2.6641 0.17188 1.6055 0.0625 2.8203 0.066406 3.4922 0.039063 1.3516-0.066407 0.52344-0.18359-3.5664-0.55859 2.832 0.19531 6.8945 0.42969 9.9219 0.44141-0.003906 0-0.015625-0.003906-0.023437-0.003906-1.5078-0.03125-4.1211-0.15234-5.5117-0.21094 1.7148 0.066406 3.4414 0.11719 5.1602 0.15234-0.27344-0.039062-0.57812-0.078125-0.89844-0.125-1.2852-0.054687-2.5742-0.11328-3.9141-0.17188 1.1406 0.035156 2.2812 0.070313 3.4258 0.10938-0.85156-0.10156-1.8359-0.20703-2.9102-0.32031-2.0273-0.15234-4.0117-0.33984-5.7227-0.54688-0.85938-0.097656-1.6484-0.21094-2.3164-0.31641-0.63672-0.10938-1.1992-0.24219-1.6797-0.35938-1.0742-0.26172-2.1992-0.65625-3.4688-1.0156-1.2617-0.36328-2.6484-0.66016-4.0469-0.76953-0.34766-0.035156-0.69922-0.050781-1.0469-0.058594-0.34766-0.015624-0.69531-0.007812-1.0391 0-0.35547 0.003907-0.67188 0.023438-0.99219 0.039063l-0.95312 0.058594c-1.2617 0.085937-2.5078 0.19141-3.7461 0.30859-0.28516 0.027344-0.57031 0.058594-0.85547 0.085938 0.98047-0.1875 2.5273-0.27344 2.0703-0.69922 0.98438 0.10938 2.4688 0.25781 2.5547 0.10938 0.26953-0.44141 1.0742-0.89453 3.7031-0.98438 1.0234 0.011719 2.5859 0.29688 2.9375 0.21875 0.57031-0.11719-1.2891-0.39844-0.71875-0.51172-3.7773-0.30859-7.5-0.625-11.207-1.0039-3.7031-0.38672-7.4141-0.83984-11.086-1.5898-0.31641-0.039062-0.85547-0.125-1.5664-0.25-0.71094-0.125-1.5625-0.34375-2.543-0.56641-0.46875-0.14062-0.96875-0.28906-1.4883-0.44141-0.12891-0.039062-0.26172-0.078125-0.39453-0.11719-0.12109-0.046874-0.24609-0.097656-0.37109-0.14453-0.25-0.097656-0.50391-0.19531-0.76172-0.29688-1.043-0.42188-2.1914-1.0273-3.3359-1.6328-4.5898-2.4844-9.2852-5.4922-11.164-6.75l-0.30859-0.20703c-2.0664-1.3594-4.6055-2.9727-6.4688-3.957-0.87109-0.42578-1.7734-0.83594-2.668-1.2578 0.32813 0.32812 0.625 0.63672 0.87891 0.91016-0.82031-0.55859-1.6367-1.125-2.0078-1.2539-0.007812-0.003907-0.011718-0.007813-0.019531-0.011719 0.035156 0 0.066406-0.003906 0.10156-0.003906 2.6641-0.11328 5.2617-0.40625 7.7383-0.76562 2.4727-0.35547 4.832-0.78906 7.0039-1.0195 1.0898-0.11328 2.1211-0.17578 3.1133-0.14844 1 0.027344 1.9961 0.13281 2.9922 0.27344 1.832 0.24609 3.75 0.65625 5.8867 0.79297 1.0664 0.0625 2.1992 0.039063 3.3477-0.18359 0.28516-0.066406 0.57812-0.125 0.85156-0.20312 0.26953-0.085938 0.53516-0.15625 0.8125-0.25781 0.54688-0.20312 1.1016-0.4375 1.6484-0.78516 0.54297-0.33984 1.0625-0.77734 1.4844-1.2539 0.42188-0.47656 0.73047-0.95312 1.0039-1.3633 0.27344-0.41406 0.50781-0.78906 0.76172-1.1172 0.25-0.32812 0.51953-0.65625 0.79688-0.91406 0.55078-0.52734 1.332-1.0938 2.1016-1.625 0.78516-0.53516 1.5859-1.0625 2.4023-1.5938-1.543 0.91406-3.0664 1.793-4.2656 2.6875-0.5625 0.41797-1.0352 0.90234-1.4766 1.457-0.44141 0.54688-0.84375 1.1914-1.3984 1.8438 0.72656-0.91797 1.168-1.7266 1.7383-2.3711 0.27734-0.33984 0.58594-0.62891 0.88281-0.89062l0.51953-0.40625c0.18359-0.13281 0.36719-0.26562 0.55078-0.39844 1.5039-1.043 3.082-1.9922 4.5-2.8828 2.8594-1.7695 5.1719-3.3438 6.3906-4.332 0.43359-0.32031 0.83203-0.66016 1.2148-0.96484 0.37891-0.31641 0.73438-0.64062 1.0625-0.92578 0.30859-0.26563 0.59766-0.51953 0.87109-0.75781 0.28906-0.23438 0.5625-0.45312 0.82031-0.65625 1.0312-0.82031 1.8125-1.4141 2.3516-1.832 1.082-0.83594 1.1953-1 0.71094-0.74609-0.48828 0.25-1.5742 0.91797-2.8594 1.7656-0.62891 0.43359-1.3359 0.89453-1.9922 1.4062-0.66797 0.49219-1.3633 1.0625-2.0391 1.5117-1.9258 1.3555-1.668 0.99609-1.6562 0.875 0.003907-0.066406-0.0625-0.082032-0.50781 0.16797-0.44141 0.25391-1.2695 0.76953-2.8281 1.7188 2.2109-1.418 3.8398-2.5391 5.3594-3.7812 0.74219-0.62109 1.5039-1.3047 2.3672-1.9492 0.85547-0.66406 1.8008-1.3398 2.8828-2.1055 0.10156-0.11719-0.68359 0.40625-1.8516 1.2578-0.58203 0.42969-1.2617 0.9375-1.9609 1.5156-0.71484 0.57813-1.3828 1.207-2.1172 1.7617-1.4375 1.1289-2.8906 2.0898-3.7773 2.6562-0.89453 0.5625-1.2148 0.73047-0.48438 0.18359 1.0742-0.67188 2.1523-1.3984 3.2188-2.1758 0.53516-0.38672 1.0547-0.80078 1.5742-1.2148 0.51172-0.4375 1.0273-0.87891 1.5469-1.3164 2.1328-1.75 4.3984-3.3008 6.582-4.793-0.40625 0.21875-1.5664 0.95703-3.043 1.9766-0.74219 0.50781-1.5586 1.0898-2.4023 1.7188-0.41797 0.32422-0.85156 0.62891-1.2695 0.98828-0.41016 0.34375-0.82422 0.6875-1.2344 1.0273-1.5898 1.332-3.2852 2.4492-4.5 3.2344-1.2227 0.77734-1.9844 1.2109-1.8359 1.0625 1.1758-0.78906 4.375-2.6562 6.9531-4.8828 1.3789-1.1641 2.7656-2.1094 3.832-2.8984 1.0742-0.76172 1.832-1.3281 2.0117-1.5234 0.125-0.13672-3.2188 2.1094-5.418 3.8906 1.2734-1.0547 2.543-1.9688 3.7109-2.8242 1.4492-1.0391 2.7891-1.9727 3.9844-2.7969 0.86719-0.59766 1.6562-1.1406 2.3594-1.6211 0.035156 0.046874 0.066406 0.097656 0.10547 0.14453 0.36719 0.27344 0.69531 0.61328 0.91797 0.68359 1.7617 0.61328 3.543 1.1953 5.332 1.707 0.027344-0.089844-0.042969-0.20703 0.11719-0.21094 0.49219 0.042969 0.78125 0.45312 1.2773 0.49609 0.023437-0.046875 0.050781-0.09375 0.074219-0.13672 0.34375 0.16406 0.69922 0.35156 1.0664 0.52734 0.71484 0.17578 1.4297 0.33594 2.1484 0.48047-0.003907-0.058594 0-0.11328 0.078124-0.11328 0.30469 0.042969 0.69531 0.20703 1.1094 0.33594 0.066406 0.007812 0.12891 0.015625 0.19141 0.027344 0.054687-0.019532 0.082031-0.066406 0.10156-0.097656 0.1875 0.058593 0.35156 0.11719 0.50391 0.17578 2.1406 0.27734 4.3281 0.51562 6.6875 0.80078 0.51563-0.003906 1.0352-0.007812 1.5156 0.058594 0.69922 0.13281 1.5469 0.47266 2.2109 0.67188 0.042969-0.55078 1.7383-0.35938 1.5625-0.97656 0.44141 0.13281 1.1055 0.33594 1.1797 0.19922 0.22656-0.41406 0.71094-0.83203 1.9648-0.77344 0.48047 0.066406 1.1367 0.44922 1.3242 0.40234 0.29688-0.070312-0.51172-0.48047-0.21875-0.55078-3.3906-1.1094-6.7539-1.832-10.211-2.7969-1.2422-0.09375-9.2148-2.1875-11.227-2.8555-0.0625-0.015625-0.125-0.03125-0.1875-0.042968-1.1055-0.33594-2.4688-0.67188-3.4648-0.73047-0.17188 0-0.34766 0.007812-0.52734 0.015625 0.089843-0.085938 0.046874-0.085938-0.14063 0.003906-0.12891 0.003906-0.25391 0.011719-0.38281 0.019531 3.1445-1.9961 6.4609-4.0586 9.2227-5.793-0.007812 0.003907-0.027344 0.011719-0.039062 0.019532-1.875 1.1523-4.8359 2.9805-7.0234 4.3594 2.1406-1.3633 4.2891-2.7227 6.4492-4.0625-0.43359 0.23047-0.92188 0.49219-1.4336 0.76953-1.3867 0.84375-2.7773 1.6992-4.1875 2.5859 1.1367-0.71875 2.2734-1.4375 3.4141-2.1602-1.3516 0.75-2.8945 1.6289-4.5742 2.6172-1.0352 0.63281-2.0625 1.2578-3.0742 1.8789-0.26953 0.019531-0.35547 0.097656-0.34766 0.21094-4.9688 3.0508-9.4375 5.8789-12.109 8l-1.2227 1.0156c-0.34766 0.29687-0.69922 0.59375-1.0742 0.87891-0.73438 0.57812-1.5195 1.1328-2.3125 1.6797-1.5977 1.0898-3.2734 2.125-4.9727 3.1719l-2.5781 1.6016c-0.86719 0.55078-1.7383 1.1172-2.6484 1.8125-0.23047 0.17969-0.45312 0.34766-0.70703 0.58203l-0.36328 0.33203-0.31641 0.33594c-0.41797 0.44531-0.80469 0.93359-1.1289 1.3906-0.32812 0.45703-0.60547 0.88281-0.83984 1.1992-0.23828 0.32422-0.42187 0.51563-0.62891 0.68359-0.39453 0.32422-1.0273 0.59766-1.8281 0.80078-0.69922 0.17578-1.4766 0.23047-2.3203 0.19141-1.6953-0.074219-3.6133-0.51172-5.6719-0.84766-1.0312-0.16797-2.0977-0.3125-3.1992-0.39063-1.1055-0.078124-2.2422-0.058593-3.3125 0.011719-2.1562 0.14453-4.1719 0.47266-6.1484 0.75781-1.9727 0.28906-3.9062 0.55469-5.8398 0.73438-1.9453 0.18359-3.8125 0.25391-5.8477 0.29297-4.0039 0.097656-8.0039 0.19141-12.004 0.28906-8 0.19922-15.996 0.39844-23.98 0.59766-0.027343 0.046875 0.38281 0.085938 0.47266 0.125 0.042969 0.019532 0.007812 0.039063-0.20703 0.0625-0.22656 0.027344-0.58203 0.039063-1.1836 0.046875-1.9648-0.011719-3.957-0.16797-5.8594-0.31641-1.9219-0.17188-3.7891-0.33594-5.6602-0.50391-1.8789-0.17188-3.7578-0.33984-5.7148-0.46875-0.97656-0.066407-1.9727-0.11719-3.0078-0.14844-0.52344-0.007812-1.0312-0.035156-1.5898-0.019531-0.27344 0.003906-0.55078 0.007812-0.82812 0.015625-0.28906 0.011719-0.60547 0.039063-0.91016 0.0625-0.10938 0.03125-0.22656 0.066406-0.33984 0.10156l-0.46094 0.15625c-0.69141 0.11328-1.0508 0.26562-1.4922 0.41016-0.42578 0.14844-0.82812 0.30469-1.2188 0.45703-0.78516 0.30859-1.5273 0.61328-2.2539 0.88281-1.4492 0.54687-2.8477 0.93359-4.1484 0.99219-0.33203 0.019531-0.625 0.003906-0.96875-0.015625-0.39062-0.03125-0.78125-0.066406-1.1211-0.11719-0.17578-0.023437-0.32422-0.050781-0.47656-0.082031-0.13672-0.027343-0.30469-0.070312-0.55469-0.12891-0.26562-0.058594-0.57031-0.11719-0.83203-0.15234-0.27734-0.039062-0.51562-0.058593-0.76172-0.082031-1.8828-0.12891-3.5234-0.13672-5.3203-0.14062-3.2656 0.054687-6.4609 0.32422-9.5586 0.51953-0.76953 0.046875-1.5391 0.089844-2.2812 0.10938-0.74219 0.023438-1.4727 0.019531-2.0664-0.035156-0.13672-0.015625-0.3125-0.023437-0.39062-0.050781-0.066407-0.011719-0.16016-0.027344-0.1875-0.035156 0 0.003906-0.003907 0.011718-0.011719 0.027343-0.035157 0.089844-0.074219 0.17969-0.11719 0.26562-0.042969 0.089844-0.085937 0.17578-0.13672 0.26172l-0.035156 0.066406-0.019531 0.03125c0.14453-0.28906-0.34766 0.69531 0.31641-0.64453l-0.066406-0.027344c-0.17188-0.070312-0.34766-0.13672-0.52344-0.19922-0.40234-0.14844-0.58594-0.16406-0.83984-0.22266-0.97266-0.20703-1.7617-0.28125-2.5977-0.375-3.2539-0.3125-6.3984-0.43359-9.5508-0.5625-1.5664-0.058593-3.1328-0.11719-4.6953-0.17578l-2.3438-0.11328c-0.84375-0.035157-1.6406-0.039063-2.418-0.050781 0.33203 0.058593 0.46484 0.11719-0.75 0.11328-0.62109-0.015625-1.2734-0.027344-1.8984-0.089844-0.62109-0.058594-1.2578-0.14062-1.7461-0.29297-0.10938-0.039062-0.21875-0.078125-0.32812-0.11719-0.09375-0.042969-0.15234-0.085938-0.23438-0.11719-0.050782-0.046875-0.0625-0.054687-0.082032-0.0625-0.015624-0.019531-0.035156-0.035156-0.046874-0.0625-0.019532-0.039062-0.007813-0.003906-0.050782-0.13672-0.050781-0.12891-0.074218-0.25781-0.10938-0.38281-0.023437-0.12109-0.050781-0.25391-0.058593-0.35547v-0.046875c0.003906-0.050781 0.015624-0.10547 0.035156-0.15234 0.015625-0.050781 0.046875-0.10156 0.10938-0.085937h0.21875c0.44531-0.011719 0.89453-0.023437 1.3477-0.035156 1.8086-0.050781 3.6602-0.10156 5.5312-0.15234 1.1055-0.042969 2.207-0.085937 3.293-0.12891 0.84766-0.058594 1.0664-0.12109 1.2031-0.15625 1.0781-0.03125 2.1211-0.058594 2.9297-0.082031 2.3906-0.23438 4.4258-0.43359 6.3555-0.62109 1.0547-0.11719 2.1094-0.23438 3.2852-0.36328l11.438-1.2656-11.145-2.7461c-3.6211-0.89453-7.2617-1.7539-10.992-2.7031-3.7773-1.0156-7.6641-2.0586-11.762-3.1602-0.53906-0.039062-1.0781-0.078124-1.6211-0.11719-0.48047-0.042969-0.96094-0.089844-1.4414-0.13672-0.96094-0.10156-1.9336-0.22266-2.8438-0.39844-0.39453-0.078125-0.76562-0.19141-1.1406-0.34766-0.1875-0.078124-0.37109-0.16797-0.55078-0.26562l-0.15234-0.085938-0.09375-0.058594c-0.10938-0.085937-0.30859-0.16797-0.22656-0.34375l0.03125-0.23438c0.070313-0.4375 0.14062-0.88281 0.21484-1.3281-0.29688-0.625-0.59375-1.2461-0.89453-1.875-0.054688-0.074218-0.046875-0.16016-0.042969-0.24609 0-0.015624 0.007813-0.15234 0.019531-0.25391 0.007813-0.10938 0.027344-0.21094 0.042969-0.30859 0.015625-0.089843 0.042969-0.21484 0.058594-0.25781 0.007812-0.039062 0.023437-0.085938 0.039062-0.125 0.03125-0.085938 0.078125-0.16406 0.13672-0.23047 0.058594-0.070312 0.14453-0.11328 0.23047-0.14453l0.13672-0.03125 0.26172-0.035156c1.043-0.10547 2.2695-0.10547 3.5078-0.085938 0.625 0.015625 1.2578 0.035156 1.9062 0.066406 0.39062 0.019532 0.78906 0.042969 1.1875 0.066407 0.55859 0.039062 1.1172 0.078125 1.6875 0.11719 0.375-0.51562 0.75-1.0312 1.1484-1.582 0.054688-0.078125 0.11328-0.15625 0.17188-0.23828l-0.027343 0.035156c0.039062-0.054688 0.074218-0.10938 0.11719-0.16797 0.25-0.015625 0.22266-0.019531 1.0195-0.050781 0.57422-0.023438 1.1836-0.050781 1.8555-0.078125 1.9922 0.30859 4.0078 0.61719 6.0508 0.93359 0.52344 0.082031 1.0469 0.16016 1.5742 0.24219l0.78906 0.12109 0.46484 0.074219 0.46875 0.027343c1.0742 0.058594 2.1523 0.11719 3.2383 0.17969 4.3398 0.23828 8.7734 0.48047 13.289 0.72656 9.0586 0.47656 18.438 0.96875 27.996 1.4727 0.10156-0.019531 0.21484-0.042969 0.33203-0.066407 0.11719-0.027343 0.24609-0.03125 0.34375-0.10547l0.023438-0.015625c0.20312-0.11328 0.42578-0.22266 0.65234-0.33203 0.76172-0.44531 1.668-0.75391 2.6172-0.95703l0.76562-0.16406c0.27344-0.054688 0.52734-0.12109 0.78516-0.18359l1.5312-0.38281c2.0312-0.51953 4.0391-1.0625 6.0391-1.6055 4-1.0859 7.957-2.1797 11.84-3.2695 1.4648-0.42578 3-0.78516 4.5703-1.4102 1.5234-0.58984 3.0508-1.2227 4.6055-1.8672 3.1016-1.2969 6.293-2.6289 9.4805-3.9609 6.3633-2.6641 12.695-5.3086 18.207-7.5039-0.47266 0.046875 0.83984-0.625 3.0078-1.5703 0.54297-0.23438 1.1367-0.5 1.7734-0.75 0.63672-0.25391 1.3086-0.53906 2.0156-0.76953 1.4141-0.48438 2.9805-0.86719 4.5-1.2617 6.1094-1.5234 11.816-2.6328 8.9102-2.4258 0.47266-0.082031 0.96094-0.16797 1.4609-0.25391 0.23438-0.074219 0.47266-0.15234 0.71094-0.23047 0.25-0.085937 0.5-0.17188 0.75391-0.26172 1.0117-0.35937 2.043-0.76172 3.0625-1.1953 2.0469-0.85938 4.0469-1.8477 5.7773-2.8398 3.5-1.9531 5.8047-4.0195 5.9883-4.2617 1.0938-1.5156 5.3281-5.8516 20.246-20.676 5.8711-5.7656 15.031-14.484 17.023-16.594 3.1523-3.3086-7.8281 7.2539-4.6758 3.9414-9.2188 8.9844-18.387 17.91-27.668 26.543-1.1562 1.082-2.3281 2.1328-3.4922 3.1914-1.168 1.0352-2.3477 2.0781-3.4922 2.9883-2.3359 1.8164-4.9492 3.3516-7.6758 4.6914-1.3672 0.66406-2.7617 1.2734-4.1797 1.832-0.70703 0.27344-1.418 0.54297-2.1289 0.78516l-0.52734 0.17578-0.19141 0.0625h-0.003906c-0.003906 0-0.011719 0-0.027344 0.003906l-1.1875 0.20703c-3.1523 0.55859-6.2852 1.1523-9.4336 1.8398-0.78906 0.17188-1.5742 0.35156-2.3672 0.54297s-1.5703 0.37891-2.4453 0.66406c-1.6641 0.53125-3.1211 1.1055-4.6328 1.6875-2.9844 1.1719-5.9258 2.3789-8.8633 3.6016-5.8477 2.4648-11.699 4.9336-17.562 7.4023l-4.3867 1.8359c-1.4492 0.59766-2.9531 1.2188-4.3125 1.7227-0.58984 0.23047-1.3867 0.44141-2.1328 0.65234l-2.2852 0.63281c-1.5352 0.41406-3.0703 0.82422-4.6055 1.2383-3.0781 0.81641-6.1641 1.6211-9.2539 2.3984-1.543 0.38672-3.0977 0.77344-4.6133 1.1211l-0.5625 0.125-0.51562 0.10547-0.64844 0.125c-0.23047 0.050781-0.46094 0.10156-0.69141 0.16016-0.46484 0.11719-0.93359 0.26562-1.4102 0.44141-0.23828 0.089844-0.47656 0.19141-0.71875 0.30469-0.12109 0.0625-0.24219 0.11328-0.36719 0.18359l-0.1875 0.10156-0.15234 0.089844-0.007813 0.007812c-0.003906 0.003906-0.007812 0-0.011718 0-3.7773-0.23047-7.582-0.46484-11.398-0.69531-2.9766-1.1211-7.4102-2.7422-4.5977-1.875-7.7617-2.6719-15.484-5.3281-23.184-7.9766-1.9258-0.66016-3.8477-1.3203-5.7695-1.9805l-2.8828-0.98828c-0.53516-0.15234-1.0977-0.32422-1.625-0.44922-0.52344-0.11719-1.0508-0.25-1.5664-0.35547-4.125-0.83984-8.1641-1.3672-12.23-1.8398-4.0586-0.46094-8.1172-0.82812-12.191-1.082-2.0391-0.12109-4.0781-0.23047-6.1328-0.28125-1.0273-0.035157-2.0586-0.035157-3.0977-0.042969-1.0742 0.027344-2.1445 0.039062-3.2148 0.14844-2.1406 0.17969-4.2695 0.51953-6.3438 1.0312-2.0703 0.51172-4.0859 1.168-6.0312 1.8867-1.9453 0.71484-3.8203 1.4922-5.6484 2.1758l-1.3594 0.49219-1.3438 0.43359-0.66406 0.1875-0.69922 0.19141-1.4883 0.39453c-3.9414 1.0781-7.8281 2.2617-11.699 3.5508-3.8672 1.2891-7.7109 2.6797-11.516 4.25-3.8008 1.5898-7.5703 3.3008-11.215 5.6133l-1.3594 0.89062-1.332 1.0352c-0.21875 0.17578-0.45312 0.34375-0.65234 0.52344l-0.59375 0.55078c-0.39062 0.36719-0.80469 0.73047-1.1758 1.1055-1.4922 1.5039-2.9102 3.0391-4.25 4.6172-2.6992 3.1445-5.2227 6.3828-7.6797 9.6797-2.4531 3.3008-4.8281 6.6562-7.125 10.098-1.1484 1.7344-2.2734 3.4453-3.3594 5.3398-0.13281 0.22266-0.27734 0.49219-0.41406 0.76563-0.13281 0.26953-0.29297 0.54687-0.39453 0.8125-0.23828 0.53906-0.43359 1.0703-0.625 1.6016-0.36719 1.0586-0.66406 2.1094-0.92578 3.1602-0.51953 2.1055-0.89844 4.2148-1.1484 6.3672-0.125 1.0781-0.21094 2.168-0.23828 3.293-0.03125 1.1328 0.035157 2.3125 0.16406 3.4102 0.1875 1.5078 0.53125 3.4922 1.1836 5.8945 0.32812 1.2031 0.73438 2.5078 1.293 3.9141 0.28906 0.70313 0.59766 1.4297 1 2.1875 0.1875 0.375 0.42187 0.76563 0.66016 1.1562 0.11328 0.19531 0.3125 0.42969 0.47266 0.64063 0.16797 0.21094 0.35156 0.46094 0.50781 0.60547 0.32422 0.32031 0.66797 0.70312 1 0.98438 0.33594 0.29297 0.67578 0.60938 1.0234 0.89062s0.69531 0.5625 1.0508 0.85156c0.35547 0.27344 0.71875 0.54688 1.0859 0.82812 1.4688 1.0938 3.0195 2.1953 4.6484 3.3008 3.25 2.2227 6.8281 4.5156 10.523 6.9922 0.94922 0.625 1.7539 1.2227 2.8789 1.9531 1.0625 0.66797 2.1562 1.2734 3.2578 1.8242 2.207 1.1094 4.4492 2.0859 6.707 3.1055 4.5117 2.0195 9.0898 4.2266 13.594 6.8867 0.57031 0.32031 1.125 0.66797 1.6875 1.0117 0.57031 0.34766 1.0977 0.67969 1.7227 1.043 0.60938 0.35547 1.2188 0.71484 1.8281 1.0742s1.2422 0.65625 1.8633 0.99219c2.4922 1.3164 5.0703 2.4453 7.6758 3.5586 5.2227 2.1875 10.617 4.082 16.09 5.832 5.4727 1.7422 11.023 3.3203 16.598 4.7188 5.5703 1.3867 11.191 2.6445 16.82 3.4297 5.5898 0.80469 11.078 1.4023 16.426 1.9492 5.3477 0.53906 10.551 1.0078 15.551 1.4219 5 0.41406 9.8008 0.78125 14.344 1.0977 2.2773 0.15625 4.4648 0.30078 6.6523 0.41016 0.26562 0.011719 0.53125 0.023438 0.79688 0.039063 0.21875 0.019531 0.43359 0.023437 0.65234 0.046875 0.22266 0.027344 0.44531 0.058594 0.66797 0.085937 0.22656 0.042969 0.45312 0.082031 0.67578 0.12109 0.90625 0.18359 1.8164 0.43359 2.7227 0.70703 1.8203 0.55469 3.5742 1.2227 5.4648 1.7617 0.24609 0.0625 0.48828 0.125 0.73047 0.1875 0.25 0.058594 0.51953 0.10938 0.77344 0.16016 0.26953 0.046875 0.56641 0.078125 0.84375 0.11328 0.24219 0.015626 0.48438 0.03125 0.72656 0.046876 0.94531 0.042968 1.8281 0.03125 2.6797 0.007812 1.6914-0.058594 3.2461-0.17578 4.6797-0.28516 0.71094-0.054688 1.3984-0.10938 2.0586-0.16406 0.32422-0.023437 0.64453-0.046875 0.95703-0.070312 0.015625 0.074219-0.050782-0.88281-0.007813-0.34375l0.027344 0.25781c0.007813 0.12109 0.007813 0.085938 0.011719 0.089844h0.007812l0.03125 0.003906c0.019532 0 0.027344-0.003906 0.097656 0.003907 0.11328 0.011718 0.22266 0.023437 0.33203 0.035156 0.99219 0.13672 2.1328 0.39453 3.2383 0.65234 4.1719 1.0234 8.5664 2.3125 13.016 3.6367 2.2266 0.67578 4.4688 1.3594 6.7227 2.0469 1.125 0.35156 2.25 0.69922 3.375 1.0508l1.6836 0.53125 0.82031 0.26172c0.46875 0.15234 0.83594 0.21875 1.2031 0.27734 1.4023 0.21875 2.6953 0.19141 3.8438 0.19922 1.1797 0.003906 2.3555 0.007812 3.5273 0.007812 2.3438 0 4.6641-0.015625 6.957-0.050781 2.293-0.035156 4.5547-0.085937 6.793-0.19531 1.1289-0.058593 2.2227-0.12109 3.4297-0.27734l0.50391-0.082031c0.22266-0.058594 0.47266-0.10938 0.69922-0.19141 0.11328-0.042969 0.22266-0.09375 0.33984-0.13281l0.32031-0.17188 0.15625-0.089844 0.11719-0.078125 0.22656-0.15234c0.29688-0.21484 0.58203-0.44141 0.84766-0.69531 0.13281-0.12891 0.26172-0.25781 0.38672-0.39844 0.0625-0.070312 0.125-0.14062 0.17578-0.20312 0.046875-0.054687 0.12891-0.15625 0.11328-0.14062 0.023437-0.035156 0.042968-0.066406 0.058593-0.10156 0.015625-0.042969 0.074219-0.023438 0.10547-0.039063 0.625-0.10938 1.2422-0.21484 1.8477-0.31641 0.75-0.13672 1.4883-0.26953 2.2188-0.41797 1.4648-0.29688 2.8633-0.58984 4.293-1.0195l0.57422-0.17969 0.60547-0.22266c0.21484-0.085937 0.46484-0.20703 0.69141-0.31641 0.21094-0.11719 0.41016-0.23047 0.60547-0.36328 0.39844-0.25781 0.78125-0.56641 1.1367-0.91016 0.17969-0.17187 0.34766-0.35937 0.51172-0.55469l0.23438-0.30469c0.0625-0.085938 0.19141-0.27344 0.14844-0.22266 0.03125-0.058593 0.0625-0.125 0.085937-0.19922 0-0.050781 0.042969-0.042968 0.078125-0.046874l0.11328-0.011719 0.17188-0.019531 0.52344-0.039063c0.40234-0.03125 0.80469-0.070313 1.2109-0.11328 0.8125-0.085938 1.6289-0.19531 2.4805-0.35938 0.28125-0.054688 0.57031-0.125 0.87109-0.20312 0.12891 0.070312 0.25781 0.14062 0.38281 0.21094 0.61328 0.25-0.28125 0.375 0.6875 0.67969-0.71484-0.10938-1.0742-0.16406-1.7891-0.27344-0.10547 0.14062 2.2188 0.23438 1.6875 0.41406-0.67969-0.15625-1.4688-0.17188-2.1836-0.28125 0.21875 0.24219 2.4727 0.42969 2.332 0.61719-0.39453-0.007812-1.9727-0.5625-2.1484-0.32812-0.035156 0.046875 0.67969 0.15625 1.0391 0.21094-2.2188-0.23438-3.4648-0.16406-1.4922 0.39844-0.69922-0.10547-1.6719-0.35156-2.4141-0.41797l0.003906 0.003907c0.36719 0.058593 0.99609 0.19922 1.3359 0.25391l-1.2539-0.1875c0.0625 0.042969 0.12891 0.089844 0.20312 0.13672 0.30859 0.074218 0.62109 0.14453 0.94531 0.19141-0.27734-0.042969-0.55469-0.082031-0.83594-0.125 0.19531 0.11328 0.42578 0.22656 0.67969 0.33594 0.96875 0.30078 1.8867 0.67578 2.4219 0.75781 4.3203 0.73438 8.6602 1.457 12.98 2.1211 0.023437-0.09375-0.19531-0.22266 0.17188-0.21094 1.1406 0.082032 2 0.53125 3.1445 0.61719l0.10547-0.14062c0.85938 0.20703 1.7617 0.42188 2.6758 0.63672 1.7148 0.24219 3.418 0.47656 5.1172 0.69531-0.035157-0.0625-0.046875-0.11719 0.125-0.10938 0.71094 0.074219 1.6758 0.28125 2.6797 0.46484 0.15234 0.015625 0.30078 0.03125 0.44922 0.046875 0.12109-0.015625 0.16016-0.0625 0.18359-0.09375 0.45312 0.082031 0.85938 0.16016 1.2305 0.23828 5.125 0.51562 10.277 0.66406 15.848 0.69531 1.1836-0.070313 2.3633-0.125 3.4961-0.13281 1.6758 0.035156 3.8047 0.23828 5.4375 0.32031-0.22656-0.55078 3.7539-0.67188 2.9766-1.25 1.082 0.046874 2.7109 0.10937 2.8008-0.042969 0.26172-0.45703 1.1094-0.95703 3.9844-1.1875 1.1211-0.046875 2.8477 0.16016 3.2305 0.066406 0.62891-0.16016-1.4297-0.34375-0.80859-0.48828zm-135.38-34.453c-0.019531 0.003906-0.042969 0.011719-0.0625 0.015625-0.042969-0.074219-0.09375-0.15234-0.15625-0.24609 0.070313 0.066406 0.14453 0.14844 0.21875 0.23047zm-1.8398-0.83594c0.21875 0.125 0.76172 1.0625 1 0.9375 0.046875-0.027343-0.28516-0.33984-0.44922-0.49609 0.25391 0.20703 0.48438 0.38281 0.68359 0.51953-0.13281 0.023437-0.26562 0.042969-0.39844 0.0625-0.26172-0.35938-0.98828-0.94141-0.83594-1.0234zm-0.25391 0.39453c0.28906 0.26953 0.45703 0.42969 0.71875 0.67188-0.24219 0.023437-0.48828 0.046874-0.74609 0.066406-0.16797-0.36719 0.37891-0.20703 0.027344-0.73828zm-1.3945 0.80859c-0.078125 0.003906-0.15625 0.007813-0.23438 0.011719-0.097657-0.16016-0.19141-0.31641-0.27344-0.46094 0.17578 0.15234 0.34375 0.30859 0.50781 0.44922zm-6.3047 0.38281c-0.60938 0.058593-1.2773 0.12109-2 0.1875-0.17969 0.019531-0.36328 0.035156-0.55078 0.054687-0.15625 0.007813-0.27344-0.003906-0.41406 0-0.13672 0.003906-0.27344 0.003906-0.41406 0.007813-0.13672 0.007812-0.34766-0.027344-0.52344-0.039063-0.36719-0.03125-0.75-0.066406-1.1406-0.10156-0.41016-0.058594-0.83203-0.11719-1.2656-0.17969-0.85937-0.10547-1.7891-0.29297-2.75-0.45312-1.9258-0.34766-4.0234-0.78125-6.2539-1.2656-8.9258-1.9531-19.957-4.7812-31.195-7.8203-16.578-4.4805-33.605-9.4844-45.195-13.043 1.2461 0.25 2.3867 0.58984 3.7539 0.74219l0.15625-0.12891c1.4062 0.29688 2.875 0.60938 4.3711 0.92578 2.7812 0.42187 5.5508 0.82812 8.3125 1.2188-0.0625-0.066407-0.089843-0.125 0.1875-0.10156 1.1445 0.14062 2.7383 0.45312 4.3555 0.72266 0.24219 0.027344 0.48438 0.058594 0.72266 0.085938 0.19141-0.003907 0.24609-0.050781 0.28125-0.078125 0.73828 0.125 1.3945 0.25 2 0.36719 8.0898 1.0586 16.316 2.1328 25.223 3.2969 1.8945 0.1875 3.793 0.375 5.6055 0.625 2.6797 0.41016 6.0742 1.1055 8.6719 1.5781-0.30469-0.60547 6.0898 0.24609 4.918-0.51562 1.7344 0.31641 4.3359 0.79297 4.4961 0.66406 0.40625-0.32031 1.4805-0.57422 4.5586-0.32812 0.82422 0.54688 3.4414 2.7891 6.5312 4.9414 0.375 0.28125 0.82031 0.53516 1.2266 0.80078 0.20703 0.13281 0.41406 0.26172 0.62109 0.39453 0.23047 0.12109 0.45703 0.24219 0.68359 0.36328 0.22656 0.12109 0.45313 0.23828 0.67578 0.35547 0.1875 0.09375 0.37109 0.1875 0.55469 0.27734 0.34766 0.17188 0.69141 0.33203 1.0117 0.52344 1.3008 0.70703 2.3477 1.4453 2.9453 1.875l0.22266 0.14844c1.3125 0.94141 2.8984 2.1328 4.0977 2.8711 0.40625 0.21875 0.82812 0.44141 1.25 0.66797-0.92969 0.039062-1.8594 0.082031-2.793 0.12109-0.71875 0.054687-1.7148 0.12891-2.9375 0.23828zm8.4844-0.52734c-0.21094-0.23828-0.97266-0.76562-0.64453-0.74609 0.23047 0.26562 0.54688 0.48828 0.83203 0.72656-0.019531 0.003906-0.039062 0.007812-0.0625 0.007812-0.042969 0.007813-0.085937 0.007813-0.125 0.011719zm71.449 3.3359c0.21484 0 0.42969 0 0.64844-0.003906l0.46094 0.007813h0.054687l-0.38281-0.007813zm2.0586-0.11328h-0.015625 0.015625c0.32812-0.10547 0.51172-0.16406 0.6875-0.21875zm10.93 2.0742c-0.45312 0.79688-0.91406 1.6055-1.3477 2.3711-2.4023 4.3945 0.42969-1.7578-3.2539 5.1602l3.9023-7.6953c0.23828 0.054687 0.46875 0.10937 0.69922 0.16406zm-0.74609-0.17188c-2.1055 4.1875-4.6328 9.2422-3.6992 7.0547 1.1719-2.2539 2.375-4.6523 3.5898-7.082 0.035157 0.007813 0.074219 0.015625 0.10938 0.027344zm-0.46875-0.10938c-0.10547 0.20703-0.20703 0.40625-0.30078 0.59375 0.10156-0.19922 0.19531-0.39453 0.29688-0.59375h0.003907zm-4.1953 8.3867c0.67969-1.3945 2.5859-5.0078 4.3281-8.3555 0.019531 0.003906 0.035156 0.007812 0.054688 0.011719-2.2539 4.4023-4.4961 8.8125-4.3828 8.3438zm22.555-4.6562c-0.003906 0.003906 0 0 0 0zm-5.0508 0.98828v0.007812l-0.003906-0.007812h0.003906zm-1.9531-4.1562c0.13281 0.027344 0.26562 0.058594 0.39844 0.09375l0.14453 0.042969c-0.35156-0.085938-1.043-0.26172-0.54297-0.13672zm-20.879-46.141v0c0.003906 0 0.011719 0.003906 0.007812 0zm31.309-58.641c0.003906 0 0.003906-0.003906 0.007812-0.003906 0.027344 0.011718 0.050782 0.023437 0.082032 0.03125-0.03125-0.007813-0.058594-0.015625-0.089844-0.027344zm0.19922-0.13672c0.039063-0.027343 0.074219-0.050781 0.11328-0.078125 0.054687 0.066406 0.14844 0.14453 0.28906 0.23828-0.11719-0.035157-0.25781-0.097657-0.40234-0.16016zm1.1484-0.25781c-0.25-0.046875-0.47266-0.074219-0.65234-0.082031 0.12109-0.085938 0.23828-0.16406 0.35156-0.24219 0.27344 0.15234 0.84375 0.26562 0.76562 0.41016-0.17188 0-0.75781-0.5-0.88281-0.26953-0.023437 0.046875 0.26953 0.13672 0.41797 0.18359zm0.46875-0.23438c-0.19531-0.097656-0.42969-0.125-0.66016-0.16406 0.046875-0.03125 0.097656-0.066406 0.14062-0.097656 0.25391 0.070313 0.71484 0.12891 0.51953 0.26172zm-0.46094-0.30078c0.14844-0.10156 0.29688-0.20703 0.43359-0.30078-0.023437 0.14062-0.16016 0.26953 0.10156 0.46094-0.21875-0.0625-0.35547-0.10547-0.53516-0.16016zm1.7305-1.0859c-0.042969-0.011719-0.082031-0.023437-0.125-0.039063 0.015625-0.011718 0.03125-0.023437 0.046875-0.03125 0.027344 0.023438 0.054688 0.046876 0.078125 0.070313zm-0.20703-0.1875c-0.046875 0.027344-0.09375 0.050781-0.14062 0.082031-0.066406-0.019531-0.125-0.035156-0.1875-0.050781 0.070313-0.042969 0.14062-0.089844 0.20703-0.13281 0.039063 0.035157 0.082032 0.070313 0.12109 0.10156zm-1.2031 0.71094c-0.52734 0.31641-1.168 0.71484-1.9336 1.1914-0.027343-0.007813-0.050781-0.015625-0.078125-0.019531 0.63281-0.41016 1.2891-0.83203 1.9531-1.2578 0.023438 0.027344 0.039063 0.054687 0.058594 0.085937zm-2.0195 1.1758c0.019531 0.007812 0.042968 0.015625 0.066406 0.027344-0.015625 0.011718-0.03125 0.019531-0.046875 0.03125-0.011719-0.003907-0.019531-0.007813-0.03125-0.007813 0.003906 0.007813 0.007813 0.015625 0.011719 0.023437-0.74609 0.46875-1.6094 1.0117-2.5938 1.6406 0.80469-0.54297 1.6797-1.1172 2.5938-1.7148zm-65.227 27.043h0.058594c0.24219 0.1875 0.50781 0.39844 0.6875 0.52344zm3.332-0.10156c0.12109 0.19531 0.28906 0.42578 0.42578 0.64844 0.39453 0.46094-0.39844 0.22656 0.26953 0.875-0.54297-0.375-0.81641-0.56641-1.3633-0.94141-0.14844 0.085938 1.7383 1.0781 1.2148 1.0273-0.49609-0.40234-1.1406-0.72656-1.6875-1.1055 0.074218 0.30078 1.8594 1.3516 1.6641 1.4609-0.32422-0.16016-1.3906-1.2734-1.6406-1.1328-0.050781 0.027344 0.49609 0.40625 0.76953 0.59375-1.7383-1.0781-2.8047-1.5117-1.418-0.23047-0.42969-0.29687-0.96094-0.74219-1.4609-1.0938 1.082-0.035156 2.1562-0.066406 3.2266-0.10156zm-124.21-27.512-0.027344 0.039063c0.023438-0.035156 0.042969-0.058594 0.027344-0.039063z"/>
 </g>
</svg>
