<?xml version="1.0" encoding="UTF-8"?>
<svg width="752pt" height="752pt" version="1.1" viewBox="0 0 752 752" xmlns="http://www.w3.org/2000/svg">
 <defs>
  <clipPath id="a">
   <path d="m139.21 169h473.58v414h-473.58z"/>
  </clipPath>
 </defs>
 <g clip-path="url(#a)">
  <path d="m298.33 273.98c0.09375-0.10547 0.19141-0.20703 0.30078-0.30469 0.015626-0.011719 0.027344-0.023437 0.039063-0.035156 8.3555-8.4375 15.902-16.645 18.105-21.137 1.0859-2.2148 1.3828-4.125 1.0625-5.5508-0.15234-0.67969-0.46094-1.2266-0.88672-1.5938-0.42578-0.36719-1.0312-0.59766-1.7852-0.65625-1.625-0.125-3.7539 0.51562-6.2383 2.1562-0.019532 0.011719-0.03125 0.023437-0.050782 0.035156l-40.617 31.523c-2.1602 1.6758-3.7578 3.043-5.043 4.4258-1.2109 1.3047-2.1602 2.668-3.0977 4.4023-7.1367 13.27-14.766 32.48-21.762 50.098-2.293 5.7734-4.5234 11.391-6.0938 15.246-1.8242 4.4727-3.1797 14.879-4.2188 27.75-1.0664 13.246-1.7656 28.754-2.2812 43.176-0.80078 22.48-10.82 40.957-26.121 56.566-15.055 15.359-35.219 27.895-56.672 38.73-1.5547 0.78516-3.4453 0.16016-4.2305-1.3945-0.78516-1.5547-0.16016-3.4453 1.3945-4.2305 20.914-10.562 40.52-22.73 55.016-37.52 14.254-14.543 23.582-31.664 24.32-52.375 0.52344-14.684 1.2266-30.371 2.2812-43.445 1.0859-13.449 2.5703-24.488 4.6602-29.621 2.3398-5.7422 4.1914-10.406 6.0938-15.195 7.082-17.832 14.801-37.273 22.059-50.766 1.1953-2.2227 2.4336-3.9883 4.0352-5.7109 1.5273-1.6445 3.3594-3.2148 5.8086-5.1172l40.715-31.602c0.054688-0.042969 0.11328-0.085937 0.17188-0.125 3.8086-2.5508 7.375-3.5195 10.332-3.2969 2.1367 0.16016 3.9844 0.92969 5.4375 2.1836 1.4492 1.25 2.4531 2.9492 2.9102 4.9727 0.62109 2.7461 0.19922 6.1133-1.5547 9.6953-0.70312 1.4375-1.8281 3.1445-3.2656 5.0547-0.21484 0.28516-0.21484 0.66016-0.003906 0.94531 0.21094 0.28516 0.57422 0.39453 0.90625 0.26953 5.4609-2.0078 10.258-2.9766 13.75-3.207 2.2578-0.14844 4.2227 0.42188 5.8281 1.4844 1.2852 0.85156 2.3086 2.0156 3.0352 3.375 0.69531 1.3047 1.1094 2.7773 1.2109 4.3125 0.16016 2.457-0.47656 5.1094-2.0469 7.4844-1.6836 2.5391-6.7695 5.3516-12.621 8.5898-6.3633 3.5195-13.727 7.5898-17.176 11.355-1.1719 1.2812-3.1602 1.3672-4.4414 0.19922-1.2812-1.1719-1.3672-3.1602-0.19922-4.4414 4.1875-4.5664 12.012-8.8945 18.777-12.637 5.1211-2.832 9.5742-5.2969 10.402-6.543 0.77344-1.168 1.0898-2.4453 1.0117-3.6094-0.042969-0.64844-0.20312-1.2461-0.46875-1.7461-0.23438-0.44141-0.5625-0.81641-0.96094-1.082-0.49609-0.32812-1.1484-0.5-1.9531-0.44531-3.7148 0.24219-9.2383 1.5039-15.59 4.2812-4.9531 2.168-10.379 5.2578-15.809 9.5117-0.027344 0.019532-0.050782 0.042969-0.074219 0.066407-5.0352 5.082-10.285 10.176-14.859 14.605-2.0273 1.9648-3.9219 3.8008-5.5508 5.3984-2.918 2.8594-4.5898 11.875-5.5664 22.828-1.0234 11.508-1.1719 24.961-1.168 36.023 0 0.38672 0 0.78516 0.003906 1.1914 0 0.37891 0.25781 0.69141 0.62891 0.76953 0.36719 0.078125 0.73047-0.10938 0.88281-0.45703 4.0156-9.1484 6.875-17.363 9.7305-25.578 2.0781-5.9766 4.1602-11.957 6.5586-18.02 1.8281-4.6172 4.0312-7.6797 6.3398-9.4766 2.0078-1.5625 4.1094-2.2227 6.168-2.1406 2.0703 0.085938 3.9961 0.91016 5.6602 2.3164 2.0117 1.6992 3.6562 4.293 4.668 7.418 2.1055 6.4961-0.32422 18.406-2.6523 29.824-0.40625 1.9961 0.16016-0.80469-0.35938 1.7578-5.1328 25.258-4.0625 57.863-3.168 85.121 0.11719 3.5391 0.23047 6.9844 0.32812 10.457 0.59766 20.711-6.7969 38.258-18.137 53.309-11.168 14.828-26.152 27.188-41.012 37.754-5.3164 3.7812-10.207 7.4375-14.785 11.031-4.5859 3.6055-8.7383 7.0547-12.582 10.422-5.2891 4.6367-10.137 9.2344-14.82 13.953-4.7344 4.7695-9.2383 9.5938-13.824 14.664-1.1641 1.2891-3.1523 1.3867-4.4414 0.22266-1.2891-1.1641-1.3867-3.1523-0.22266-4.4414 4.7305-5.2305 9.3125-10.145 14.02-14.887 4.7578-4.793 9.707-9.4844 15.141-14.25 4.0469-3.5469 8.2891-7.0742 12.832-10.645 4.5508-3.5781 9.5234-7.2891 15.031-11.203 14.414-10.246 28.918-22.195 39.633-36.422 10.547-14 17.426-30.254 16.875-49.336-0.09375-3.2695-0.21094-6.8047-0.32813-10.434-0.90625-27.582-1.9922-60.574 3.2891-86.551l0.36328-1.7812c-0.03125 0.14844-0.054687 0.26562 0 0 2.168-10.621 4.4297-21.699 2.8281-26.641-0.64453-1.9883-1.6133-3.5742-2.7461-4.5312-0.60938-0.51172-1.2344-0.8125-1.8359-0.83594-0.60938-0.023438-1.3008 0.22266-2.0508 0.80859-1.457 1.1367-2.9492 3.3242-4.3398 6.8398-2.5 6.3125-4.4922 12.043-6.4844 17.773-4.8438 13.922-9.6875 27.844-20.008 46.23-0.011719 0.023438-0.023438 0.042969-0.035157 0.066407-0.51953 1.1758-1.1367 2.2734-1.8594 3.2617-0.015625 0.023437-0.03125 0.042968-0.046875 0.070312-0.56641 0.97656-1.1523 1.9688-1.75 2.9727-0.89062 1.4922-2.8242 1.9766-4.3164 1.0859s-1.9766-2.8242-1.0859-4.3164c0.59375-0.99609 1.1719-1.9766 1.7344-2.9453 0.007813-0.011719 0.011719-0.023437 0.019532-0.035156 0.046875-0.089844 0.097656-0.17969 0.15625-0.26953 0.007812-0.011719 0.011718-0.019532 0.019531-0.03125 0.51172-0.88672 1.0117-1.7617 1.5-2.625 0.015625-0.027344 0.027344-0.054688 0.039063-0.082032 2.2109-5.293 2.1797-13.48 2.1562-19.656-0.003907-0.59375-0.003907-1.1719-0.003907-1.7266-0.003906-11.188 0.14844-24.816 1.1914-36.566 1.0938-12.301 3.2578-22.707 7.4141-26.777 1.707-1.6719 3.5742-3.4844 5.5781-5.4219 4.5664-4.4258 9.8242-9.5195 14.816-14.555 0.011719-0.011719 0.023438-0.023437 0.035157-0.039062zm86.828 88.879c-0.066406-1.0859 0.75781-2.0195 1.8438-2.0898 1.0859-0.066406 2.0195 0.75781 2.0898 1.8438 0.21875 3.4844-0.61719 6.8633-2.2773 9.7578-1.668 2.9102-4.1758 5.3398-7.2773 6.9023-0.96875 0.48828-2.1562 0.097657-2.6445-0.87109s-0.097656-2.1562 0.87109-2.6445c2.3984-1.207 4.3359-3.0898 5.6289-5.3477 1.2891-2.2461 1.9375-4.8633 1.7695-7.5547zm-17.082 149.22c-5.2188 1.1211-10.426 0.074219-14.664-2.5508-4.3438-2.6914-7.6602-7.0352-8.9219-12.391l-0.085938-0.36719v-0.019531c-1.1211-5.2188-0.074219-10.426 2.5508-14.664 2.6914-4.3438 7.0352-7.6602 12.391-8.9219l0.36719-0.085937h0.019531c5.2188-1.1211 10.426-0.074219 14.664 2.5508 4.3438 2.6914 7.6602 7.0352 8.9219 12.391l0.085938 0.36719v0.019532c1.1211 5.2188 0.074219 10.426-2.5508 14.664-2.6914 4.3438-7.0352 7.6602-12.391 8.9219l-0.36719 0.085938zm-11.359-7.9023c2.9648 1.8359 6.6367 2.5391 10.312 1.6758h0.003906c3.668-0.86328 6.6328-3.125 8.4688-6.0859 1.8359-2.9648 2.5391-6.6367 1.6758-10.312l-0.003907-0.007813c-0.86328-3.6641-3.125-6.6289-6.082-8.4609-2.9648-1.8359-6.6367-2.5391-10.312-1.6758l-0.011719 0.003906c-3.6641 0.86328-6.625 3.125-8.457 6.082-1.8359 2.9648-2.5391 6.6367-1.6758 10.312v0.003906c0.86328 3.6641 3.125 6.6328 6.082 8.4648zm32.734 50.055c-4.3672 1.0273-8.7422 0.18359-12.289-2.0156-3.5508-2.1992-6.2617-5.7461-7.2891-10.121-1.0273-4.3672-0.18359-8.7422 2.0156-12.289 2.1992-3.5508 5.7461-6.2617 10.121-7.2891 4.3672-1.0273 8.7422-0.18359 12.289 2.0156 3.5508 2.1992 6.2617 5.7461 7.2891 10.121 1.0273 4.3672 0.18359 8.7422-2.0156 12.289-2.1992 3.5508-5.7461 6.2617-10.121 7.2891zm-8.9844-7.3672c2.168 1.3438 4.8594 1.8594 7.5547 1.2227 2.6875-0.63281 4.8594-2.2852 6.1992-4.4531 1.3438-2.168 1.8594-4.8594 1.2266-7.5547-0.63281-2.6875-2.2852-4.8594-4.4531-6.1992-2.168-1.3438-4.8594-1.8594-7.5547-1.2227-2.6875 0.63281-4.8594 2.2852-6.1992 4.4531-1.3438 2.168-1.8594 4.8594-1.2266 7.5547 0.63281 2.6875 2.2852 4.8594 4.4531 6.1992zm35.695 32.023c-3.2539 0.65625-6.4883-0.011718-9.1328-1.6484-2.7539-1.707-4.8594-4.457-5.6562-7.8516l-0.085938-0.36719v-0.03125c-0.65625-3.2539 0.011719-6.4883 1.6484-9.1328 1.707-2.7539 4.457-4.8594 7.8516-5.6562l0.36719-0.085937h0.03125c3.2539-0.65625 6.4883 0.011719 9.1328 1.6484 2.7539 1.707 4.8555 4.457 5.6562 7.8477l0.085938 0.34766v0.050781c0.65625 3.2539-0.011719 6.4883-1.6484 9.1328-1.707 2.7539-4.457 4.8594-7.8516 5.6562l-0.36719 0.085937h-0.03125zm-5.8281-7.0039c1.375 0.85156 3.082 1.1758 4.793 0.77344h0.003906c1.7031-0.40234 3.0781-1.4492 3.9258-2.8164 0.85156-1.375 1.1758-3.082 0.77344-4.793v-0.003907c-0.40234-1.7031-1.4492-3.0781-2.8203-3.9258-1.3711-0.85156-3.0781-1.1758-4.7852-0.77734-0.003906 0-0.007812 0-0.011718 0.003906l-0.16797 0.042968c-1.625 0.42969-2.9336 1.4531-3.7539 2.7773-0.85156 1.375-1.1758 3.082-0.77344 4.793v0.003906c0.40234 1.7031 1.4492 3.0781 2.8164 3.9258zm148.84-16.902c0.77734 0.75781 0.79688 2.0039 0.039063 2.7812-0.75781 0.77734-2.0039 0.79688-2.7812 0.039063-2.9453-2.875-5.8516-5.6367-8.8398-8.3555-2.9844-2.7188-5.9883-5.3359-9.1055-7.8906-0.83984-0.69141-0.96094-1.9297-0.26953-2.7656 0.69141-0.83984 1.9297-0.96094 2.7656-0.26953 3.25 2.668 6.2969 5.3164 9.2578 8.0156 2.9609 2.6953 5.9062 5.5 8.9336 8.4492zm-105.9-281.3c0.10937 0.09375 0.20703 0.19531 0.30078 0.30469 0.011719 0.015626 0.023437 0.027344 0.035156 0.039063 4.9922 5.0312 10.25 10.129 14.816 14.551 2.0039 1.9414 3.8711 3.7539 5.5781 5.4219 4.1758 4.0898 6.3438 14.535 7.4336 26.863 1.0312 11.668 1.1758 25.387 1.1719 36.645v0.35547c-0.003906 6.293-0.007813 15.594 2.3672 21.242 0.011719 0.03125 0.023438 0.054688 0.039063 0.082031 1.0156 1.7969 2.082 3.6367 3.2109 5.5234 0.89063 1.4922 0.40625 3.4258-1.0859 4.3164s-3.4258 0.40625-4.3164-1.0859c-0.55859-0.93359-1.1016-1.8555-1.6328-2.7656-0.015625-0.023437-0.027344-0.042968-0.042968-0.066406-0.63281-0.875-1.1836-1.8516-1.6641-2.9023-0.011719-0.023437-0.019531-0.039062-0.03125-0.0625-10.543-18.676-15.438-32.742-20.332-46.809-1.9922-5.7305-3.9883-11.461-6.4844-17.773-1.3906-3.5156-2.8828-5.7031-4.3398-6.8398-0.74609-0.58203-1.4375-0.83203-2.0508-0.80859-0.60156 0.023437-1.2305 0.32422-1.8359 0.83594-1.1328 0.95703-2.1016 2.543-2.7461 4.5312-1.6016 4.9414 0.66016 16.02 2.8242 26.641 0.054688 0.26562 0.03125 0.14844 0 0l0.36328 1.7812c5.2812 25.98 4.1953 58.969 3.2891 86.551-0.12109 3.6289-0.23438 7.1641-0.32812 10.434-0.55078 19.082 6.332 35.336 16.875 49.336 10.715 14.227 25.219 26.172 39.633 36.422 5.5078 3.918 10.48 7.6289 15.031 11.203 4.543 3.5703 8.7852 7.0977 12.832 10.645 5.4336 4.7656 10.383 9.457 15.141 14.25 4.707 4.7422 9.293 9.6562 14.02 14.887 1.1641 1.2891 1.0664 3.2734-0.22266 4.4414-1.2891 1.1641-3.2734 1.0664-4.4414-0.22266-4.5859-5.0703-9.0898-9.8945-13.824-14.664-4.6836-4.7188-9.5312-9.3164-14.82-13.953-3.8438-3.3711-7.9961-6.8203-12.582-10.422-4.5742-3.5938-9.4688-7.2539-14.785-11.031-14.859-10.566-29.844-22.926-41.012-37.754-11.336-15.051-18.734-32.598-18.137-53.309 0.10156-3.4727 0.21484-6.9219 0.32812-10.457 0.89453-27.262 1.9688-59.863-3.168-85.121-0.51953-2.5625 0.046874 0.23828-0.35938-1.7578-2.3281-11.418-4.7617-23.328-2.6523-29.824 1.0117-3.125 2.6602-5.7188 4.668-7.418 1.6641-1.4062 3.5898-2.2344 5.6602-2.3164 2.0625-0.082031 4.1641 0.57422 6.168 2.1406 2.3086 1.7969 4.5117 4.8633 6.3398 9.4766 2.3984 6.0625 4.4805 12.043 6.5586 18.02 2.8594 8.2188 5.7188 16.434 9.7344 25.586 0.15234 0.34375 0.51562 0.53125 0.88281 0.45703 0.37109-0.078124 0.62891-0.39453 0.62891-0.77344v-0.67188-0.35547c0.003906-10.996-0.14062-24.438-1.1719-36.102-0.97266-11-2.6445-20.062-5.5586-22.918-1.6328-1.5977-3.5273-3.4336-5.5547-5.3984-4.5742-4.4336-9.8242-9.5234-14.859-14.605-0.023437-0.023438-0.046874-0.042969-0.074218-0.066406-5.4297-4.2539-10.855-7.3438-15.809-9.5117-6.3555-2.7812-11.879-4.0391-15.59-4.2812-0.80469-0.050781-1.4609 0.12109-1.9531 0.44531-0.40234 0.26562-0.72656 0.64062-0.96094 1.082-0.26562 0.5-0.42578 1.0977-0.46875 1.7461-0.078125 1.1641 0.23828 2.4414 1.0117 3.6094 0.82422 1.2461 5.2773 3.707 10.402 6.543 6.7656 3.7422 14.594 8.0703 18.777 12.637 1.1719 1.2812 1.082 3.2695-0.19922 4.4414s-3.2695 1.082-4.4414-0.19922c-3.4492-3.7656-10.809-7.8359-17.176-11.355-5.8516-3.2344-10.938-6.0508-12.621-8.5898-1.5742-2.375-2.207-5.0273-2.0469-7.4844 0.10156-1.5352 0.51562-3.0078 1.2109-4.3125 0.72656-1.3594 1.7461-2.5234 3.0352-3.375 1.6016-1.0625 3.5703-1.6289 5.8281-1.4844 3.4922 0.23047 8.2891 1.1992 13.75 3.207 0.33203 0.12109 0.69531 0.015625 0.90625-0.26953 0.21094-0.28516 0.21094-0.66016-0.003906-0.94531-1.4414-1.9102-2.5625-3.6211-3.2656-5.0547-1.7578-3.582-2.1758-6.9492-1.5547-9.6953 0.45703-2.0234 1.4609-3.7227 2.9102-4.9727 1.4531-1.2539 3.3008-2.0234 5.4375-2.1836 2.957-0.22266 6.5234 0.74609 10.332 3.2969 0.058594 0.039063 0.11719 0.082032 0.17188 0.125l40.715 31.602c2.4492 1.8984 4.2812 3.4688 5.8086 5.1172 1.5977 1.7266 2.8398 3.4883 4.0352 5.7109 7.2539 13.492 14.977 32.934 22.059 50.766 1.9023 4.793 3.7539 9.4531 6.0938 15.195 2.0938 5.1328 3.5781 16.172 4.6602 29.621 1.0547 13.074 1.7578 28.762 2.2812 43.445 0.73828 20.711 10.066 37.832 24.32 52.375 14.5 14.793 34.102 26.957 55.016 37.52 1.5547 0.78516 2.1758 2.6758 1.3945 4.2305-0.78516 1.5547-2.6758 2.1758-4.2305 1.3945-21.453-10.832-41.613-23.371-56.672-38.73-15.301-15.609-25.32-34.086-26.121-56.566-0.51172-14.422-1.2109-29.93-2.2812-43.176-1.0391-12.871-2.3945-23.277-4.2188-27.75-1.5703-3.8516-3.8008-9.4727-6.0938-15.246-6.9961-17.621-14.625-36.828-21.762-50.098-0.93359-1.7383-1.8867-3.0977-3.0977-4.4023-1.2812-1.3828-2.8789-2.7461-5.043-4.4258l-40.617-31.523c-0.015625-0.011719-0.03125-0.023438-0.050781-0.035156-2.4844-1.6406-4.6133-2.2773-6.2383-2.1562-0.75391 0.058594-1.3594 0.28906-1.7852 0.65625-0.42969 0.37109-0.73437 0.91406-0.88672 1.5938-0.32031 1.4258-0.023438 3.3359 1.0625 5.5508 2.2031 4.4922 9.7461 12.699 18.105 21.137 0.011719 0.011718 0.023438 0.023437 0.039063 0.035156zm-8.7773 68.25c-0.039063-0.18359-0.085938-0.41406 0 0zm-75.387-3.9258c7.3125-1.7188 14.641-0.30859 20.57 3.3672 5.9336 3.6758 10.465 9.6094 12.188 16.934 1.7188 7.3125 0.30859 14.641-3.3672 20.57-3.6758 5.9336-9.6094 10.465-16.934 12.188-7.3125 1.7188-14.641 0.30859-20.57-3.3672-5.9336-3.6758-10.465-9.6094-12.188-16.934-1.7188-7.3125-0.30859-14.641 3.3672-20.57 3.6758-5.9336 9.6094-10.465 16.934-12.188zm17.266 8.7188c-4.5547-2.8203-10.191-3.9023-15.832-2.5742-5.6328 1.3242-10.191 4.8008-13.012 9.3516-2.8203 4.5547-3.9023 10.191-2.5742 15.832 1.3242 5.6328 4.8008 10.191 9.3516 13.012 4.5547 2.8203 10.191 3.9023 15.832 2.5742 5.6328-1.3242 10.191-4.8008 13.012-9.3516 2.8203-4.5547 3.9023-10.191 2.5742-15.832-1.3242-5.6328-4.8008-10.191-9.3516-13.012zm-9.0938-69.934h-0.003906c-4.6484 1.0938-8.4102 3.9648-10.734 7.7188-2.3281 3.7578-3.2227 8.4141-2.125 13.074 1.0938 4.6484 3.9609 8.4141 7.7188 10.738 3.7578 2.3281 8.4141 3.2227 13.074 2.125 4.6484-1.0938 8.4141-3.9648 10.738-7.7188 2.3281-3.7578 3.2227-8.4141 2.125-13.074v-0.003906c-1.0938-4.6484-3.9648-8.4102-7.7188-10.734-3.7578-2.3281-8.4141-3.2227-13.074-2.125zm-1.0469-6.2266c6.2031-1.3516 12.395-0.11328 17.426 3 5.1406 3.1836 9.0625 8.3203 10.555 14.66l0.085937 0.36719v0.015625c1.3516 6.2031 0.11328 12.395-3 17.426-3.1836 5.1406-8.3203 9.0625-14.66 10.555-6.332 1.4883-12.672 0.26562-17.809-2.9141-5.1406-3.1836-9.0625-8.3203-10.555-14.66-1.4883-6.332-0.26562-12.672 2.9141-17.809 3.1836-5.1406 8.3203-9.0625 14.66-10.555l0.36719-0.085937zm-7.1406-52.332h-0.003906c-3.6641 0.86328-6.6328 3.125-8.4648 6.082-1.8359 2.9648-2.5391 6.6367-1.6758 10.312v0.003906c0.86328 3.6641 3.125 6.6328 6.082 8.4648 2.9648 1.8359 6.6367 2.5391 10.312 1.6758l0.007812-0.003907c3.6641-0.86328 6.6289-3.125 8.4609-6.082 1.8359-2.9648 2.5391-6.6367 1.6758-10.312l-0.003906-0.007812c-0.86328-3.6641-3.125-6.6289-6.082-8.4609-2.9648-1.8359-6.6367-2.5391-10.312-1.6758zm-1.043-6.2266c5.2188-1.1211 10.426-0.074219 14.664 2.5508 4.3438 2.6914 7.6602 7.0352 8.9219 12.391l0.085937 0.36719v0.019531c1.1211 5.2188 0.074219 10.426-2.5508 14.664-2.6914 4.3438-7.0352 7.6602-12.391 8.9219l-0.36719 0.085938h-0.019531c-5.2188 1.1211-10.426 0.074218-14.664-2.5508-4.3438-2.6914-7.6641-7.0352-8.9219-12.391l-0.085938-0.36719v-0.019531c-1.1211-5.2188-0.074218-10.426 2.5508-14.664 2.6914-4.3438 7.0352-7.6602 12.391-8.9219l0.36719-0.085937zm-21.375-42.152c4.3672-1.0273 8.7422-0.18359 12.289 2.0156 3.5508 2.1992 6.2617 5.7461 7.2891 10.121 1.0273 4.3672 0.18359 8.7422-2.0156 12.289-2.1992 3.5508-5.7461 6.2617-10.121 7.2891-4.3672 1.0273-8.7422 0.18359-12.289-2.0156-3.5508-2.1992-6.2617-5.7461-7.2891-10.121-1.0273-4.3672-0.18359-8.7422 2.0156-12.289 2.1992-3.5508 5.7461-6.2617 10.121-7.2891zm8.9844 7.3672c-2.168-1.3438-4.8594-1.8594-7.5547-1.2266-2.6875 0.63281-4.8594 2.2852-6.1992 4.4531-1.3438 2.168-1.8594 4.8594-1.2266 7.5547 0.63281 2.6875 2.2852 4.8594 4.4531 6.1992 2.168 1.3438 4.8594 1.8594 7.5547 1.2227 2.6875-0.63281 4.8594-2.2852 6.1992-4.4531 1.3438-2.168 1.8594-4.8594 1.2266-7.5547-0.63281-2.6875-2.2852-4.8594-4.4531-6.1992zm5.0352 269.02h0.003907c4.6484-1.0938 8.4141-3.9648 10.738-7.7188 2.3281-3.7578 3.2188-8.4141 2.125-13.07v-0.003906c-1.0938-4.6484-3.9609-8.4141-7.7188-10.738-3.7578-2.3281-8.4141-3.2227-13.074-2.125-4.6484 1.0938-8.4141 3.9648-10.738 7.7188-2.3281 3.7578-3.2227 8.4141-2.125 13.074v0.003906c1.0938 4.6484 3.9648 8.4102 7.7188 10.734 3.7578 2.3281 8.4141 3.2227 13.074 2.125zm1.0469 6.2266c-6.2031 1.3516-12.395 0.11328-17.426-3-5.1406-3.1836-9.0625-8.3203-10.555-14.66l-0.085938-0.36719v-0.015625c-1.3516-6.2031-0.11328-12.395 3-17.426 3.1836-5.1406 8.3203-9.0625 14.66-10.555 6.332-1.4883 12.672-0.26562 17.809 2.9141 5.1289 3.1758 9.0469 8.2969 10.543 14.617l0.011719 0.046875c1.4883 6.332 0.26562 12.672-2.9141 17.809-3.168 5.1172-8.2773 9.0312-14.582 10.535-0.023437 0.003906-0.042969 0.011719-0.066406 0.019531l-0.13672 0.046875c-0.085938 0.027344-0.16016 0.039063-0.25 0.039063h-0.007812zm-166.27 105.34c-0.77734 0.75781-2.0234 0.74219-2.7812-0.039062-0.75781-0.77734-0.74219-2.0234 0.039063-2.7812 3.0234-2.9492 5.9688-5.7539 8.9336-8.4492 2.9648-2.6992 6.0078-5.3477 9.2578-8.0156 0.83984-0.69141 2.0781-0.57031 2.7656 0.26953 0.69141 0.83984 0.57031 2.0781-0.26953 2.7656-3.1172 2.5586-6.1172 5.1719-9.1055 7.8906s-5.8945 5.4844-8.8398 8.3555zm111.93-215.88c0.085938-0.41797 0.035156-0.18359 0 0z"/>
 </g>
</svg>
