<?xml version="1.0" encoding="UTF-8"?>
<svg width="752pt" height="752pt" version="1.1" viewBox="0 0 752 752" xmlns="http://www.w3.org/2000/svg">
 <path d="m345.54 149.91c-0.32031-1.7109 0.80469-3.3555 2.5156-3.6758 1.7109-0.32031 3.3555 0.80469 3.6758 2.5156 1.4336 7.6367 2.7422 14.059 3.9219 19.844 4.6289 22.719 7.3242 35.93 5.0352 58.805-1.4258 14.27-2.457 15.805-6.4297 21.727-0.90625 1.3516-1.9883 2.9648-3.3359 5.1719-1.293 2.1172-2.043 4.4883-2.375 6.9844-0.39062 2.9219-0.21094 6.0547 0.35156 9.1992 2.0898 11.738 6.5664 24.719 12.375 37.469 6.4336 14.129 14.488 27.969 22.734 39.543 5.6328 7.9062 7.0234 14.531 5.5312 20.148-1.5 5.6484-5.8242 9.9805-11.633 13.41-4.0859 2.4141-8.0156 4.3867-11.551 6.1602-11.383 5.707-17.965 9.0117-14.07 23.309 0.023438 0.089844 0.042969 0.17578 0.058594 0.26562 0.56641 2.082 1.0273 3.8672 1.4336 5.4922 0.32031 1.2812 0.84766 3.4609 1.3984 5.75 1.3711 5.6797 0.89844 12.438-3.3906 18.219-1.9062 2.5664-4.5508 4.918-8.1055 6.8477 0.65234 0.42578 1.2617 0.89062 1.832 1.3906 1.9805 1.7422 3.4375 3.9023 4.3789 6.2617 0.92188 2.3164 1.332 4.8164 1.2227 7.2773-0.16406 3.7617-1.5195 7.4688-4.0586 10.355-1.4883 1.6914-2.9609 3.0664-4.7617 4.1758-0.23828 0.14844-0.48437 0.28906-0.73437 0.42578l-0.1875 0.20313c-7.1758 7.8555-9.2773 10.16-8.5469 16.988 0.48828 4.543 0.97266 9.3047 1.4609 14.305 0.53125 5.4453 0.96875 10.184 1.3281 14.285 0.054687 0.60938 0.074219 1.293 0.070313 2.0469-0.078126 8.5977-5.332 15.883-12.664 21.16-7.0391 5.0664-16.059 8.3086-24.086 9.0117-1.1406 0.10156-2.3359 0.14453-3.5859 0.13281-14.453-0.13281-30.035-1.7773-46.125-4.4297-13.977-2.3008-28.316-5.3477-42.625-8.8086-9.4648-1.8672-14.871-2.6914-18.387-1.1562-3.4297 1.4961-5.9219 5.6992-9.7109 13.93-4.7891 10.414-9.2734 20.516-13.758 30.605-2.5078 5.6523-5.0117 11.289-6.5273 14.668-0.70703 1.5859-2.5703 2.3008-4.1562 1.5898-1.5859-0.70703-2.3008-2.5703-1.5898-4.1562 2.8516-6.375 4.6914-10.512 6.5273-14.645 4.6133-10.387 9.2266-20.781 13.781-30.68 3.8516-8.375 6.7578-13.301 10.844-15.969-0.95313-0.25391-1.8945-0.50391-2.8281-0.75781-5.2773-1.4258-10.73-2.9805-18.73-5.3203-2.3047-0.67188-4.5391-1.375-6.7031-2.1055-2.1914-0.73828-4.3438-1.5156-6.457-2.332-1.6211-0.625-2.4258-2.4492-1.8008-4.0703s2.4492-2.4258 4.0703-1.8008c2.0156 0.78125 4.0781 1.5234 6.1875 2.2344 2.1367 0.71875 4.2891 1.3945 6.457 2.0312 7.5156 2.1992 12.875 3.7266 18.605 5.2734 5.5039 1.4844 11.094 2.9102 19.219 4.9453 2.0859 0.52344 4.1719 1.0352 6.2578 1.543 0.050781 0.011719 0.10156 0.023437 0.15234 0.035156 14.223 3.4414 28.426 6.4609 42.184 8.7266 15.828 2.6055 31.094 4.2266 45.16 4.3555 0.89062 0.007813 1.8906-0.039062 2.9961-0.13281 6.9961-0.61328 14.844-3.4297 20.953-7.8281 5.8203-4.1875 9.9922-9.7695 10.047-16.102 0.003906-0.39844-0.019531-0.88281-0.070313-1.4531-0.47656-5.4531-0.91406-10.195-1.3047-14.234-0.4375-4.4805-0.92188-9.2109-1.4609-14.23-0.76953-7.1484 0.42578-10.523 4.6094-15.645-6.5039-0.47266-11.312-4.5781-16.281-8.8164-3.9102-3.3359-7.9375-6.7734-12.723-7.8555-1.6953-0.38281-2.7617-2.0664-2.3789-3.7617 0.38281-1.6953 2.0664-2.7617 3.7617-2.3789 6.3125 1.4297 10.941 5.3789 15.434 9.2109 4.9258 4.2031 9.6641 8.2461 15.754 7.1367 1.2969-0.23437 2.3633-0.57031 3.2969-1.0117 0.10156-0.058594 0.20703-0.10938 0.3125-0.15625 0.21875-0.11328 0.42969-0.23438 0.63672-0.35938 1.1562-0.71484 2.2031-1.7109 3.3281-2.9922 1.5625-1.7773 2.3984-4.0898 2.5039-6.457 0.070312-1.5977-0.19141-3.207-0.78125-4.6875-0.57422-1.4375-1.4727-2.7656-2.7031-3.8477-1.6602-1.457-3.9414-2.457-6.8672-2.668-1.668 0.375-3.3359-0.65234-3.75-2.3203-0.41406-1.6875 0.61719-3.3945 2.3047-3.8125 6.9219-1.7188 11.23-4.6016 13.695-7.9258 0.74609-1.0078 1.3281-2.0625 1.7656-3.1445 0.51172-1.5195 0.51172-2.6914 0.15234-3.5273-0.16016-0.37891-0.41016-0.70312-0.71875-0.97266-0.35938-0.3125-0.8125-0.55859-1.3242-0.74219-1.6406-0.57422-3.7695-0.45703-5.7812 0.40625-7.9844 3.4258-19.004 9.9688-29.336 16.203 2.9805-0.10156 6.4453 0.074218 11.266 0.49219 1.7383 0.14844 3.0234 1.6797 2.875 3.418-0.14844 1.7383-1.6797 3.0234-3.418 2.875-12.676-1.0977-15.125-0.36328-26.289 2.9805l-2.0352 0.60938c-1.668 0.49609-3.4258-0.45313-3.9219-2.1211-0.44531-1.4922 0.26953-3.0547 1.6172-3.7227 3.8984-2.2227 8.7461-5.1523 13.848-8.2344 11.25-6.8008 23.746-14.352 32.926-18.289 3.4492-1.4805 7.2539-1.625 10.316-0.55078l0.070313 0.023437c-0.28906-1.1953-0.625-2.5586-1.082-4.3867-0.5-2-0.96875-3.8398-1.3867-5.375-0.03125-0.085938-0.058594-0.17188-0.082032-0.26172-5.2422-19.25 3.0352-23.402 17.352-30.582 3.3438-1.6758 7.0664-3.543 11.156-5.9609 4.4609-2.6367 7.7305-5.7695 8.7461-9.5859 1.0234-3.8477-0.15625-8.7031-4.5664-14.895-8.457-11.867-16.723-26.07-23.328-40.578-6.0312-13.246-10.688-26.75-12.867-39-0.65625-3.6992-0.85938-7.4648-0.375-11.102 0.44531-3.3477 1.4688-6.5508 3.2383-9.4531 1.3555-2.2227 2.5117-3.9453 3.4844-5.3906 3.2773-4.8828 4.125-6.1484 5.3945-18.84 2.1953-21.945-0.42578-34.809-4.9375-56.934-1.2148-5.9648-2.5625-12.582-3.9453-19.941zm160.85 107.58c0.10156 1.082-0.69141 2.0391-1.7734 2.1445-1.082 0.10156-2.0391-0.69141-2.1445-1.7734-0.375-3.8516-1.2852-7.4492-2.918-10.441-1.4023-2.5664-3.3477-4.6914-5.9688-6.1445-0.94922-0.52734-1.2891-1.7266-0.76172-2.6758 0.52734-0.94922 1.7266-1.2891 2.6758-0.76172 3.3164 1.8359 5.7656 4.5 7.5117 7.6992 1.9023 3.4844 2.957 7.5977 3.3828 11.949zm-39.434 117.31c0.10547 0.15234 0.19531 0.31641 0.27344 0.48828 2.3516 5.1953 4.8828 8.7266 7.5898 9.1875 2.6562 0.45312 6.1367-2.0625 10.727-8.9062 9.9414-14.824 17.617-31.094 23.176-46.504 6.8555-19.004 10.488-36.656 11.195-48.668 0.32031-5.4648-0.042968-12.578-1.3438-19.895-1.082-6.0664-2.8086-12.234-5.3242-17.645-2.7383-5.8828-6.3867-10.828-11.117-13.645-3.9453-2.3477-8.7578-3.2461-14.574-1.9922-6.625 1.4297-10.598 8.1758-14.664 15.082-2.9219 4.9609-5.8867 9.9961-10.082 13.84-2.2148 2.0312-4.3438 3.4219-6.6914 4.1133-2.4609 0.72656-5.0039 0.66016-7.9258-0.26953-2.8086-0.89453-6.1992-2.3711-9.6953-4.0469-3.5508-1.7031-7.0391-3.5234-10.125-5.1523-2.625-1.3867-5.3594-2.1484-8.0938-2.3789-5.0312-0.42188-10.074 0.95703-14.461 3.5586-4.4375 2.6328-8.1875 6.5-10.574 11.023-1.4727 2.7891-2.4219 5.8242-2.6836 8.9688-0.25 2.9531-0.25 8.6445 1.7617 14.926 1.3086 4.0859 3.4688 8.4219 6.9648 12.414 5.7188 6.5312 13.5 13.051 20.754 19.129 8.9141 7.4688 17.082 14.312 20.484 20.531 4.7031-4.9453 9.832-9.9766 14.719-14.77 3.332-3.2656 6.5508-6.4219 9.4258-9.3477 5.8828-5.9844 11.969-8.3164 17.332-8.1055 3.3164 0.12891 6.3242 1.2148 8.8438 3.0117 2.4844 1.7734 4.4805 4.2305 5.8047 7.1328 2.3594 5.1758 2.5898 11.781-0.41406 18.367-0.32812 0.72266-0.69141 1.4336-1.082 2.125-0.39844 0.69922-0.82031 1.3867-1.2773 2.0547-0.078125 0.11328-0.16016 0.21875-0.25 0.32031h0.003906l-24.828 27.84c-1.1602 1.3008-2.5312 3.8789-3.8398 7.207zm-29.121-30.762c-0.97266-4.957-9.8984-12.438-19.844-20.773-7.4141-6.2109-15.359-12.871-21.445-19.82-4.1367-4.7227-6.6836-9.832-8.2227-14.633-2.3438-7.3242-2.3438-13.938-2.0547-17.367 0.33594-4.0039 1.5391-7.8594 3.3984-11.383 2.9336-5.5547 7.5234-10.297 12.941-13.516 5.4688-3.2461 11.809-4.957 18.188-4.4219 3.543 0.29688 7.0938 1.2891 10.512 3.0938 3.1719 1.6758 6.6914 3.5117 9.9023 5.0547 3.2695 1.5703 6.3984 2.9375 8.8789 3.7266 1.6523 0.52734 3.0156 0.58594 4.25 0.22266 1.3516-0.39844 2.7109-1.3203 4.2227-2.707 3.4844-3.1953 6.2109-7.8242 8.8984-12.387 4.7852-8.125 9.457-16.059 18.758-18.066 7.5234-1.625 13.848-0.40234 19.113 2.7305 5.9492 3.5391 10.402 9.4648 13.633 16.406 2.7617 5.9375 4.6484 12.648 5.8203 19.223 1.3867 7.7812 1.7695 15.426 1.418 21.352-0.25781 4.3711-0.88281 9.4492-1.8906 15.047 0.097656 0.03125 0.19141 0.070313 0.28516 0.10938l29.047 12.926c9.8828 4.3984 10.859 8.8633 12.152 17.785 3.7656 13.465 8.2969 26.711 13.422 39.566 5.4102 13.57 11.492 26.73 18.043 39.281 2.4453 4.6875 2.3945 9.3828 0.98047 13.867l0.027344 0.023438c5.8672 5.5273 7.1055 12.078 6.2695 18.434-0.78516 5.957-3.4023 11.551-5.5938 15.859-8.7305 17.141-18.598 31.535-28.02 45.273-20.762 30.273-39.309 57.324-37.758 103.85 0.054688 1.7383-1.3086 3.1875-3.0469 3.2422s-3.1875-1.3086-3.2422-3.0469c-1.6211-48.594 17.473-76.438 38.84-107.6 9.293-13.555 19.027-27.75 27.602-44.582 1.9766-3.8789 4.3281-8.875 4.9805-13.812 0.51953-3.9258-0.054688-7.9336-2.8672-11.438-1.4141 2.4258-3.0859 4.7227-4.7773 6.8516-1.082 1.3633-3.0664 1.5898-4.4258 0.50391-1.3633-1.082-1.5898-3.0664-0.50391-4.4258 2.5156-3.168 4.9727-6.7109 6.2656-10.32 1.1602-3.2422 1.3672-6.5781-0.29688-9.7695-6.6484-12.738-12.82-26.094-18.312-39.875-0.77344-1.9336-1.5312-3.8789-2.2734-5.8281l4.8398 32.949c1.9258 13.121 2.0625 14.047-9.2656 22.633-1.3906 1.0508-3.3672 0.77344-4.4141-0.61719-1.0508-1.3906-0.77344-3.3672 0.61719-4.4141 8.3477-6.3242 8.2461-7.0078 6.8242-16.688l-9.4141-64.113h0.007813c-0.26953-1.6797-0.43359-2.8203-0.58594-3.8867-1.0469-7.2969-1.5508-10.812-8.625-13.961l-28.023-12.469c-1.5273 7.0547-3.5977 14.742-6.2383 22.734 0.25781 0.13281 0.5 0.30078 0.71875 0.50781 1.5 1.4102 3.0391 2.6992 4.4844 3.9102 4.7305 3.9648 8.5703 7.1836 10.023 13.281 0.9375 3.9297 0.69531 9-0.8125 14.227-1.3398 4.6523-3.6836 9.4727-7.0781 13.746l-33.754 42.492c-2.7734 3.4922-6.2812 5.4922-9.9727 6.4258-4.3125 1.0898-8.8398 0.67969-12.66-0.51562-2.1562-0.67578-3.9766-1.7266-5.5039-3.0898-4.543-4.0508-6.2734-10.656-6.3047-17.914-0.03125-6.7891 1.4141-14.207 3.3711-20.461 1.9766-6.3203 4.5547-11.621 6.7422-14.074l24.707-27.699c0.32422-0.48828 0.62109-0.96484 0.88281-1.4297 0.31641-0.55859 0.59375-1.1016 0.83594-1.6328 2.1875-4.7969 2.0664-9.5117 0.41406-13.137-0.86328-1.8984-2.1484-3.4883-3.7305-4.6172-1.5508-1.1055-3.3945-1.7734-5.4141-1.8516-3.7188-0.14453-8.1172 1.6484-12.617 6.2305-2.9141 2.9648-6.1484 6.1367-9.5 9.4219-8.918 8.7461-18.641 18.281-24.785 26.316-0.039063 0.058594-0.078125 0.11719-0.12109 0.17188-5.7188 7.5156-9.0391 16.785-12.375 26.086-1 2.793-2.0039 5.5898-3.0156 8.2148-5.7734 14.965-9.1953 33.746-10.418 51.684-1.3125 19.285-0.082031 37.453 3.5039 48.723 2.1797 6.8477 4.3203 12.789 6.3047 18.289 9.0352 25.078 14.852 41.211 8.2266 95.234-0.21094 1.7305-1.7852 2.9609-3.5156 2.75-1.7305-0.21094-2.9609-1.7852-2.75-3.5156 6.4453-52.586 0.83594-68.152-7.8828-92.352-1.9961-5.5391-4.1484-11.52-6.3789-18.508-3.8281-12.016-5.1602-31.043-3.8008-51.039 1.2578-18.492 4.8164-37.93 10.836-53.531 1.0664-2.7617 2.0156-5.4141 2.9648-8.0664 3.5039-9.7773 6.9961-19.52 13.285-27.789 0.042969-0.058594 0.089844-0.11328 0.14062-0.16797 1.7617-2.3047 3.7734-4.6953 5.9531-7.1367zm76.793-12.801c-5.7227 15.852-13.617 32.582-23.852 47.836-6.207 9.2578-11.859 12.5-17.016 11.617-3.7148-0.63281-6.8242-3.3867-9.4766-7.5547-1.2266 4.8008-2.0469 9.9961-2.0234 14.77 0.023438 5.5938 1.1836 10.527 4.2109 13.23 0.87891 0.78125 1.9297 1.3906 3.1836 1.7812 2.832 0.88672 6.1562 1.1992 9.2578 0.41797 2.4297-0.61328 4.7422-1.9336 6.5664-4.2305l33.754-42.492c2.875-3.6211 4.8516-7.668 5.9688-11.551 1.1992-4.1641 1.418-8.0938 0.71484-11.043-0.97266-4.0703-4.0898-6.6836-7.9297-9.9023-1.0703-0.89453-2.1875-1.8359-3.3594-2.8828zm-230.52-120.52c-1.7383-0.046875-3.1055-1.4961-3.0586-3.2305 0.046875-1.7383 1.4961-3.1055 3.2305-3.0586 7.4648 0.22656 18.66 1.7422 29.219 6.293 7.6445 3.293 14.988 8.1758 20.457 15.301l0.0625 0.085937 0.054687 0.070313c0.43359 0.5625 0.86719 1.1289 1.2852 1.7891 5.2461 8.3281 0.46484 11.539-5.7891 15.742-0.67188 0.44922-1.3633 0.91406-1.875 1.2734-1.2617 0.87891-2.9414 0.70703-4-0.33203-16.543-15.145-29.336-21.051-42.375-21.211-13.234-0.16016-27.207 5.5469-45.695 13.551-1.5938 0.6875-3.4453-0.046876-4.1328-1.6406-0.46094-1.0664-0.28516-2.2461 0.35938-3.1172l-0.003906-0.003906c4.3594-5.8789 9.3477-10.617 15.332-14.734 5.9023-4.0625 12.738-7.5 20.879-10.836 1.6055-0.66016 3.4453 0.10547 4.1055 1.7148 0.66016 1.6055-0.10547 3.4453-1.7148 4.1055-7.7422 3.1719-14.199 6.4102-19.695 10.195-1.2266 0.84375-2.4023 1.7148-3.5391 2.6172 12.668-5.0586 23.438-8.2734 34.172-8.1445 14.152 0.17187 27.781 6.1289 44.773 21.262 3.3281-2.2344 5.8398-3.9648 3.8672-7.0938-0.26172-0.41797-0.60156-0.85938-0.94141-1.2969l-0.0625-0.082031c-0.027344-0.03125-0.050781-0.0625-0.078125-0.097656-4.7227-6.1484-11.176-10.414-17.941-13.328-9.7344-4.1953-20.035-5.5938-26.898-5.8008zm9.3555 86.828c-0.53906-0.94141-0.21484-2.1406 0.72266-2.6836 0.94141-0.53906 2.1406-0.21484 2.6836 0.72266l3.0039 5.2148c0.53906 0.94141 0.21484 2.1406-0.72266 2.6836-0.94141 0.53906-2.1406 0.21484-2.6836-0.72266zm6.0898-2.457c-0.72656-0.80469-0.66406-2.0469 0.14062-2.7734 0.80469-0.72656 2.0469-0.66406 2.7734 0.14062l5.0469 5.5898c0.72656 0.80469 0.66406 2.0469-0.14062 2.7734-0.80469 0.72656-2.0469 0.66406-2.7734-0.14062zm-0.53906-32.754c1.7188 3.1328 2.7734 7.3164 2.7734 11.867 0 3.7617-0.72266 7.2734-1.9414 10.145 0.44531 0.3125 0.82031 0.74219 1.0625 1.2734 0.72266 1.582 0.027344 3.4453-1.5547 4.168-2.8477 1.3047-4.7852 2.1758-6.3047 2.7188-1.7969 0.64063-3.2109 0.93359-4.875 1.0117-10.742 0.51562-30.699-9.7969-42.48-15.883-1.4844-0.76562-2.8359-1.4648-3.9805-2.0469-2.5352-0.98047-5.0977-2.5898-7.5898-5.082-1.2344-1.2266-1.2383-3.2188-0.011719-4.4531 1.2266-1.2344 3.2188-1.2383 4.4531-0.011719 1.8477 1.8438 3.6875 3.0078 5.4648 3.6875 0.050781 0.019531 0.10156 0.035156 0.15234 0.058593 0.20312 0.074219 0.40625 0.14453 0.60547 0.20313 1.9883 0.61719 3.9375 0.66797 5.7461 0.42969 4.668-0.61328 11.855-3.418 19.07-6.6875 7.3984-3.3516 14.73-7.1523 19.559-9.6562 1.6445-0.85156 3.1836-1.4922 4.8984-1.6133 1.9492-0.13672 3.8242 0.39453 5.7891 1.9883 1.9961 1.6211 4.0742 1.5859 6.3242 0.59375 2.9492-1.2969 6.3281-4.082 10.094-7.2227 1.3359-1.1172 3.3242-0.94141 4.4414 0.39453s0.94141 3.3242-0.39453 4.4414c-4.1367 3.4531-7.8633 6.5195-11.598 8.1602-1.2656 0.55859-2.5117 0.95313-3.7461 1.1562 0.86328 0.49609 1.6914 0.78125 2.4453 0.73438 1.9219-0.11719 4.0234-0.82031 6.2773-2.0078 2.3633-1.2461 4.875-3.0195 7.5039-5.2148 0.83594-0.69922 2.0781-0.58594 2.7734 0.24609 0.69922 0.83594 0.58594 2.0781-0.24609 2.7734-2.832 2.3633-5.5703 4.293-8.1992 5.6758-2.7383 1.4414-5.3711 2.3008-7.8828 2.457-3.1484 0.19531-6.0391-1.9492-8.625-4.3203zm-17.816 23.988c-1.8008-3.1602-2.9141-7.4453-2.9141-12.121 0-2.9336 0.4375-5.7148 1.2109-8.1602-2.3711 1.1562-4.8398 2.3281-7.3047 3.4453-5.7461 2.6016-11.555 4.9414-16.383 6.2461 8.1719 4.1094 17.93 8.6758 25.395 10.59zm12.176-21.145c-0.99219-1.7266-2.1836-2.7969-3.3398-2.7969s-2.3477 1.0703-3.3398 2.7969c-1.2969 2.2578-2.0977 5.4453-2.0977 9.0234s0.80078 6.7656 2.0977 9.0234c0.99219 1.7266 2.1836 2.7969 3.3398 2.7969s2.3477-1.0703 3.3398-2.7969c1.2969-2.2578 2.0977-5.4453 2.0977-9.0234s-0.80078-6.7656-2.0977-9.0234zm-42.914-0.11719c-0.96875 0.48438-2.1523 0.09375-2.6367-0.87891-0.48438-0.96875-0.09375-2.1523 0.87891-2.6367l4.4414-2.2266c5.7422-2.8633 11.504-5.7383 16.984-8.6992l0.69922-0.37891c10.922-5.9102 20.293-10.984 29.848-1.0195 0.75391 0.78516 0.73047 2.0273-0.054688 2.7812-0.78516 0.75391-2.0273 0.73047-2.7812-0.054687-7.4805-7.8008-15.637-3.3867-25.145 1.7578l-0.69922 0.37891c-5.668 3.0625-11.387 5.918-17.09 8.7617-2.8633 1.4297-3.2344 1.6055-4.4414 2.2109zm69.863 117.95c1.7109 0.32031 2.8359 1.9648 2.5156 3.6758-0.32031 1.7109-1.9648 2.8359-3.6758 2.5156-4.7891-0.91406-8.082-2.1719-10.391-4.4727-2.418-2.4141-3.4844-5.625-3.6875-10.332-0.26172-5.9648 2.0195-9.0391 5.0469-13.117 1.4961-2.0156 3.207-4.3242 4.7969-7.4688 0.78516-1.5547 2.6758-2.1758 4.2305-1.3945 1.5547 0.78516 2.1758 2.6758 1.3945 4.2305-1.8242 3.6094-3.7148 6.1562-5.3633 8.3789-2.2656 3.0547-3.9766 5.3594-3.8125 9.0977 0.13281 3.0469 0.66406 4.9648 1.8398 6.1367 1.2852 1.2852 3.5781 2.0703 7.1094 2.7461zm41.141-11.266c1.7148 0.27734 2.8828 1.8984 2.6016 3.6133-0.27734 1.7148-1.8984 2.8828-3.6133 2.6016-6.6211-1.0859-11.254-0.91406-14.828 0.097657-3.4336 0.96875-6 2.7812-8.5078 5.0039-1.3008 1.1523-3.2891 1.0312-4.4414-0.26953-1.1523-1.3008-1.0312-3.2891 0.26953-4.4414 3.1445-2.7891 6.418-5.0742 10.977-6.3633 4.4141-1.2461 9.918-1.4922 17.543-0.24609z"/>
</svg>
