<?xml version="1.0" encoding="UTF-8"?>
<svg width="752pt" height="752pt" version="1.1" viewBox="0 0 752 752" xmlns="http://www.w3.org/2000/svg">
 <path d="m560.13 416.11c-7.0078-2.7461-13.828-6.1562-20.836-9.2812-7.3906-3.3164-15.062-5.6836-22.449-8.3359-7.7656-2.5586-15.156-6.0625-22.73-9.0938-3.6953-1.5156-7.5781-2.7461-11.27-4.0742-0.19141-0.09375-0.57031-0.09375-0.76172-0.09375 2.1797 0.1875 4.4531 0 6.4414-0.94531 3.6953-1.8945 7.1992-6.4414 7.5781-10.512 0-1.3242-0.56641-2.5586-1.7031-2.9375-3.6016-1.3281-6.918-2.8438-10.23-4.6406-3.3164-1.8008-6.9141-3.4102-10.23-5.3984-3.125-2.0859-6.0625-4.4531-9.1875-6.4414-3.3164-2.1797-6.6289-4.2617-9.8516-6.8203-5.7773-4.6406-9.9453-10.891-17.051-13.734-2.9336-0.94531-6.0586-1.3242-8.332-3.125v-0.75781c-0.47266-3.8828-1.6094-7.7656-2.7461-11.648-1.1367-4.2656-2.7461-8.3359-4.832-12.219-4.0703-7.7695-8.9961-14.965-13.828-22.258-4.4492-6.8203-10.039-12.883-15.531-18.66-5.5898-5.4961-11.461-10.703-18.852-13.641-1.8945-0.75781-2.7461 1.8945-1.1367 2.7461 6.4414 3.6953 12.219 9.0938 17.238 14.777 5.3047 5.7773 10.324 12.027 14.59 18.848 4.4531 7.0078 8.9023 14.586 12.406 22.164 1.8008 3.5977 3.125 7.293 4.0742 10.988-0.94531-0.56641-2.3672 0.1875-1.8945 1.5156 1.3242 3.125 3.6953 5.5898 5.2109 8.5234 1.7031 3.125 3.5039 4.6406 6.6289 5.7773 4.0703 1.4219 7.5742 2.2734 10.891 5.1133 3.2188 2.75 5.9688 6.0625 9.0938 9 2.9375 2.5586 6.0625 5.0195 9.4727 7.0078 3.5039 2.2734 6.8164 4.832 10.133 7.1055s7.0078 3.8828 10.512 5.7773c3.0312 1.6094 5.9688 3.125 8.9062 4.3555-0.56641 1.8945-1.9883 3.5039-3.6953 4.2617-1.8945 0.94531-4.0742 0.1875-5.8711-0.37891 1.3242-1.9883 1.8945-4.4531-0.1875-6.25-0.19141-0.56641-0.57031-1.3242-1.5195-1.7031-3.3164-1.1367-6.4414-1.8945-9.6602-3.3164-3.8828-1.6094-7.5781-3.5039-11.27-5.2109-6.8203-3.3125-13.453-7.5742-19.23-12.691-2.5547-2.4609-5.207-5.207-7.3867-7.957-2.3672-3.2188-5.3984-4.8281-8.9023-6.5352-1.9883-0.85156-3.3164-1.6094-4.4531-3.6914-0.94531-1.3242-1.7031-2.9375-2.3672-4.2617-1.9883-3.5078-3.8828-7.0117-6.0625-10.516-0.94531-1.5156-3.0312 0.19141-2.2734 1.707 1.9883 3.5039 3.3164 7.5781 5.0195 11.27 1.5156 2.7461 2.3672 5.7773 5.0195 7.7656 3.5039 2.5586 7.5781 3.125 10.512 6.8203 2.3672 2.7461 4.832 5.5898 7.3867 8.1445 5.7812 5.3984 12.414 9.5664 19.23 13.168 3.5039 1.8945 7.1992 3.3164 10.891 5.2109 3.5039 1.8945 7.1992 2.7461 10.891 4.0742-0.089844 1.0391-0.089844 1.7969-1.4141 2.9336-1.1367 0.85156-2.5586 1.2305-4.0742 1.6094-3.125 0.56641-6.25 0.37891-9.4727-0.1875-5.1133-1.1406-10.133-2.9375-14.586-6.0625-0.1875-0.19141-0.37891-0.37891-0.56641-0.57031-2.75-1.7031-5.1172-3.8828-7.7695-5.7773-2.5547-1.9883-5.4922-3.3164-8.1445-5.3047-5.3047-3.8828-9.7539-9.0938-13.828-14.492-4.0742-5.1133-7.7656-10.512-10.891-16.102-1.8945-3.125-2.7461-6.4414-3.6953-9.9453-1.1367-3.8828-2.4648-7.3867-3.8828-11.27-0.57031-1.707-3.0312-0.75781-2.6523 1.043 1.8945 7.293 2.2734 14.68 5.7773 21.5 3.125 6.0625 7.3867 11.84 11.27 17.617 4.0742 5.5898 8.5234 10.891 13.828 15.156 2.8438 2.1758 6.1602 3.8789 8.9062 5.6797 2.5586 1.8945 5.0195 3.6953 7.7656 5.2109-0.56641 1.1367-0.94531 1.7031-2.1797 2.1797-1.7031 0.37891-3.5039 0.1875-5.2109 0-6.4375-0.66406-12.215-3.1289-17.613-6.8203-5.8711-4.0742-10.891-9.4727-15.535-14.777-1.9883-1.9883-3.5039-4.4531-5.0195-6.6289-0.85156-1.5156-1.8008-2.2734-2.9375-2.4648-2.3672-2.3672-5.6797-3.125-7.9531-5.6836-2.3711-3.0273-4.0742-6.3438-6.8203-8.9023-2.7461-2.5547-6.8203-3.8828-9.7578-6.3438-3.3164-2.5586-6.0625-5.7773-8.3359-9.4727-4.2617-6.5352-7.1953-14.301-9.8477-21.598-1.4219-4.2617-2.3672-8.4297-2.7461-12.879-0.37891-3.8828 1.1367-6.1562 3.6914-8.9023 1.1367-1.3242-0.75781-3.125-1.9883-2.1797-1.5156 1.1367-2.9375 1.8945-4.2617 2.7461-1.5156-2.082-4.0742-3.125-6.1562-4.4531-3.125-2.082-6.8203-2.7461-10.324-4.6406-1.5156-0.75781-2.8438 1.5156-1.5156 2.5586 2.6523 2.2734 5.3984 4.2617 8.1445 6.3477 2.0859 1.418 3.8828 3.6914 6.3477 4.8281-1.5156 3.8828 0 9.2812 0.75781 12.785 2.1758 9 6.0625 17.902 10.324 26.238 0.56641 1.1367 1.3242 2.3672 1.9883 3.5039-5.8711-3.8828-11.27-7.957-15.914-13.164-2.3672-2.9375-4.4531-6.0625-7.5781-8.3359-3.5039-2.1797-7.5781-3.5039-11.461-4.2617-4.0742-0.94531-8.5234-0.94531-12.406-0.37891-4.8281 0.75781-9.7539 2.082-14.586 0.56641-1.5156-0.37891-3.125 0-3.6953 1.5156-1.8945 4.6406-0.37891 10.512 2.9375 14.207-2.5547 3.0312-0.37891 7.3906 1.707 10.043 0.75781 1.1367 1.8945 1.9883 2.9375 2.9375-0.19141 0.56641-0.38281 1.1328-0.38281 1.7031 0.37891 4.832 4.832 9.8516 9.8516 10.703-0.56641 5.0195 3.9766 7.957 8.2422 9.2812 0.37891 0 0.94531 0.1875 1.3242 0.1875 1.5156 3.5039 2.5586 7.1992 4.2617 10.324 2.1797 3.8828 5.2109 7.1992 8.5234 10.324 5.875 5.4023 13.262 8.3359 20.176 12.598-8.1445-0.75781-16.859 0.94922-24.246 3.1289-16.293 5.0195-31.824 12.215-47.547 18.754-15.723 6.6289-31.824 12.027-47.926 17.809-7.3867 2.5586-15.156 3.6953-22.164 7.3867-6.7266 3.2188-12.219 7.8594-17.238 13.258-2.1797 2.3672 1.1367 5.4922 3.6914 4.0742 5.5898-3.5039 10.891-7.957 16.859-10.891 6.4414-3.3164 13.734-4.2617 20.555-6.6289 15.531-5.1211 30.879-10.422 45.844-16.578 15.156-6.25 30.121-12.977 45.465-18.281 7.0078-2.3672 14.02-4.6406 21.5-5.2109 3.5039-0.1875 6.8203 0 10.324 0.37891 2.082 0.19141 3.8828 0.75781 5.7773 1.3281 5.0195 4.0703 9.7539 8.7109 12.785 14.207 2.3672 4.2617 4.0742 8.9023 5.6836 13.543 0.94531 2.3672 1.8945 4.6406 2.8398 6.8203 0.1875 0.1875 0.37891 0.56641 0.37891 0.75781h-1.1367c-2.9336-0.37891-5.9648 0.75781-8.7148 1.5156-1.7031 0.28516-0.94531 2.7461 0.57031 2.7461 5.3984-0.1875 10.324 1.5156 14.965 3.8828 1.3242 0.56641 2.3672 0 3.3164-0.94531 4.0742-4.2617 7.7656-8.9023 11.27-13.543 3.3164-4.0742 6.4414-8.9023 10.703-12.219 3.5977-2.5586 6.9141-2.9375 10.988-2.1797 0.56641 0 1.1367 0.1875 1.7031 0.37891-0.37891 0.37891-0.56641 0.75781-0.94531 1.1367-1.5156 1.6094-2.8438 3.6914-3.8828 5.8711-2.4648 4.2617-3.8867 9.0938-6.1562 13.355-2.3711 4.2617-5.3047 7.7656-8.7148 11.27-3.6953 3.6953-7.957 6.4414-12.312 9.2852-4.4531 2.5547-9.6641 5.3008-12.41 9.7539-0.37891 0.56641-0.37891 1.3242-0.1875 1.8945-0.37891 0.75781 0.1875 1.4219 0.85156 1.6094 0.56641 0.37891 1.5156 0.37891 2.3672-0.1875 0.75781-0.56641 1.5156-1.1367 2.1797-1.8945 2.5586-0.56641 5.7773-0.37891 7.5781-0.1875 2.9375 0.1875 5.7773 1.7031 8.9023 1.3242 2.8398-0.28516 4.3555-3.5039 5.6836-5.6836 0.94531-1.9883 1.9883-2.9375 3.8828-4.2617 1.9883-1.3281 4.0703-2.1797 6.0625-3.3164 5.7773-3.3164 6.25-12.219 12.219-14.965 2.5547-1.1367 10.039-4.0742 11.648-0.75781v0.1875c-3.8828 2.9375-6.6289 6.4414-8.9023 11.082-2.3672 5.0234-4.2617 10.516-7.957 14.969-1.8008 2.2695-4.5469 3.6914-6.8203 5.5859-2.3672 1.8008-4.2617 4.0742-5.8711 6.4414-0.56641 0.94531-1.7031 2.9375-2.9375 4.832-0.75781 0.37891-1.5156 1.3242-1.7031 2.082-0.57031 0.47266-1.1367 0.85156-1.707 0.85156-1.2305-0.1875-2.7461-1.0391-4.0703-1.6094-1.6133-0.75781-3.5078-1.5156-5.3047-2.082-6.5352-1.9922-12.598-0.57031-19.133-0.19141-7.1992 0.57031-10.516-8.3359-14.398-12.883-4.0703-5.207-9.2812-9.2812-13.164-14.68-1.9883-2.7461-3.8828-5.6836-5.3047-8.7148-1.3242-2.5547-2.4609-5.4922-3.8828-8.0508 0.37891-2.8398 0.37891-5.7773 0.75781-8.7109 0.37891-1.707-2.0859-2.2734-2.8438-0.75781-0.75781 1.7031-1.5156 3.3164-1.8945 5.2109-4.4531-0.56641-8.5234 1.8945-11.84 4.6406-3.5977 2.9336-7.1016 6.4375-10.797 9.7539-9.0898 7.957-17.805 16.48-27.941 23.488-10.418 7.1992-20.93 14.586-32.203 20.176-11.461 5.4922-23.68 8.9023-35.707 12.406-2.082 0.57031-1.3242 3.8828 0.75781 3.5039 11.84-2.4609 23.867-4.8281 35.141-8.9023 11.648-4.0703 21.973-11.082 32.012-17.902 9.9453-6.6289 18.848-14.207 27.75-22.352 4.0742-3.6953 8.5234-7.0078 12.406-10.891 2.3672-2.1797 5.7773-6.25 9.4727-6.25 0.94531 2.7461 2.3672 5.3984 3.6953 7.7656 1.7031 3.3164 3.5039 6.25 5.5898 9.2812 4.2617 5.7773 10.133 10.133 14.586 15.914 4.0742 5.3984 7.0078 11.84 14.207 13.734 3.125 0.94531 6.6289 0.37891 9.8516-0.1875 0.1875-0.1875 0.37891-0.1875 0.75781-0.1875 0.47266-0.007812 0.94922 0.18359 1.5156 0.37109 1.1367 0.57031 2.6523 2.5586 3.5039 3.5039 1.1367 1.3242 1.9883 2.5586 3.125 3.8828 2.2734 2.3711 4.4531 4.2656 7.293 5.875 2.9375 1.7031 5.875 3.4102 8.9062 4.6406 13.164 4.6406 13.164 4.6406 19.227 1.8945 2.9375-2.0859 4.4531-3.3164 6.25-5.5898 2.7461-0.75781 5.3984-1.3242 8.5234-1.3242 1.8945 0 3.6953-0.1875 5.5898-0.75781 0.75781 0 1.7031-0.1875 2.5586-0.37891 3.125-0.75781 5.8711-2.9375 8.5234-5.0195 2.1797-1.6094 4.4531-3.2227 6.8203-4.5469 1.8008-1.043 3.125-2.1797 4.2617-4.0742 1.1367-1.8945 0.75781-4.4531 1.1367-6.4414 0-0.56641 0-1.1367 0.1875-1.7031 4.832 2.5586 9.8516 4.832 14.777 7.1992 5.7773 2.9375 11.27 5.8711 17.238 8.9023 5.6836 3.0312 11.555 5.9688 17.332 9.0938 6.0625 3.125 12.027 7.5781 18.469 9.8516 3.8867 1.418 6.5391-3.2227 3.6953-6.1602-4.7344-5.0195-11.648-8.1445-17.523-11.461-6.1562-3.3125-12.219-6.4375-18.469-9.6602-6.1562-3.125-12.027-6.25-18.184-9.1875-4.832-2.2734-9.7578-4.2617-14.965-4.4492 0.1875-0.56641 0.56641-0.94531 0.94531-1.5156 0.94531-1.3242 0.37891-2.7461-0.75781-3.5039 0-0.56641-0.37891-0.94531-0.94531-1.3242-5.3984-2.9414-12.41 1.3242-15.914 5.3945-2.1797 2.5586-2.7461 5.5898-4.0742 8.5234-0.56641 1.6133-1.9883 2.75-3.6914 3.5078v0.1875c-0.37891 0.19141-0.57031 0.37891-0.94922 0.75781 1.7031-5.3984 3.5039-10.703 7.3867-14.965 0.37891-0.37891 0.37891-0.56641 0.37891-0.94531 0.75781-1.1367 0.75781-2.5586-0.94531-3.3164-5.1133-2.2734-9.5664-3.0312-14.965-0.57031-4.4531 1.8945-8.1445 5.3984-9.8516 10.133-0.66016 2.4648-1.6094 2.8438-3.7891 4.0742-1.8945 0.94531-3.5039 2.3672-5.2109 3.6953-0.94531 0.56641-1.7031 1.3242-2.5586 1.7031-0.75391 0.57031-2.2695 0.19141-3.1211 0.19141-0.56641 0-0.94531-0.1875-1.3242-0.37891 0.94531-1.5156 1.8945-2.9375 2.9375-4.4531 1.8945-2.5586 4.6406-4.6406 7.1992-6.6289 4.8281-4.0742 7.5742-9.2812 10.035-15.059s5.0195-12.027 9.9453-15.914c0.56641-0.37891 0.75781-0.75781 0.75781-1.3242v-0.09375c1.3242-2.5586-0.37891-5.2109-2.9375-6.0625s-5.7773-0.56641-8.5234 0c-2.7461 0.66016-5.3984 1.418-7.7656 2.9336-3.125 1.9922-5.2109 5.875-6.8203 9-1.3242 2.082-2.8398 3.8828-4.6406 5.3984-2.082 1.7031-4.832 2.5586-6.8203 3.8828-1.9883 1.3281-3.0312 2.5586-4.2617 4.4531-0.37891 0.94531-1.7031 4.0742-2.5586 4.0742-1.7031 0.1875-3.6953-0.75781-5.3984-0.94531-1.1367-0.38281-2.2734-0.38281-3.3125-0.19531 1.8945-1.3242 3.6953-2.3672 5.5898-3.5039 4.7344-3.3125 9.1836-7.1992 13.066-11.648 3.6953-4.0742 6.4414-8.7148 8.7148-13.734 2.3672-5.2109 3.6953-12.406 8.5234-15.723 1.6133-1.043 1.9922-3.125 1.2344-4.7344-0.75781-2.0859-3.1289-2.8438-5.0234-3.2227-4.1641-1.043-8.6172-0.66406-12.5 1.3281-5.5898 2.7461-9.0938 7.7656-12.789 12.406-3.125 4.0742-6.3438 8.1445-9.8477 11.84-0.66406-2.5586-2.5586-5.3984-3.5039-7.7656-1.8008-5.0195-3.6953-9.9453-6.0625-14.777-4.4531-8.9023-12.031-14.965-19.418-21.312-3.5039-2.9336-7.1992-5.8711-11.461-8.1445-4.4531-2.1797-8.9023-4.2617-12.977-7.3867-3.6914-2.5586-7.0078-5.5898-9.8516-9.0938-2.1758-2.7461-3.8828-5.8711-5.6797-8.8086 3.5039-0.94531 6.6289-3.3164 6.0625-6.6289-0.38281-1.5156-1.6133-2.4648-3.1289-1.8945-1.5156 0.37891-1.9883 1.2305-3.125 2.1797-1.1367 0.94531-2.7461 1.1367-4.4531 0.94531-1.7031-0.37891-5.0195-2.082-2.9336-3.8828 4.832-4.4531 14.207-5.7773 20.363-3.3164 1.5156 0.75781 2.9375-1.5156 1.5156-2.3672-4.9258-3.4102-10.797-4.832-16.574-3.4102-2.9375 0.75781-6.6289 1.9883-9.0938 4.2617-1.9883-0.94531-4.4531-1.5156-5.8711-2.9375 3.8828-0.56641 7.5781-2.7461 11.27-3.8828 6.1562-2.082 13.164-2.082 19.605-0.56641 1.5156 0.37891 2.4648-2.3672 0.75781-2.9375-5.8711-1.8945-11.648-3.3125-17.902-2.9336-3.125 0.1875-6.1562 1.0391-8.9023 2.1758-0.94531 0.37891-1.7031 0.75781-2.5586 0.94531-1.1328-0.1875-2.4609-0.1875-3.5039-0.75391-1.7031-0.57031-3.0312-1.8945-3.8828-3.125-0.56641-0.57031-1.3242-1.5156-1.5156-2.2734 0.37891-0.19141 0.94922-0.19141 1.3281-0.19141 0.94531-0.1875 1.9883-0.1875 3.125-0.37891 8.7148-0.37891 17.051-0.1875 25.574 2.3672 1.7031 0.56641 2.7461-1.8945 1.1367-2.5586-6.1562-2.5547-11.934-4.7344-18.375-5.3008-2.9375-0.1875-6.0625 0-9.0938 0h-1.1367c-0.37891-0.19141-0.75781-0.37891-1.043-0.57031-2.6523-0.37891-4.0703-4.0703-4.2617-6.8164 7.3867 0.94531 14.586-1.7031 21.973-0.94531 4.4531 0.37891 8.3359 1.8945 11.461 5.0195 2.5586 2.7461 4.6406 5.8711 7.1992 8.7148 5.5898 5.8672 12.41 10.508 19.605 14.395 3.6953 1.9883 7.5781 3.6953 11.27 5.2109 1.5195 0.46875 2.8438 1.0391 4.0781 1.6055 0.56641 0.37891 1.3242 0.75781 1.8945 0.94531 4.0742 2.1797 5.8711 6.25 8.9023 9.4727 2.5586 2.7461 7.3867 6.4414 11.461 5.7773 0.1875 0.1875 0.1875 0.37891 0.37891 0.56641 0.75781 1.0469 1.2305 2.2773 2.1758 3.4141 2.3672 3.5039 5.3984 6.6289 8.1445 9.8516 5.3984 5.8711 10.703 10.891 17.902 14.398 5.3984 2.7461 11.461 4.0742 17.617 3.8828 3.3164 0 7.7656-1.9883 8.7148-5.0195 5.0195 3.3164 11.082 5.2109 16.859 5.5898 1.9883 0.1875 4.0742 0.1875 6.25-0.1875 5.3984 4.6406 12.598 6.8203 18.848 9.8516 7.7656 3.5039 15.156 7.3867 23.109 10.512 7.7656 2.9375 15.723 5.5898 23.301 9.0938 7.3867 3.3164 14.398 6.8203 22.164 8.9023 4.1719 1.0352 5.9688-5.5 2.0859-7.1094zm-105.23 56.262c2.1797-1.5156 2.9375-4.2617 3.6953-6.4414 1.3281-3.2188 3.3164-5.5859 6.1562-7.4805 1.8945-1.3242 3.6953-1.5156 5.7773-1.5156-0.94531 1.7031-1.8945 3.5039-2.3672 5.3984-1.043 2.7461-0.85156 5.5859-1.4219 8.5234-0.1875 1.5156-1.9883 2.1797-3.3125 2.9375-2.75 1.7031-5.2109 3.5039-7.7695 5.5859-1.5156 1.1367-2.7461 1.9922-4.4492 2.5586-3.125 0.37891-6.25 1.1367-9.4727 1.5156-0.56641 0.1875-0.94531 0.1875-1.5156 0.37891 1.7031-1.3242 3.5039-2.1797 5.0195-3.6953 1.9883-1.8945 2.9375-4.0742 3.6953-6.4414 0 0.37891 0 0.56641-0.1875 0.94531 2.2695-0.46875 4.2578-1.0391 6.1523-2.2695zm-34.191 4.5469c4.2617-0.66406 6.4414-4.9258 10.137-6.8203 1.7031-0.94531 3.3164-1.7031 4.2617-3.3164 1.3242-2.1758 1.5156-4.8281 3.3125-6.8164 1.7031-1.9883 4.0742-3.3164 6.4414-4.2617 2.7461-0.94531 5.2109-0.37891 7.5781 0.37891-3.125 2.5547-5.3047 5.8711-6.8203 9.7539-0.85156 2.6523-1.4219 5.2109-2.1797 7.7656-0.94531 2.3672-2.9375 3.6953-5.0195 5.0195-2.082 1.3281-3.6914 2.5586-5.3008 4.4531-1.8945 1.9883-4.832 6.0625-7.0078 7.7656-4.1719 2.7461-7.4844-0.37891-12.125-0.1875-1.6133-0.94922-3.3164-2.0859-5.1172-2.9375-2.8398-1.5156-5.7773-2.8398-8.3359-4.6406-2.6523-1.7031-4.6406-4.4531-6.7227-6.6289-0.37891-0.56641-0.94531-0.94531-1.3242-1.5156 1.1367 0.1875 1.9883 0.37891 3.125 0.75781 3.125 0.94531 6.0625 2.5586 9.2812 3.3164 2.5586 0.56641 4.832-0.94531 6.6289-2.5586 0.56641 0.1875 1.1367 0.37891 1.7031 0.37891 2.6523 0.66016 5.7812 0.47266 7.4844 0.09375z"/>
</svg>
