<?xml version="1.0" encoding="UTF-8"?>
<svg width="752pt" height="752pt" version="1.1" viewBox="0 0 752 752" xmlns="http://www.w3.org/2000/svg">
 <g>
  <path d="m317.36 220.19c-1.6602 6.3516-2.1211 12.953-4.0508 19.242-1.2422 3.3516-2.9609 6.5117-5.1016 9.375-1.3086 2.0938-2.3281 4.4023-3.6367 6.5117v0.003906c-2.9531 5.2344-7.5859 9.3242-13.152 11.605-5.5859 2.1445-11.5 3.3164-17.484 3.4531-10.703-0.79688-21.469 0.24219-31.824 3.082-6.8867 2.918-17.406 7.7578-19.496 15.801h0.003907c-0.097657 0.41406 0.085937 0.83984 0.45312 1.0547 0.36719 0.21094 0.82813 0.16016 1.1406-0.12891 1.793-1.7812 3.1133-3.9258 5.0391-5.6016 2.2852-1.918 4.8906-3.418 7.6992-4.4219 4.8438-1.4922 9.8633-2.3359 14.93-2.5195 11.449-0.042969 22.879-0.98047 34.18-2.8086 10.41-2.8125 19.398-9.3984 25.219-18.477 2.5703-5.043 4.3477-10.457 5.2578-16.043 1.9453-6.4297 3.2891-13.023 4.0117-19.699 0.14453-1.8438-2.7344-2.1758-3.1875-0.42969z"/>
  <path d="m267.62 287.38c-1.4688 0.54297-18.898-2.4688-25.195-1.9727-6.9531 0.54688-11.199 6.6797-18.254 6.5039h0.003907c-0.47266 0.015625-0.87891 0.33594-1.0039 0.79297-0.12109 0.45312 0.066407 0.9375 0.46875 1.1875 6.2109 4.3555 12.086-5.043 18.195-4.9375 4.4961 0.56641 8.9297 1.5391 13.25 2.9062-2.2617 0.73828-4.5469 1.4219-6.8711 2.0156-6.5859 1.6875-13.516 2.2266-20.02 4.0742-0.57422 0.17969-0.9375 0.75-0.85938 1.3516 0.082031 0.60156 0.58203 1.0547 1.1875 1.0742 6.9922 0.019531 13.949-1.0273 20.629-3.1016 6.7891-1.6406 13.41-3.918 19.773-6.8008 1.7188-0.80859 0.5-3.7617-1.3047-3.0938z"/>
  <path d="m223.3 301.32c-3.6562 3.4453-6.8008 7.3945-9.3398 11.727-2.9102 3.75-4.7812 8.2031-5.4258 12.906 0.019532 0.51953 0.33594 0.98047 0.81641 1.1797 0.48047 0.19922 1.0352 0.097656 1.4141-0.25391 2.8477-3.543 5.1211-7.5117 6.7344-11.762 2.3125-4.2773 5.043-8.3633 7.25-12.684 0.21484-0.39844 0.10938-0.89453-0.25-1.1719-0.35938-0.28125-0.86719-0.25391-1.1992 0.058594z"/>
  <path d="m258.92 308.53c-5.2539 0.49609-10.418 1.7148-15.344 3.6172-4.9102 2.0703-9.8086 4.1523-14.621 6.4453l0.003907 0.003906c-9.7617 4.4805-18.34 11.184-25.043 19.574-0.35156 0.37891-0.33984 0.96484 0.023437 1.3281 0.36328 0.36719 0.95312 0.375 1.3281 0.023437 7.4219-6.6719 15.602-12.449 24.371-17.207 9.1758-4.3008 19.148-6.625 29.277-6.8203 4.5234-0.32813 4.3672-7.5273 0.003906-6.9648z"/>
  <path d="m274.51 325.3c-3.3594-0.55469-6.7539-0.88281-10.156-0.99219-3.1992 0.34375-6.3516 1.0273-9.4062 2.043-6.1328 1.4766-12.207 2.8984-18.215 4.8633-5.7148 1.8477-11.277 4.1406-16.637 6.8594-3.0195 1.5469-5.8047 3.3008-8.6641 5.1133v0.003906c-3.0859 1.7695-6.4492 3.0039-9.9492 3.6445-0.39062 0.12109-0.65625 0.48047-0.65625 0.89062 0 0.40625 0.26562 0.76953 0.65625 0.88672 5.5273 0.41406 11.031-1.0469 15.629-4.1445 5.8516-3.0156 11.895-5.6523 18.09-7.8945 5.9648-2.0391 12.113-3.5078 18.359-4.3828 3.6172-0.51562 7.1836 0.007813 10.797-0.39453 3.4258-0.37891 6.6992-1.3828 10.156-1.7773h0.003906c1.2812-0.027344 2.3086-1.0742 2.3086-2.3594 0-1.2852-1.0312-2.3359-2.3164-2.3594z"/>
  <path d="m257.59 335.2c-4.6406 1.8086-9.2148 3.7227-13.707 5.8711-4.582 2.1914-9.6484 3.8711-13.988 6.4609-8.6445 5.3203-16.699 11.547-24.023 18.57l-0.26562 0.42188-1.1602 0.83594v-0.003907c-0.21875 0.12891-0.37109 0.34766-0.41797 0.59766s0.011718 0.50781 0.16797 0.70703 0.39063 0.32422 0.64063 0.34375c0.25391 0.015625 0.50391-0.078125 0.68359-0.25391l1.2383-0.96875 0.30859-0.12109c8.4688-5.2656 17.117-10.176 25.637-15.316 4.1914-2.5273 7.8516-5.7266 12.145-8.1719 4.4297-2.5273 8.9023-4.9883 13.422-7.3516 0.875-0.45703 0.26953-1.9922-0.67969-1.6211z"/>
  <path d="m331.75 349.52c-1.5117-4.2695-4.2148-8.0156-7.7852-10.801-3.5703-2.7891-7.8633-4.4961-12.375-4.9219-5.2344 0.38281-10.367 1.6602-15.172 3.7734-5.9219 2.082-11.84 4.2148-17.617 6.668-5.8867 2.5-11.43 5.582-17.051 8.6094-5.5547 2.9922-11.336 5.2891-17.07 7.8906-3.9023 1.7695-37.008 17.98-38.484 10.891l0.003906 0.003906c-0.16016-0.52344-0.64453-0.88672-1.1953-0.88672-0.54688 0-1.0312 0.36328-1.1914 0.88672-2.082 10.289 19.02 2.9883 22.746 1.668h-0.003907c12.145-3.7539 24.039-8.2617 35.613-13.504 5.8242-2.9375 11.449-6.2109 17.43-8.832 6.0664-2.6602 12.316-4.8867 18.562-7.0859v-0.003906c5.3594-2.1875 11.254-2.7148 16.914-1.5156 2.3867 0.39062 4.707 1.082 6.9141 2.0625 2.582 1.668 4.7344 3.9141 6.2891 6.5625 1.1328 1.668 4.2539 0.69141 3.4727-1.4648z"/>
  <path d="m360.52 390.14c-4.0586 0.0625-8.043-1.0742-11.453-3.2734-8.5156-7.1992-9.125-21.098-15.875-29.824-0.68359-0.88281-2.1953 0.27734-1.5586 1.1992h0.003907c3.4844 6.625 6.1133 13.668 7.8203 20.957l0.78906 1.9414c-5.5938-3.75-11.062-7.6602-16.414-11.723-0.80469-0.60938-1.8633 0.5625-1.3555 1.3555 4.4219 6.8125 10.051 12.762 16.613 17.555 3.0312 2.3867 6.4375 4.2539 10.078 5.5234 3.8906 1.0547 8.0156 0.82031 11.762-0.66406 1.6211-0.46875 1.3906-3.2031-0.41016-3.0469z"/>
  <path d="m357.2 298.59c1.5391-15 3.8672-29.914 4.9609-44.969 1.1211-15.453 3.793-30.926 3.8984-46.418v-0.003906c-0.011719-0.34375-0.26953-0.62891-0.60938-0.67578-0.33984-0.046876-0.66797 0.16016-0.76953 0.48828-3.7578 15.078-6.5117 30.387-8.2461 45.828-2.3867 14.902-3.0898 29.941-4.4609 44.941-0.71094 7.7734-1.5352 15.543-2.2891 23.312-1.1211 7.418-1.5078 14.926-1.1523 22.422 1.0742 6.5117 2.6602 12.93 4.7422 19.191 1.9883 7.5039 1.6172 15.285 3.582 22.695 0.21094 0.67188 0.83203 1.1289 1.5352 1.1289s1.3281-0.45703 1.5391-1.1289c0.27344-14.184-1.6992-28.324-5.8555-41.887-0.36719-7.4922-0.003906-14.996 1.0781-22.418 0.67188-7.5039 1.2773-15.016 2.0469-22.508z"/>
  <path d="m471.97 212.61c-10.195 11.977-19.242 24.879-27.027 38.543-2.5117 7.0234-3.6992 14.453-3.5039 21.914-1.6797 7.2812-2.9336 14.66-3.7539 22.09 0.91797 15.406 0.035156 30.867-2.6289 46.07-3.9648 13.301-17.477 23.25-15.242 38.281 0.28516 1.9141 3.3672 1.793 3.75 0l-0.003906-0.003906c0.99219-7.2109 3.5078-14.129 7.3789-20.293 3.957-5.2344 7.0195-11.094 9.0508-17.332 3-14.066 4.1641-28.457 3.4609-42.82 0.45703-7.7656 1.625-15.477 3.4961-23.027 0.070313-7.4062 1.1016-14.773 3.0664-21.918 3.4258-6.8633 7.8945-13.27 11.691-19.934v0.003907c3.9102-6.9102 7.4531-14.02 10.613-21.305z"/>
  <path d="m507.68 349.3c-5.1016-6.3125-12.816-9.9375-20.934-9.8281-4.8711-0.33594-9.7617-0.27344-14.621 0.19141-4.0547-0.054687-7.957 1.5273-10.824 4.3945-6.2734 6.8125-12.16 13.973-17.637 21.441-2.9727 3.8984-5.5977 8.0508-7.8477 12.406-0.77344 1.5703-1.6797 3.0664-2.707 4.4805-1.1133 0.5-2.2656 0.91016-3.4414 1.2227-7.7656 1.6367-15.84-0.60156-21.652-6l-0.44922 0.34766c1.3125 3.957 4.0898 7.2578 7.7656 9.2305 3.8203 1.9141 8.1406 2.6133 12.371 2 10.156-1.5586 19.152-7.3984 24.711-16.039 0.28906-0.52344 0.19141-1.1758-0.23047-1.5977-0.42188-0.42578-1.0742-0.51953-1.6016-0.23438-2.875 1.418-5.5977 3.1328-8.1172 5.1172 4.0156-5.1914 7.9453-10.457 12.16-15.496 2.9961-3.582 6.0312-7.125 9.1133-10.637 1.6211-2.2617 4.1445-3.707 6.9141-3.9688 2.2734-0.26172 4.5703-0.38672 6.8555-0.54688 9.7617-0.97266 19.598 0.88281 28.332 5.3516 1.1055 0.56641 2.6523-0.66016 1.8398-1.8359z"/>
  <path d="m373.67 453.74c-6.9141-3.6875-15.262-3.4648-21.969 0.59375 0.43359-1.9961 0.66406-4.0312 0.67578-6.0703 0.50391-5.3008-0.25781-10.645-2.2188-15.59-0.49609-1.0938-1.0781-2.1406-1.7344-3.1445 3.9141 0.58203 7.8633 0.85938 11.898 1.1367 1.6875 0.11719 1.9336-2.4219 0.39062-2.8789h-0.003906c-6.7578-2.4375-13.352-5.3047-19.742-8.5859-6.3633-2.8164-12.73-5.5312-19.285-7.8672-6.7148-2.3906-13.32-5.0859-20.25-6.8203h-0.003906c-7.0781-1.7461-14.445-1.9805-21.621-0.67969-14.438 3.4023-27.984 9.8359-39.746 18.871-13.449 9.0117-27.977 16.328-41.25 25.586l0.25781 0.44531c14.07-6.2656 27.227-14.418 41.105-21.109l0.003907-0.003906c12.773-7.4219 26.461-13.145 40.715-17.027 14.559-1.5234 29.203 1.9219 41.551 9.7773 4.8789 2.5234 9.9297 4.6992 15.113 6.5117 2.4492 2.1914 4.5078 4.7852 6.0859 7.668 1.8281 4.0781 2.7578 8.5039 2.7266 12.973-0.17969 3.2422-0.19141 6.4922-0.023438 9.7344-6.3203 3.8398-12.234 8.6484-17.137 11.957h-0.003907c-7.1641 4.3047-14.043 9.0625-20.598 14.246-5.1953 4.3867-7.7539 11.141-6.7695 17.863l0.1875-0.027344v0.003907c0.875-7.6523 5.6289-14.312 12.578-17.629 5.9727-3.9766 12.328-7.3516 18.508-10.977 6.3281-3.7109 12.645-7.5156 19.066-11.051l0.003906 0.003906c5.875-3.8828 13-5.3945 19.945-4.2383 0.96094 0.23047 1.9453-0.26953 2.3281-1.1797 0.38281-0.91406 0.050781-1.9648-0.78516-2.4922z"/>
  <path d="m413.8 441.92c-7.2227-12.16-25.609-9.2461-37.531-10.324l-0.050781 0.37891c6.4492 1.8555 12.641 4.5625 19.137 6.1992 5.8281 1.4648 11.023 4.1914 16.715 6v-0.003906c0.59766 0.14844 1.2305-0.070313 1.6055-0.55859s0.42188-1.1562 0.125-1.6914z"/>
  <path d="m197.45 348.88c-6.7109 2.9492-13.238 6.3125-19.535 10.07-6.1016 4.0391-12.059 8.3242-17.855 12.785-11.301 8.7148-6.2812 14.633 5.1523 5.9297 5.4414-4.1445 10.961-8.1758 16.637-11.992 6.0742-4.0898 11.738-8.9414 18.016-12.668 1.0625-0.69922 1.3906-2.1094 0.75-3.207-0.64453-1.0938-2.0312-1.5-3.1641-0.91797z"/>
  <path d="m413.18 463.99c-6.4609-5.6328-15.09-8.1133-23.559-6.7734-7.0586 0.97266-13.168 5.4023-16.281 11.812l0.53516 0.3125c3.3516-4.8125 8.6914-7.8555 14.539-8.2891 6.2852 0.27734 12.395 2.1797 17.719 5.5312 4.8086 2.8789 10.969 7.2109 12.051 13.109 1.6133 8.8242-7.5781 5.3672-11.438 9.5469-0.44922 0.46484-0.66406 1.1133-0.57813 1.7539 0.082032 0.64453 0.44922 1.2148 1.0039 1.5508l0.99219 0.51953c-0.75 0.41406-1.5273 0.76562-2.332 1.0547-3.6953 1.2852-7.4844 2.1367-11.105 3.6445h-0.003906c-5.168 1.707-8.793 6.3711-9.1719 11.805l0.47266 0.12891c3.8594-5.8398 11.047-6.8984 17.062-9.4414v-0.003906c3.7695-1.7383 7.2188-4.0977 10.207-6.9766 4.7812-1.4531 8.6328-5.0195 10.441-9.6797 2.3633-8.3047-4.5078-15.102-10.555-19.605z"/>
  <path d="m404.03 475c-2.4883-3.5234-6.5703-5.5742-10.883-5.4688-4.3125 0.10938-8.2852 2.3594-10.594 6.0039-0.69922 1.3008-0.39453 2.9141 0.73047 3.8711 1.9414 1.4453 4.2266-0.69531 6.3242 0.50781 1.25 0.71875 4.4531 7.9062 6.7188 3.5039l-0.20703-0.78516c-2.6094-1.6367-5.0117-6.5977-8.3945-6.3047l1.6094-0.82812c1.4297-0.59375 2.9297-0.99219 4.4648-1.1914 3.1523 0.078125 6.2734 0.64453 9.25 1.6758 0.52344 0.085938 1.2383-0.36328 0.98047-0.98438z"/>
  <path d="m411.48 477.88c-0.22266-1.457-1.2812-2.6406-2.6992-3.0312l-0.28516 0.21484c0.042969 1.5039 0.32422 2.9688 0.25391 4.4805-0.042968 0.97656-0.003906 3.0156 1.5508 2.4219 1.5117-0.57422 1.4688-2.8125 1.1797-4.0859z"/>
  <path d="m430.48 451.47c0.33594-2.1172-2.4492-3.6641-3.6719-1.5469-4.8906 8.4688-1.3477 17.492-0.55469 26.531l0.003906 0.003907c0.71484 4.9453 0.0625 9.9922-1.8906 14.594-1.9531 4.6016-5.1289 8.582-9.1836 11.504-0.44141 0.27344-0.15625 1.0742 0.36719 0.875v-0.003906c3.9688-1.6016 7.4414-4.2266 10.074-7.6055 2.6289-3.375 4.3242-7.3867 4.9102-11.625 1.8945-10.957-1.7773-21.836-0.054687-32.727z"/>
  <path d="m599.38 474.93c-11.562-5.9805-23.246-11.609-35.156-16.879-11.539-5.1016-21.938-11.676-32.938-17.785l-0.003906 0.003906c-11.184-6.2461-22.695-11.879-34.484-16.875-5.9688-2.6562-12.094-4.9336-18.344-6.8281-2.5742-0.77734-5.2148-1.3203-7.8867-1.6211l-0.93359-0.054687c3.3867-0.90625 6.9062-1.1797 10.258-2.168v0.003906c0.47266-0.14453 0.81641-0.55078 0.87891-1.043 0.066406-0.48828-0.16406-0.96875-0.58594-1.2305-7.4414-2.5273-15.602-1.832-22.508 1.918-7.6328 3.6484-14.422 8.8438-19.934 15.262-2.8086-3.9141-6.6992-6.9219-11.191-8.6523-4.6055-2.2578-9.5117-3.832-14.57-4.668-0.66406-0.09375-0.98828 0.87109-0.28516 1.043 4.9531 1 9.5859 3.1953 13.496 6.3867 2.5586 2.3672 4.7773 5.1484 7.1133 7.7656v0.003907c-2.2266 0.99609-4.3242 2.2539-6.25 3.7539-3.6094 2.7578-6.4688 6.3828-8.3125 10.535-1.5117 4.4453-1.75 9.2227-0.6875 13.797 0.042968 0.35547 0.60938 0.51953 0.69141 0.09375 1.0391-3.6797 2.75-7.1406 5.043-10.203 1.9102-3.3711 4.4414-6.3477 7.457-8.7852 2.8555-2.0586 6.0586-3.5859 9.457-4.5078 3.5742-1.0117 7.3047-0.96094 10.887-1.9453h-0.003906c0.60938-0.18359 1.0508-0.70703 1.1328-1.3359 0.082032-0.62891-0.21094-1.2461-0.75391-1.5781-2.3281-1.5117-5.0469-2.3047-7.8242-2.2852 5.0625-2.0586 9.9375-4.7891 14.75-7.2188 2.2539-1.1367 4.5352-2.2734 6.8828-3.25h-0.003906c5.6406 1.1523 11.082 3.1367 16.137 5.8867 5.6367 2.7188 11.277 5.4258 16.93 8.1172 11.609 5.3438 22.723 11.707 33.203 19.016 4.9453 3.543 9.4883 7.6719 14.551 11.051 5.0859 3.1016 10.449 5.7266 16.023 7.8398 11.578 5.4766 24.027 8.8828 36.781 10.066 0.86719-0.019532 1.6211-0.60547 1.8477-1.4453 0.22656-0.83984-0.125-1.7266-0.86328-2.1836z"/>
  <path d="m458.57 432.2c-10.453 5.1641-17.656 15.18-19.234 26.727-0.26563 6.3711 0.21875 12.746 1.4414 19.004 1.2734 7.0469 0.42969 14.316-2.418 20.887l0.44922 0.34766h0.003906c6.7617-9.2656 8.832-21.156 5.5977-32.164-1.1484-6.5312 0.91016-13.219 5.5312-17.977 3.9219-4.1797 8.1484-8.0625 12.645-11.617 3.1914-2.5977-0.89063-6.5312-4.0156-5.207z"/>
  <path d="m472.53 434.12c-0.16797-0.58594-0.63281-1.043-1.2227-1.1953-0.59375-0.15625-1.2188 0.011719-1.6562 0.4375-1.375 2.0078-2.5703 4.1328-3.5781 6.3477-1.3438 2.1641-2.3867 4.5039-3.0977 6.9531-0.41797 1.7695 1.6094 3.7578 3.3242 2.5586v-0.003906c4.5586-3.6094 6.918-9.3242 6.2305-15.098z"/>
  <path d="m478.92 436.1c-0.16016-0.15625-0.38672-0.23437-0.60938-0.20312-0.22656 0.027343-0.42578 0.15625-0.53906 0.35156-1 2.1914-1.457 4.5859-1.3359 6.9883-0.21484 3.0078-0.23047 6.0273-0.046875 9.0352 0.16797 2.3125 3.8164 3.1758 4.3203 0.58594 1.6367-5.6016 0.99609-11.625-1.7891-16.758z"/>
  <path d="m559.29 388.28c-5.1953-2.6562-9.6641-6.543-13.008-11.324-2.9219-3.8164-6.4805-7.1016-10.516-9.7109-4.3008-2.7734-8.9609-4.8984-13.488-7.2695-4.1133-2.5977-8.3711-4.957-12.758-7.0664l-0.32422 0.42188c2.6094 4.3789 6.5586 7.8008 11.258 9.7695 4.7148 2.4414 9.2891 5.1445 13.699 8.1055 4.418 3.7852 8.3633 8.0898 11.758 12.812 2.8555 4.2109 7.5195 6.8438 12.598 7.1133 1.3984-0.089843 2.2461-2.1328 0.78125-2.8516z"/>
  <path d="m559.42 378.22c-4.25-9.3008-10.012-17.832-17.051-25.246-3.543-4.125-7.293-8.0859-11.035-12.027l-3.9492-4.1172h0.003907c2.2422 0.60156 4.4375 1.375 6.5625 2.3125 3.0664 1.6094 3.9336 4.0312 5.8164 6.6914h0.003906c1.375 1.9023 3.0703 3.5547 5.0078 4.8828 1.8125 1.2852 4.1602-1.7031 2.3945-3.1055-2.3125-1.8789-4.2891-4.1406-5.832-6.6875-1.0078-1.7656-2.4219-3.2656-4.1289-4.3672-2.1211-1.043-4.4297-1.6523-6.7852-1.7891-2.168-0.50781-4.3008-1.1445-6.3945-1.9023-0.95703-1.2578-1.8047-2.5977-2.5352-4.0039-0.11719-0.19141-0.33984-0.29688-0.56641-0.26953-0.22656 0.03125-0.41406 0.19141-0.48047 0.41016-0.60156 3.9648 2.3672 6.8477 4.75 9.6875 3.6758 4.3789 7.3242 8.7773 10.863 13.266 3.7188 4.7148 7.5156 9.3867 11.113 14.195v-0.003906c3.1562 4.6016 6.5664 9.0234 10.211 13.246 0.79688 0.84766 2.4727-0.023437 2.0312-1.1719z"/>
  <path d="m554.07 340.86c-0.89453-4.7227-2.6641-9.2344-5.2148-13.305-1.9297-3.1992-3.625-6.5273-5.0781-9.9688-0.32031-1.4219-0.76953-2.8164-1.3359-4.1602-1.4883-2.043-3.4531-3.6953-5.7227-4.8125 0.14062-2.6289-0.21484-5.2578-1.043-7.7539-0.49219-1.8945-0.75-4.5-2.7773-5.3047l-0.28516 0.11719c-1.1641 1.5977-0.23828 3.7578 0.039062 5.5312 0.27734 1.7773 0.33594 3.6406 0.63672 5.4375l-1.2266-0.66406-0.015625-0.10938 0.003907-0.003906c-0.94922-2.4766-2.3516-4.7539-4.1445-6.7148-1.2734-1.332-3.0781-2.0234-4.9141-1.8789-2.9023-0.11719-5.7617-0.73438-8.4531-1.8242-0.61328-0.25781-2.2852-1.3359-2.8906-0.55469l-0.12891 0.16797c-0.38672 0.41797-0.46484 1.0352-0.19922 1.5391 1.4453 2.2812 3.8398 3.793 6.5234 4.1094 3.9102 3 8.082 5.6445 12.465 7.8945 3.0742 1.75 7.9766 3.7266 9.5664 6.9883 1.0938 2.2344 1.5156 4.5469 2.4062 6.7305-2.082-1.2305-4.2422-2.3125-6.1562-3.3359-4.5977-2.5898-9.5586-4.4805-14.715-5.6133-0.19922-0.050782-0.40234 0.054687-0.48437 0.24219-0.078126 0.19141-0.007813 0.41016 0.16797 0.51562 4.043 2.3516 8.25 4.3867 12.312 6.7266 4.7344 2.2461 9.0391 5.3086 12.715 9.043 2.375 4.4492 3.9805 9.2617 4.75 14.246 0.92188 4.9766 2.5625 9.793 4.8711 14.293 0.35938 0.55859 1.0352 0.82031 1.6758 0.64844 0.63672-0.17578 1.0898-0.74219 1.1172-1.4062-0.67187-5.793-2.1758-11.457-4.4648-16.82zm-31.715-39.68c1.1055-0.066406 2.2109 0.16406 3.1992 0.66406 0.69141 0.48047 1.2891 1.082 1.7656 1.7734z"/>
  <path d="m528.52 285.4c-1.7695-1.6641-3.8906-2.9062-6.207-3.6367l-0.22266-0.64453v0.003906c-2.1133-4.4648-3.9531-9.0469-5.5195-13.727-1.5547-4.5781-3.668-8.9453-6.293-13.004-0.14844-0.23438-0.41797-0.36328-0.69531-0.32812-0.27344 0.039063-0.50391 0.23047-0.58594 0.49609-1.3438 4.9727 2.7773 10.559 4.2305 15.09 0.8125 3.6562 1.9453 7.2305 3.3906 10.688-7.6641-1.4961-28.914-4.3203-25.453-14.469 4.2617-9.543 10.242-18.219 17.645-25.598 3.4102-4 6.9648-7.8711 10.406-11.844 3.4961-4.0938 6.7539-8.3828 9.7578-12.848 0.50781-0.73828-0.48828-1.6914-1.2227-1.2227v0.003906c-4.7773 2.9844-9.2383 6.4492-13.316 10.332-4.3164 4.1484-8.3633 8.6094-12.363 13.062-3.6406 4.0508-7.3008 8.125-10.598 12.461-3.3906 3.7422-5.5117 8.457-6.0625 13.473-0.50781 4.0625 0.375 8.1797 2.5 11.676 3.8828 3.5078 8.6172 5.9297 13.734 7.0195 2.8555 0.91406 5.7812 1.5898 8.75 2.0234 2.957 0.43359 5.9688-0.11719 8.875 0.52734h-0.003906c2.5938 0.53125 4.9688 1.8242 6.8203 3.7148 1.7422 1.7852 2.3672 4.3672 4.2148 5.9336v0.003906c0.35156 0.33203 0.84766 0.46484 1.3164 0.33984s0.83594-0.48047 0.97656-0.94531c0.16797-3.3633-1.3633-6.5859-4.0742-8.582z"/>
  <path d="m402.36 221.7c-0.69141-0.18359-1.4258-0.035157-1.9922 0.39453-0.57031 0.43359-0.90625 1.1055-0.91406 1.8164 0.10156 3.8125 2 7.2344 2.1836 11.039v0.003906c0.0625 3.9492-0.41797 7.8906-1.418 11.711-2.3203 10.129-5.0312 20.16-6.3711 30.477-0.65234 5.0195-1.4219 10.031-1.7695 15.078-0.35156 5.0234 0.21875 10.047 0.035156 15.078-0.1875 5.293-0.73047 10.594-1.1562 15.871-0.42969 5.3281-0.20703 10.547-0.29297 15.871h-0.003906c0.003906 0.20313 0.15625 0.37109 0.35938 0.39844s0.39453-0.09375 0.45312-0.28906c1.5859-5.3906 3.3984-10.582 4.6406-16.086 1.2266-5.4297 2.3125-10.949 3.9023-16.293 1.6094-5.3828 3.6797-10.512 4.8047-16.039 1.125-5.5273 2.1641-11.172 2.8789-16.766 1.3086-10.223 1.9727-20.648 2.4414-30.941 0.3125-6.8711 0.27344-18.758-7.7812-21.324z"/>
  <path d="m252.84 203.65c-2.9727 3.4727-4.9492 7.6836-5.7266 12.188-1.3672 5.8086-2.8398 11.605-4.5234 17.332-1.6094 5.4805-3.2188 10.977-5.0703 16.383-2.5586 4.8086-3.9453 10.156-4.043 15.605 0.15625 0.875 1.25 0.94531 1.8125 0.47266 3.1523-3.8711 5.293-8.4609 6.2344-13.363 1.8281-5.1445 3.7617-10.27 5.3828-15.484 1.6094-5.1992 3.1367-10.461 4.2734-15.789 0.52734-5.4766 1.6055-10.883 3.2148-16.145 0.42578-0.94141-0.76172-2.1211-1.5547-1.1992z"/>
  <path d="m588.25 377.53c-6.5977-4.0742-13.34-7.9102-20.129-11.66-6.1055-3.8555-12.598-7.0664-19.371-9.5742-0.33203-0.082031-0.67969 0.066406-0.85156 0.35938-0.17578 0.29688-0.12891 0.67188 0.10547 0.92188 5.6055 4.5391 11.652 8.5039 18.051 11.832 6.2383 3.75 12.434 7.5664 18.5 11.59 12.016 7.9688 15.762 3.9844 3.6953-3.4688z"/>
  <path d="m534.41 459.82c-11.887-10.41-26.016-17.941-41.285-22.012-0.45703-0.11328-0.92969 0.125-1.1133 0.55859-0.17969 0.43359-0.023438 0.9375 0.37891 1.1875 12.289 7.1406 23.66 15.758 33.855 25.66 4.543 4.7383 8.5977 9.9219 12.105 15.465 3.4219 5.8633 6.2852 12.035 8.5625 18.43 0.60938 1.4805 3.1914 2.0078 3.5664 0 1.2578-14.918-4.7188-29.531-16.07-39.289z"/>
  <path d="m503.68 469c-2.1133-6.957-4.8594-13.703-8.207-20.156-0.72266-1.3828-3.125-0.42578-2.5625 1.082v-0.003906c4.4883 12.867 6.9805 26.34 7.3867 39.961 0.042969 1.3125 1.0273 2.4062 2.3281 2.582 1.3047 0.17578 2.543-0.61328 2.9336-1.8711 1.4297-7.2305 0.77734-14.719-1.8789-21.594z"/>
  <path d="m525.82 472.54c-2.168-3.4766-4.5977-6.7852-7.2617-9.8984-3.1445-3.3398-6.5195-6.4531-10.102-9.3164-0.19531-0.1875-0.49609-0.20312-0.70703-0.039063-0.21094 0.16406-0.27344 0.46094-0.14453 0.69531 3.7695 6.7148 7.2422 13.594 11.016 20.324 4.1641 6.5586 6.9219 13.914 8.0977 21.594 0.058594 1.6484 1.4102 2.9531 3.0586 2.9531 1.6523 0 3.0039-1.3047 3.0625-2.9531 0.16406-8.3281-2.2891-16.5-7.0195-23.359z"/>
 </g>
</svg>
