<?xml version="1.0" encoding="UTF-8"?>
<svg width="752pt" height="752pt" version="1.1" viewBox="0 0 752 752" xmlns="http://www.w3.org/2000/svg">
 <g>
  <path d="m482.89 280.01c-23.457-40.254-78.953-41.957-115.7-23.938-4.5703 2.25-9.4062 3.9102-14.395 4.9414-3.1758 0.5625-5.6172 3.1172-6.0391 6.3125-0.42187 3.1953 1.2695 6.2969 4.1875 7.668 0.52344 0.22266 1.0586 0.40234 1.6094 0.53906 2.8125 0.40625 4.9336 2.7617 5.043 5.6016-0.046875 3.0312-2.5195 5.4609-5.5508 5.4609h-0.55469c-11.508-1.1484-16.93-8.7773-22.199-16.168-3.7734-6.0195-9.0352-10.965-15.277-14.355-36.312-18.93-92.273-16.316-115.73 23.938-30.746 52.797 0 129.57 30.523 183.81 30.523 54.238 19.867 147 63.23 139.71 31.672-5.3633 14.688-153.29 48.543-153.29s16.91 147.92 48.578 153.29c43.363 7.2891 32.742-85.504 63.23-139.71 30.484-54.203 61.277-131.01 30.496-183.81zm-30.789 32.395-9.0586 4.957c-3.4375 1.8789-6.2617 4.7031-8.1406 8.1406l-4.9531 9.0625c-0.46484 0.84766-1.3516 1.375-2.3164 1.375-0.96875 0-1.8555-0.52734-2.3203-1.375l-4.9531-9.0625c-1.8789-3.4375-4.7031-6.2617-8.1406-8.1406l-9.0586-4.9531h0.003906c-0.84766-0.46484-1.375-1.3555-1.375-2.3203 0-0.96484 0.52734-1.8555 1.375-2.3164l9.0586-4.9531h-0.003906c3.4375-1.8828 6.2617-4.707 8.1406-8.1406l4.9531-9.0586c0.46484-0.84766 1.3516-1.375 2.3203-1.375 0.96484 0 1.8516 0.52734 2.3164 1.375l4.9531 9.0586c1.8789 3.4336 4.7031 6.2617 8.1406 8.1406l9.0586 4.9531c0.84766 0.46094 1.375 1.3516 1.375 2.3164 0 0.96484-0.52734 1.8555-1.375 2.3203z"/>
  <path d="m486.96 149.52-7.0547 12.895c-2.6758 4.8828-6.6953 8.8984-11.582 11.57l-12.898 7.0508v0.003907c-1.207 0.66016-1.9531 1.9258-1.9531 3.3008s0.74609 2.6406 1.9531 3.3008l12.898 7.0625c4.8867 2.6758 8.9062 6.6992 11.582 11.586l7.0508 12.895h0.003907c0.66016 1.207 1.9258 1.957 3.3008 1.957s2.6445-0.75 3.3008-1.957l7.0508-12.895h0.003907c2.6719-4.8906 6.6953-8.9102 11.582-11.586l12.895-7.0508c1.207-0.66016 1.9609-1.9258 1.9609-3.3008s-0.75391-2.6445-1.9609-3.3047l-12.895-7.0625c-4.8906-2.6719-8.9102-6.6914-11.582-11.582l-7.0547-12.883c-0.65625-1.207-1.9258-1.9609-3.3008-1.9609s-2.6406 0.75391-3.3008 1.9609z"/>
  <path d="m548.44 263.6-4.9531 9.0586v-0.003906c-1.8789 3.4375-4.707 6.2617-8.1406 8.1406l-9.0547 4.9336c-0.84766 0.46094-1.3789 1.3516-1.3789 2.3164 0 0.96875 0.53125 1.8594 1.3789 2.3203l9.0586 4.9531v0.003906c3.4375 1.875 6.2617 4.7031 8.1367 8.1367l4.9531 9.0586h0.003906c0.46484 0.84766 1.3516 1.375 2.3203 1.375 0.96484 0 1.8555-0.52734 2.3164-1.375l4.957-9.0312c1.8789-3.4375 4.7031-6.2617 8.1367-8.1406l9.0586-4.9531c0.85156-0.46094 1.3789-1.3516 1.3789-2.3203 0-0.96484-0.52734-1.8555-1.3789-2.3203l-9.0586-4.9609c-3.4336-1.8789-6.2578-4.7031-8.1367-8.1406l-4.9531-9.0586-0.003906 0.003906c-0.46094-0.85156-1.3516-1.3828-2.3203-1.3789-0.96875 0-1.8594 0.53125-2.3203 1.3828z"/>
 </g>
</svg>
