<?xml version="1.0" encoding="UTF-8"?>
<svg width="752pt" height="752pt" version="1.1" viewBox="0 0 752 752" xmlns="http://www.w3.org/2000/svg">
 <g>
  <path d="m482.96 279.99c-23.457-40.254-78.953-41.957-115.7-23.938v-0.003907c-4.5703 2.25-9.4062 3.9102-14.395 4.9414-3.1719 0.56641-5.6094 3.1211-6.0352 6.3125-0.42188 3.1914 1.2695 6.293 4.1836 7.6641 0.51953 0.22656 1.0586 0.41016 1.6094 0.54297 2.8125 0.41016 4.9336 2.7656 5.043 5.6016-0.046875 3.0312-2.5195 5.4648-5.5508 5.4609h-0.54297c-11.508-1.1484-16.93-8.7812-22.199-16.168-3.7734-6.0195-9.0352-10.965-15.281-14.355-36.312-18.93-92.273-16.316-115.73 23.938-30.746 52.797 0 129.57 30.523 183.81 30.523 54.238 19.867 147 63.23 139.71 31.672-5.3633 14.688-153.29 48.543-153.29s16.91 147.92 48.578 153.29c43.363 7.2891 32.742-85.504 63.23-139.71 30.488-54.199 61.27-131.01 30.488-183.8zm-32.965 55.457c-0.003906 4.625-3.7539 8.375-8.3828 8.3828h-3.8281v3.8203c-0.011718 4.6289-3.7695 8.3711-8.3945 8.3711h-8.7383c-4.6289 0.003906-8.3867-3.7422-8.3945-8.3711v-3.8203h-3.8086c-4.6289-0.007812-8.3789-3.7578-8.3828-8.3828v-8.7422c0.003907-4.625 3.7539-8.375 8.3828-8.3789h3.8086v-3.8242c0.003906-4.6289 3.75-8.3789 8.3789-8.3828h8.7383c2.2266-0.003906 4.3633 0.875 5.9414 2.4492 1.5781 1.5703 2.4648 3.707 2.4688 5.9336v3.8242h3.8125c2.2227-0.003906 4.3594 0.87891 5.9336 2.4492 1.5742 1.5742 2.4609 3.707 2.4648 5.9297z"/>
  <path d="m550.88 328.27h-10.395c-5.1016-0.011719-9.2344-4.1445-9.25-9.25v-5.2578h-5.2422c-5.1094-0.015625-9.2422-4.1602-9.25-9.2656v-10.391c0.007813-5.1094 4.1406-9.2539 9.25-9.2695h5.2422v-5.2422c0.015625-5.1016 4.1484-9.2383 9.25-9.25h10.395c5.1016 0.011719 9.2383 4.1484 9.25 9.25v5.2422h5.2422c5.1094 0.015625 9.2461 4.1602 9.25 9.2695v10.391c-0.003907 5.1094-4.1406 9.25-9.25 9.2656h-5.2422v5.2578c-0.011719 5.1055-4.1484 9.2383-9.25 9.25z"/>
  <path d="m477.29 231.63h-14.934c-6.457-0.007812-11.688-5.2422-11.695-11.699v-9.1523h-9.168c-6.457-0.007812-11.691-5.2422-11.699-11.699v-14.934c0.007813-6.457 5.2422-11.691 11.699-11.699h9.1523v-9.1523c0.007813-6.457 5.2422-11.688 11.695-11.695h14.934c6.4648 0 11.707 5.2305 11.719 11.695v9.1523h9.1484c6.457 0.007812 11.691 5.2422 11.699 11.699v14.934c-0.007813 6.457-5.2422 11.691-11.699 11.699h-9.1484v9.1523c-0.007812 6.4609-5.2461 11.695-11.703 11.699z"/>
 </g>
</svg>
