<?xml version="1.0" encoding="UTF-8"?>
<svg width="752pt" height="752pt" version="1.1" viewBox="0 0 752 752" xmlns="http://www.w3.org/2000/svg">
 <g>
  <path d="m580.68 363.75c-38.344-11.012-87.281-4.5078-129.64 6.1211h0.003907c-3.9141 0.92188-6.3516 4.832-5.4492 8.75 0.64062 2.5039 0.74219 5.1172 0.29688 7.6602-1.1914 6.3711-4.168 12.273-8.582 17.02-0.29688 0.37109-14.801 15.094-16.391 20.793-1.8516 6.4375-7.9531 42.363-9.0273 48.32-0.8125 4.293-5.2148 24.789-5.6992 26.824-2.3672 10.176-11.027 35.074-30.191 35.074s-27.785-24.898-30.152-35.074c-0.55469-2.293-4.9219-22.531-5.7344-26.898-1.0742-5.8828-7.1758-41.809-9.0664-48.32v0.003906c-1.7812-4.7852-4.6289-9.0977-8.3242-12.617-2.6992-2.5898-7.7344-7.7344-8.0273-8.1016v-0.003906c-4.4141-4.7461-7.3906-10.648-8.5859-17.02-0.4375-2.4531-0.35938-4.9727 0.22656-7.3984 0.49219-1.9141 0.20312-3.9414-0.80469-5.6406-1.0039-1.6992-2.6445-2.9297-4.5586-3.418-42.312-10.59-91.23-17.09-129.5-6.082v-0.003906c-6.5625 1.8477-12.344 5.7852-16.469 11.211-4.1289 5.4297-6.3711 12.051-6.3945 18.871v173.46c0 9.8125 3.8984 19.223 10.836 26.16s16.348 10.836 26.16 10.836h380.93c9.8125 0 19.223-3.8984 26.164-10.836 6.9375-6.9375 10.836-16.348 10.836-26.16v-173.45c-0.023438-6.8203-2.2695-13.445-6.3945-18.871-4.125-5.4297-9.9102-9.3633-16.473-11.211z"/>
  <path d="m434.35 376.14c-2.0938-2.5234-5.2031-3.9844-8.4844-3.9805h-24.172l-4.75-44.34c-0.6875-6.4023-6.0898-11.258-12.531-11.258h-16.824c-6.4414 0-11.844 4.8555-12.535 11.258l-4.75 44.34h-24.164c-3.2852 0.015626-6.3984 1.4844-8.5 4.0156-2.0977 2.5312-2.9648 5.8633-2.3672 9.0977 0.57812 3.293 1.7734 6.4492 3.5195 9.3008-0.49219 1.668-0.16406 3.4766 0.88672 4.8633 1.0508 1.3867 2.7031 2.1914 4.4414 2.168h0.25c1.7227 1.8047 12.93 13.191 13.551 14.57h0.003906c-2.2148 1.2148-3.3281 3.7695-2.7109 6.2188 0.61328 2.4492 2.8047 4.1719 5.332 4.1953h0.63281c1.0156 4.2344 1.9648 9.0664 2.8555 14.027-2.7539 0.62109-4.6016 3.2109-4.293 6.0195 0.30859 2.8047 2.6758 4.9336 5.5 4.9414h0.67578c0.17578 1.0664 1.7422 10.5 2.375 14.16-2.582 0.83984-4.1758 3.4258-3.7656 6.1094 0.40625 2.6836 2.6953 4.6758 5.4102 4.7148h0.34375c0.53516 2.707 2.6953 12.426 3.1914 14.727-2.8086 0.51562-4.7656 3.082-4.5234 5.9258 0.24219 2.8477 2.6055 5.043 5.4609 5.082h1.6133c3.2227 12.125 8.2031 22.781 19.98 22.781s16.754-10.656 19.98-22.781h1.6211-0.003907c2.8555-0.039062 5.2148-2.2383 5.457-5.082 0.23828-2.8438-1.7188-5.4102-4.5234-5.9258 0.49609-2.3008 2.6562-12.016 3.1914-14.727h0.34766c2.7148-0.039062 5-2.0352 5.4062-4.7188s-1.1875-5.2656-3.7656-6.1055c0.63281-3.6602 2.1992-13.094 2.375-14.16h0.67578c2.8242-0.007812 5.1875-2.1367 5.4961-4.9414 0.30859-2.8086-1.5352-5.3984-4.2891-6.0195 0.89062-4.957 1.8516-9.793 2.8555-14.027h0.63281c2.5234-0.023438 4.7148-1.7461 5.332-4.1953 0.61719-2.4492-0.5-5.0039-2.7109-6.2188 0.62109-1.3789 11.84-12.766 13.551-14.57h0.25c1.7422 0.019531 3.3867-0.78516 4.4414-2.1719 1.0508-1.3867 1.3828-3.1875 0.89062-4.8594 1.7461-2.8516 2.9375-6.0078 3.5195-9.3008 0.60547-3.2461-0.26953-6.5938-2.3828-9.1328zm-45.105 105.76c-0.54297 2.3242-1.0586 4.707-1.5703 7.0859-0.15625 0.73828-0.31641 1.4805-0.47266 2.2031l-22.398-0.003906c-0.16016-0.73828-0.31641-1.4805-0.47266-2.2031-0.51172-2.375-1.0195-4.7617-1.5664-7.0859-0.39844-1.707-0.77734-3.5234-1.1562-5.3477h28.785c-0.37109 1.8281-0.75 3.6445-1.1484 5.3516zm7.4805-41.438h-41.445c-0.90625-5.1484-1.793-9.7695-2.7109-13.891h46.867c-0.91797 4.125-1.8086 8.7461-2.7188 13.898zm25.852-49.973-93.152-0.003907c-1.6602-2.1094-2.7852-4.5898-3.2852-7.2305h99.684c-0.47656 2.6406-1.5898 5.125-3.2461 7.2383z"/>
  <path d="m473.91 172.39c-16.094-27.602-54.238-28.785-79.473-16.391-3.6992 1.8125-7.6484 3.0586-11.719 3.6992-1.5625 0.28906-2.7656 1.5391-2.9922 3.1133-0.22656 1.5703 0.57422 3.1133 1.9922 3.8281 1.0703 0.49219 2.1992 0.84375 3.3594 1.0469 2.7812 0.56641 4.6875 3.1367 4.4219 5.9609s-2.6211 4.9961-5.457 5.0273c-0.35156 0-0.69531-0.039063-1.0391-0.10938-10.691-2.0352-14.43-8.7305-17.426-14.098-1.7422-3.4492-4.3711-6.375-7.6211-8.4727-24.922-13.004-63.379-11.211-79.473 16.391-15.578 26.715-8.2148 62.379 5.1445 94.199 1.7422 4.2227 5.8633 6.9688 10.434 6.957h164.27c4.5664 0.011719 8.6875-2.7344 10.434-6.957 13.355-31.816 20.719-67.48 5.1406-94.195z"/>
 </g>
</svg>
