<?xml version="1.0" encoding="UTF-8"?>
<svg width="752pt" height="752pt" version="1.1" viewBox="0 0 752 752" xmlns="http://www.w3.org/2000/svg">
 <g>
  <path d="m518.3 278.8c-12.664-21.75-34.707-32.227-58.059-34.449-2.4141-0.20312-4.7734 0.78906-6.3125 2.6602-9.3242 11.207-18.293 22.703-26.906 34.488-9.6211 13.133-18.723 26.641-27.305 40.512l0.042968 0.050781c25.105-9.7031 58.551-6.9766 69.703 14.309 5.0391 9.7344 7.5938 20.562 7.4336 31.523 0 23.828-10.324 48.617-19.793 71.297-1.4062 3.3281-2.7734 6.6211-4.1055 9.8789-7.1406 17.5-10.285 43.805-13.059 67.043-1.7383 14.477-4 33.438-6.9648 41.309v-0.003906c-0.21484 0.56641-0.75391 0.93359-1.3555 0.92578-0.60156-0.007812-1.1367-0.39062-1.332-0.96094-2.2188-6.7266-3.1523-22.199-3.8906-34.133-1.9961-33.742-4.7734-79.992-30.93-101.38h-0.003906c-5.4688-4.5352-12.348-7.0156-19.453-7.0234-7.1055-0.007813-13.988 2.4648-19.469 6.9883-2.4883 2.0352-4.7773 4.3047-6.8438 6.7695-19.609 23.086-22.234 63.195-24.051 93.605-0.035156 0.37109-0.035156 0.73828-0.074219 1.0742-0.70312 11.922-1.6289 27.477-3.7773 34.129v-0.003906c-0.17578 0.58984-0.70703 1-1.3203 1.0234-0.61328 0.027344-1.1758-0.33594-1.4062-0.90625-3-7.7969-5.2617-26.867-7-41.438-2.7734-23.199-5.918-49.504-13.059-67.004-1.332-3.2578-2.6992-6.5469-4.1055-9.8789-13.762-32.965-29.375-70.371-12.359-102.82 7.1406-13.652 23.457-19.684 40.883-19.684 9.2734 0.023437 18.469 1.6367 27.195 4.7734 11.012 4 22.812 5.3438 34.445 3.9219 16.609-28.531 35.516-55.66 56.535-81.121-13.543 1.1172-26.762 4.7148-39 10.621-4.707 2.3008-9.6953 3.9805-14.836 4.9922-3.0938 0.51172-5.5234 2.9336-6.043 6.0273-0.51953 3.0938 0.98828 6.1719 3.75 7.6641 0.66406 0.32422 1.3672 0.55859 2.0938 0.6875 2.9102 0.35938 5.1758 2.6914 5.4531 5.6094-0.023437 3.0547-2.4922 5.5273-5.5469 5.5508h-0.55469c-11.508-1.1484-16.945-8.7695-22.199-16.168-3.6758-6.1016-8.9648-11.07-15.281-14.355-36.148-19.312-92.273-16.352-115.73 23.902-30.746 52.832 0 129.61 30.523 183.81 30.523 54.203 19.867 147 63.23 139.71 31.672-5.3633 14.688-153.29 48.543-153.29 33.855 0 16.91 147.92 48.578 153.29 43.363 7.2891 32.742-85.465 63.23-139.71 30.484-54.242 61.27-130.98 30.484-183.82z"/>
  <path d="m316.26 535.52c-1.4336-15.82-1.4844-31.734-0.14844-47.562 1.5664-15.859 4.3281-31.574 8.2656-47.016 8.0156-30.727 19.324-60.496 33.723-88.797 28.816-56.469 66.113-108.19 110.59-153.37 2.1445-2.1914 5.6602-2.2305 7.8555-0.085938 2.1914 2.1445 2.2305 5.6641 0.085938 7.8555-21.656 22.316-41.711 46.129-60.02 71.262-18.426 25.035-34.852 51.48-49.125 79.094-14.273 27.535-25.535 56.531-33.594 86.48-3.8633 14.945-6.6953 30.133-8.4766 45.465-1.5586 15.332-2.3828 30.934-2.8047 46.406v0.050782c-0.058594 1.6758-1.4023 3.0195-3.0742 3.0781-1.6758 0.058594-3.1094-1.1914-3.2812-2.8594z"/>
  <path d="m471.3 184.4 30.598-34.754c5.0273-5.707 14.809-5.3086 19.438-1.2344 5.707 5.0273 6.2617 13.727 1.2344 19.438l-30.598 34.754c-5.0273 5.707-14.809 5.3086-19.438 1.2344-5.707-5.0273-6.2617-13.727-1.2344-19.438z"/>
 </g>
</svg>
