<?xml version="1.0" encoding="UTF-8"?>
<svg width="752pt" height="752pt" version="1.1" viewBox="0 0 752 752" xmlns="http://www.w3.org/2000/svg">
 <g>
  <path d="m494.72 387.95c-3.957 0-7.6914-1.8281-10.117-4.957l-1.7422-2.2461v0.003906c-1.8789-2.4219-1.4414-5.9102 0.97656-7.7891 2.4219-1.8828 5.9102-1.4453 7.7891 0.97656l1.7422 2.2422c0.53906 0.69141 1.5117 0.86719 2.2578 0.40625l15.652-9.6875c2.6016-1.5039 5.9258-0.67188 7.5039 1.8828 1.582 2.5547 0.84375 5.8984-1.6641 7.5547l-15.652 9.6836c-2.0273 1.2617-4.3633 1.9297-6.7461 1.9297z"/>
  <path d="m494.72 468.02c-3.957 0-7.6914-1.8281-10.117-4.9531l-1.7422-2.2461c-1.8789-2.4219-1.4414-5.9062 0.97656-7.7891 2.4219-1.8789 5.9102-1.4414 7.7891 0.97656l1.7422 2.2422c0.53516 0.69922 1.5117 0.875 2.2578 0.40625l15.652-9.6875v0.003906c2.6016-1.5078 5.9258-0.67187 7.5039 1.8789 1.582 2.5547 0.84375 5.9023-1.6641 7.5547l-15.652 9.6914c-2.0273 1.2578-4.3633 1.9219-6.7461 1.9219z"/>
  <path d="m494.72 548.1c-3.957 0-7.6914-1.8281-10.117-4.957l-1.7422-2.2461c-0.92969-1.1602-1.3555-2.6445-1.1836-4.1211 0.17578-1.4766 0.93359-2.8203 2.1094-3.7344 1.1758-0.91016 2.6641-1.3125 4.1406-1.1172 1.4727 0.19922 2.8047 0.97656 3.6992 2.168l1.7422 2.2383c0.53906 0.69141 1.5117 0.86719 2.2578 0.40625l15.652-9.6875c1.2539-0.82422 2.7852-1.1094 4.25-0.78516s2.7383 1.2227 3.5273 2.5c0.78906 1.2734 1.0273 2.8125 0.66406 4.2695-0.36719 1.4531-1.3047 2.6992-2.6016 3.4492l-15.652 9.7109c-2.0273 1.25-4.3633 1.9102-6.7461 1.9062z"/>
  <path d="m525.07 192.49h-61.594c0.49219-10.711-2.0117-21.344-7.2344-30.707-13.359-22.941-44.324-25.344-66.527-14.43-6.8945 3.3594-14.934 3.4414-21.898 0.22266-0.15625-0.070313-0.51953-0.24609-0.52344-0.25l-0.51562-0.24609c-22.164-10.602-52.707-8.0312-65.953 14.703-5.2227 9.3633-7.7266 19.996-7.2305 30.707h-61.59c-7.2539-0.003906-14.211 2.875-19.34 8.0039-5.1289 5.1289-8.0078 12.086-8.0039 19.34v356.3-0.003906c0.003906 7.2539 2.8828 14.207 8.0117 19.332 5.1289 5.1289 12.082 8.0078 19.332 8.0117h293.07c7.25-0.003906 14.203-2.8828 19.328-8.0117 5.1289-5.125 8.0117-12.078 8.0117-19.332v-356.29c0.003906-7.2539-2.875-14.211-8.0039-19.34-5.1289-5.1289-12.086-8.0078-19.336-8.0039zm-85.035 366.08h-175.18c-3.0664 0-5.5508-2.4844-5.5508-5.5508 0-3.0625 2.4844-5.5469 5.5508-5.5469h175.18c3.0664 0 5.5508 2.4844 5.5508 5.5469 0 3.0664-2.4844 5.5508-5.5508 5.5508zm0-32.012h-175.18c-3.0664 0-5.5508-2.4844-5.5508-5.5508 0-3.0625 2.4844-5.5469 5.5508-5.5469h175.18c3.0664 0 5.5508 2.4844 5.5508 5.5469 0 3.0664-2.4844 5.5508-5.5508 5.5508zm0-48.07-175.18 0.003907c-3.0664 0-5.5508-2.4844-5.5508-5.5508s2.4844-5.5508 5.5508-5.5508h175.18c3.0664 0 5.5508 2.4844 5.5508 5.5508s-2.4844 5.5508-5.5508 5.5508zm0-32.008-175.18 0.003906c-3.0664 0-5.5508-2.4844-5.5508-5.5508s2.4844-5.5508 5.5508-5.5508h175.18c3.0664 0 5.5508 2.4844 5.5508 5.5508s-2.4844 5.5508-5.5508 5.5508zm0-48.07-175.18 0.003906c-3.0664 0-5.5508-2.4844-5.5508-5.5469 0-3.0664 2.4844-5.5508 5.5508-5.5508h175.18c3.0664 0 5.5508 2.4844 5.5508 5.5508 0 3.0625-2.4844 5.5469-5.5508 5.5469zm0-32.012-175.18 0.003906c-3.0664 0-5.5508-2.4844-5.5508-5.5469 0-3.0664 2.4844-5.5508 5.5508-5.5508h175.18c3.0664 0 5.5508 2.4844 5.5508 5.5508 0 3.0625-2.4844 5.5469-5.5508 5.5469zm-9.0469-110.36c-6.6289 11.789-9.6406 26.566-12.297 39.59-4.2383 20.809-7.0508 30.426-14.297 29.254-3.957-1.8516-6.1602-22.883-7.3438-34.18-2.4922-23.852-4.6484-44.449-18.5-44.449-13.852-0.003906-16.039 20.598-18.531 44.461-1.1836 11.297-3.3828 32.324-7.2891 34.164-7.3281 1.2031-10.113-8.4375-14.352-29.23-2.6562-13.035-5.668-27.812-12.297-39.59-15.09-26.828-30.059-64.008-15.668-88.672 9.8125-16.84 33.984-18.5 51.215-10.469 0.28125 0.12891 1.3164 0.63281 1.5156 0.73828l-0.003906 0.003906c2.8789 1.4961 5.4609 3.5 7.6172 5.9219 3.2539 4.0039 7.9648 6.5508 13.098 7.0859 0.18359 0.015625 0.36719 0.027344 0.54688 0.023437 2.5938-0.027343 4.8203-1.8398 5.3672-4.375 0.54688-2.5312-0.72656-5.1055-3.0742-6.2031 2.7344-0.61719 5.3906-1.5508 7.9141-2.7852 17.262-8.5 42.07-7.0703 52.059 10.039 14.375 24.684-0.58984 61.848-15.68 88.672zm83.211 288.74c0 6.9492-5.6328 12.578-12.582 12.578h-17.277c-6.9453 0-12.578-5.6289-12.578-12.578v-17.277c0-6.9492 5.6328-12.582 12.578-12.582h17.277c6.9492 0 12.582 5.6328 12.582 12.582zm0-80.074c0 6.9453-5.6328 12.578-12.582 12.578h-17.277c-6.9453 0-12.578-5.6328-12.578-12.578v-17.297c0-6.9492 5.6328-12.582 12.578-12.582h17.277c6.9492 0 12.582 5.6328 12.582 12.582zm0-80.078v-0.003906c0 6.9492-5.6328 12.582-12.582 12.582h-17.277c-6.9453 0-12.578-5.6328-12.578-12.582v-17.277c0-6.9492 5.6328-12.578 12.578-12.578h17.277c6.9492 0 12.582 5.6289 12.582 12.578z"/>
 </g>
</svg>
