<?xml version="1.0" encoding="UTF-8"?>
<svg width="752pt" height="752pt" version="1.1" viewBox="0 0 752 752" xmlns="http://www.w3.org/2000/svg">
 <g>
  <path d="m517.98 279.99c-14.379-24.676-40.793-34.844-67.551-34.887-0.078125 2.8945-0.93359 5.7188-2.4766 8.1719-1.582 2.625-4.9922 3.4766-7.6172 1.8945-2.6289-1.582-3.4766-4.9922-1.8945-7.6172 0.37109-0.58203 0.64453-1.2188 0.80469-1.8867-12.836 1.2656-25.352 4.7812-36.973 10.383-4.5703 2.25-9.4102 3.9102-14.398 4.9414-3.1719 0.56641-5.6094 3.1211-6.0312 6.3125-0.42578 3.1914 1.2656 6.293 4.1797 7.6641 0.52344 0.22656 1.0625 0.41016 1.6133 0.54297 2.8125 0.41016 4.9336 2.7656 5.043 5.6016-0.058593 3.0273-2.5234 5.4531-5.5508 5.4609h-0.55469c-11.508-1.1484-16.934-8.7812-22.199-16.168-3.7695-6.0195-9.0352-10.965-15.277-14.355-11.566-5.9023-24.141-9.5742-37.062-10.816-0.011719 3.6133 1.1953 7.125 3.4258 9.9688 1.8516 2.4414 1.375 5.9219-1.0664 7.7734-2.4414 1.8555-5.9219 1.3789-7.7773-1.0625-3.7852-4.8867-5.7969-10.914-5.7109-17.094v-0.10937c-26.723 0.14844-53.215 10.672-67.555 35.281-30.746 52.797 0 129.57 30.523 183.81 30.523 54.238 19.867 147 63.23 139.71 31.672-5.3633 14.688-153.29 48.543-153.29s16.91 147.92 48.578 153.29c43.363 7.2891 32.742-85.504 63.23-139.71 30.484-54.203 61.305-131.01 30.523-183.81zm-190 2.1523c-2.7773-3.4805-6-6.5742-9.5859-9.2109-2.3945-1.9141-2.7812-5.4102-0.86328-7.8047 1.918-2.3945 5.4102-2.7812 7.8047-0.86328 4.3555 3.2383 8.2578 7.043 11.602 11.316 1.8125 2.4766 1.2734 5.9492-1.1992 7.7578-2.4727 1.8125-5.9453 1.2734-7.7578-1.1992zm23.914 24.027h0.003906c-1.5352 2.6523-4.9297 3.5625-7.582 2.0312-5.8672-2.9258-10.215-8.2031-11.969-14.52-0.67188-2.9922 1.2109-5.9609 4.2031-6.6289 2.9922-0.67188 5.9609 1.2109 6.6289 4.2031 1.1719 3.2227 3.5664 5.8555 6.6602 7.332 1.2773 0.73047 2.2148 1.9414 2.6016 3.3633s0.19141 2.9414-0.54297 4.2188zm23.648 10.066h-0.37109 0.003906c-5.2344-0.32422-10.43-1.082-15.539-2.2617-1.4375-0.33203-2.6875-1.2227-3.4688-2.4766-0.77734-1.2539-1.0273-2.7656-0.6875-4.2031 0.33594-1.4375 1.2344-2.6836 2.4922-3.457 1.2578-0.77344 2.7734-1.0117 4.2109-0.66797 4.5117 1.043 9.1016 1.707 13.723 1.9883 3.0625 0.10156 5.4648 2.668 5.3633 5.7344-0.10156 3.0664-2.668 5.4688-5.7344 5.3672zm30.844-2.7617h0.003907c-5.1094 1.3711-10.336 2.2578-15.613 2.6445h-0.45313 0.003907c-2.9766-0.003906-5.4141-2.3555-5.5352-5.3281-0.11719-2.9727 2.1289-5.5078 5.0938-5.75 4.5742-0.33203 9.1094-1.0938 13.543-2.2812 1.4258-0.41797 2.9609-0.24609 4.2578 0.47656 1.3008 0.72266 2.2539 1.9375 2.6523 3.3711 0.39453 1.4297 0.19922 2.9648-0.54297 4.25-0.74219 1.2891-1.9688 2.2266-3.4102 2.6016zm15.348-7.3984h0.003906c-2.3594 1.8086-5.7266 1.4375-7.6328-0.84766-1.9102-2.2812-1.6758-5.6602 0.52344-7.6641 1.8086-1.1797 2.9258-3.168 3-5.3242-0.023438-0.81641-0.03125-1.4453-0.03125-2.0703 0-0.57031 0-1.1094 0.027344-1.6758v-0.003906c0.007812-1.4844 0.62109-2.8984 1.6992-3.918 1.0781-1.0156 2.5273-1.5469 4.0078-1.4688 1.4727 0.042969 2.8672 0.66797 3.8789 1.7383 1.0078 1.0703 1.5508 2.5 1.5117 3.9688-0.015625 0.44531-0.023438 0.89453-0.023438 1.3555 0 0.51172 0 1.0273 0.027344 1.5586v0.51563h-0.003906c-0.097656 5.4336-2.668 10.527-6.9844 13.832zm16.086-40.855h0.003906c-2.8633 3.2344-5.1406 6.9414-6.7305 10.957-0.51172 1.3945-1.5625 2.5273-2.918 3.1445-1.3516 0.61328-2.8984 0.66016-4.2852 0.125-1.3867-0.53125-2.5039-1.6016-3.0977-2.9648s-0.61719-2.9062-0.058593-4.2852c2.0469-5.1758 4.9648-9.9609 8.625-14.152 0.94531-1.1445 2.3125-1.8633 3.7891-1.9922 1.4805-0.13281 2.9492 0.33594 4.0781 1.293 1.1328 0.96094 1.8359 2.332 1.9453 3.8125 0.11328 1.4805-0.37109 2.9453-1.3477 4.0625z"/>
  <path d="m609.38 160.18c0-3.0664-2.4844-5.5508-5.5469-5.5508h-106.97c-5.3711 0.011719-10.594 1.7734-14.871 5.0234-4.2812 3.2539-7.3828 7.8086-8.832 12.984l-78.406-14.473c-1.7344-1.7695-4.1094-2.7734-6.5859-2.7812h-23.961c-2.6602-0.003906-5.1953 1.1328-6.9609 3.1211-1.7695 1.9844-2.6016 4.6328-2.2891 7.2773l3.9375 33.391c0.58594 4.9727 4.8008 8.7188 9.8086 8.7188h1.75v28.211c0 3.0664 2.4844 5.5508 5.5469 5.5508 3.0664 0 5.5508-2.4844 5.5508-5.5508v-28.211h2.1094c5.0078 0 9.2227-3.7461 9.8086-8.7188l3.4609-29.32 75.742 13.977c0 0.10547 0.023437 0.21094 0.035156 0.31641v-0.003906c1.3047 5.6875 4.5195 10.758 9.1094 14.363 4.5859 3.6055 10.273 5.5312 16.105 5.4531h105.91c3.0625 0 5.5469-2.4844 5.5469-5.5469zm-77.984 32.68h-34.531c-4.0625-0.003906-7.9141-1.8281-10.492-4.9688-2.5781-3.1445-3.6172-7.2734-2.8242-11.262 1.4453-6.4688 7.2461-11.027 13.871-10.902h33.977z"/>
 </g>
</svg>
